M48
; DRILL file {KiCad 8.0.0} date 2024-03-18T21:14:38-0700
; FORMAT={-:-/ absolute / inch / decimal}
; #@! TF.CreationDate,2024-03-18T21:14:38-07:00
; #@! TF.GenerationSoftware,Kicad,Pcbnew,8.0.0
; #@! TF.FileFunction,Plated,1,2,PTH
FMAT,2
INCH
; #@! TA.AperFunction,Plated,PTH,ViaDrill
T1C0.0118
; #@! TA.AperFunction,Plated,PTH,ComponentDrill
T2C0.0315
; #@! TA.AperFunction,Plated,PTH,ComponentDrill
T3C0.0378
; #@! TA.AperFunction,Plated,PTH,ComponentDrill
T4C0.0394
; #@! TA.AperFunction,Plated,PTH,ComponentDrill
T5C0.0433
; #@! TA.AperFunction,Plated,PTH,ComponentDrill
T6C0.0472
; #@! TA.AperFunction,Plated,PTH,ComponentDrill
T7C0.0512
; #@! TA.AperFunction,Plated,PTH,ComponentDrill
T8C0.0984
; #@! TA.AperFunction,Plated,PTH,ComponentDrill
T9C0.1220
; #@! TA.AperFunction,Plated,PTH,ComponentDrill
T10C0.1260
%
G90
G05
T1
X3.3858Y-3.6811
X3.391Y-3.765
X3.3957Y-3.8976
X3.4181Y-3.6543
X3.4213Y-3.7346
X3.4506Y-3.6218
X3.4508Y-3.7051
X3.4803Y-3.8976
X3.8878Y-2.815
X3.8878Y-2.9331
X3.8878Y-2.9878
X3.8878Y-3.0232
X3.9705Y-2.815
X3.9764Y-2.9331
X3.9764Y-2.9921
X3.9764Y-3.0315
X4.0413Y-4.7835
X4.124Y-4.7835
X4.1327Y-2.5185
X4.1874Y-2.7953
X4.2465Y-2.7953
X4.3131Y-2.5218
X4.3504Y-3.9764
X4.3874Y-4.7835
X4.4094Y-4.3406
X4.4094Y-4.3996
X4.4488Y-3.6811
X4.4488Y-4.7835
X4.6917Y-2.9331
X4.6917Y-4.0157
X4.6917Y-5.0984
X4.7508Y-2.9331
X4.7508Y-4.0157
X4.7508Y-5.0984
X4.8031Y-4.0157
X4.8031Y-4.1142
X4.8031Y-4.265
X4.8031Y-4.324
X4.8216Y-2.5185
X4.8425Y-5.7087
X4.8465Y-5.1441
X4.8465Y-5.2031
X4.8465Y-5.3476
X4.8465Y-5.4067
X4.8524Y-4.7638
X4.8819Y-5.1441
X4.8819Y-5.2031
X4.8819Y-5.3476
X4.8819Y-5.4067
X4.9016Y-2.5248
X4.9114Y-4.7638
X4.9642Y-5.7087
X5.5315Y-2.3622
X5.5413Y-3.563
X5.5646Y-2.3882
X5.5858Y-2.4953
X5.5906Y-4.5276
X5.6004Y-3.563
X5.6201Y-4.9606
X5.6299Y-2.3622
X5.6299Y-2.4606
X5.6594Y-2.3228
X5.689Y-5.3543
X5.6898Y-4.5284
X5.6949Y-5.2697
X5.7146Y-2.4547
X5.7319Y-4.9606
X5.8071Y-5.7972
X5.8071Y-5.9055
X5.8477Y-2.3634
X5.8563Y-5.6693
X5.876Y-4.8622
X5.876Y-4.9606
X5.8858Y-5.1378
X5.8858Y-5.2067
X5.8858Y-5.4134
X5.8858Y-5.4921
X5.8858Y-5.7972
X5.8858Y-5.935
X5.9055Y-3.5925
X5.9055Y-4.0157
X5.9055Y-4.4783
X5.9055Y-4.5374
X5.9067Y-4.0957
X5.9094Y-3.5335
X5.9154Y-5.6693
X5.9228Y-4.0551
X5.9449Y-3.5335
X5.9449Y-3.5925
X5.9449Y-4.4783
X5.9449Y-4.5374
X5.9843Y-4.0551
X6.0335Y-4.8622
X6.0335Y-4.9606
X6.1024Y-5.2756
X6.1055Y-5.3575
X6.1614Y-1.8209
X6.1811Y-2.3622
X6.1811Y-5.7283
X6.2205Y-1.7618
X6.2205Y-5.1378
X6.2272Y-4.1732
X6.263Y-2.3654
X6.2709Y-5.4724
X6.2992Y-5.9732
X6.2992Y-6.0087
X6.3091Y-5.7283
X6.3358Y-3.0736
X6.3386Y-2.9528
X6.3407Y-5.9076
X6.3583Y-4.4028
X6.3583Y-4.4618
X6.3768Y-5.0382
X6.3878Y-4.1732
X6.3917Y-5.5232
X6.3917Y-5.2165
X6.4213Y-5.2381
X6.4327Y-3.7051
X6.437Y-5.5118
X6.4577Y-3.7302
X6.4764Y-3.6614
X6.4764Y-5.5732
X6.4806Y-3.6155
X6.483Y-3.7554
X6.4961Y-4.1437
X6.4961Y-4.2028
X6.4961Y-4.4028
X6.4961Y-4.4618
X6.4961Y-5.4134
X6.5014Y-3.6865
X6.508Y-3.7805
X6.5245Y-3.7134
X6.653Y-1.9089
X6.7126Y-4.9142
X6.7126Y-4.9732
X6.7342Y-1.9113
X6.8012Y-3.0906
X6.8083Y-4.6232
X6.811Y-4.5335
X6.852Y-3.3776
X6.8602Y-3.0906
X6.8898Y-4.1732
X6.9555Y-4.174
X6.9882Y-3.9173
X6.991Y-3.2453
X7.0276Y-1.9882
X7.0729Y-6.0296
X7.0866Y-1.9193
X7.0866Y-3.0571
X7.0866Y-3.376
X7.0914Y-5.9693
X7.1197Y-5.8993
X7.126Y-3.3465
X7.1382Y-5.839
X7.1654Y-3.9173
X7.1654Y-4.4882
X7.1654Y-4.5335
X7.1654Y-4.6161
X7.1665Y-5.7689
X7.213Y-3.3208
X7.2215Y-1.9193
X7.2482Y-4.4923
X7.2556Y-1.9097
X7.2939Y-1.9549
X7.3384Y-1.9576
X7.3413Y-4.6862
X7.3437Y-4.5657
X7.4016Y-4.7142
X7.4016Y-4.7732
X7.4409Y-3.3209
X7.4409Y-4.7047
X7.4409Y-4.7732
X7.4528Y-2.9035
X7.4528Y-2.9724
X7.4882Y-2.9035
X7.4882Y-2.9724
X7.5197Y-3.2382
X7.5236Y-2.9035
X7.5236Y-2.9724
X7.5591Y-2.9035
X7.5591Y-2.9724
T2
X4.1669Y-2.7165
X4.1669Y-3.4055
X4.1669Y-3.6024
X4.1669Y-3.7992
X4.1669Y-4.4882
X4.1669Y-4.685
X4.1669Y-4.8819
X4.1669Y-5.5709
X4.1669Y-5.7677
X4.5669Y-2.7165
X4.5669Y-3.4055
X4.5669Y-3.6024
X4.5669Y-3.7992
X4.5669Y-4.4882
X4.5669Y-4.685
X4.5669Y-4.8819
X4.5669Y-5.5709
X4.5669Y-5.7677
X4.9346Y-2.7165
X4.9346Y-3.6024
X4.9346Y-3.7992
X4.9346Y-4.4882
X4.9346Y-4.685
X4.9346Y-4.8819
X4.9346Y-5.5709
X4.9346Y-5.7677
X4.9378Y-3.4055
X5.3346Y-2.7165
X5.3346Y-3.6024
X5.3346Y-3.7992
X5.3346Y-4.4882
X5.3346Y-4.685
X5.3346Y-4.8819
X5.3346Y-5.5709
X5.3346Y-5.7677
X5.3378Y-3.4055
X5.5055Y-1.8504
X5.7024Y-2.7362
X5.7024Y-2.9331
X5.7024Y-3.6811
X5.7024Y-3.878
X5.7024Y-4.626
X5.7024Y-4.8228
X5.7024Y-5.5709
X5.7024Y-5.7677
X5.9055Y-1.8504
X6.0173Y-1.8504
X6.1024Y-2.7362
X6.1024Y-2.9331
X6.1024Y-3.6811
X6.1024Y-3.878
X6.1024Y-4.626
X6.1024Y-4.8228
X6.1024Y-5.5709
X6.1024Y-5.7677
X6.4173Y-1.8504
X6.4929Y-3.189
X6.4931Y-2.7362
X6.4931Y-2.9331
X6.8929Y-3.189
X6.8931Y-2.7362
X6.8931Y-2.9331
X6.926Y-3.4843
X6.926Y-4.311
X7.0047Y-3.4843
X7.0047Y-4.311
X7.0213Y-3.189
X7.0835Y-3.4843
X7.0835Y-4.311
X7.1622Y-3.4843
X7.1622Y-4.311
X7.2409Y-3.4843
X7.2409Y-4.311
X7.3197Y-3.4843
X7.3197Y-4.311
X7.3984Y-3.4843
X7.3984Y-4.311
X7.4213Y-3.189
X7.4772Y-3.4843
X7.4772Y-4.311
X7.5559Y-3.189
X7.5559Y-3.4843
X7.5559Y-4.311
X7.6346Y-3.4843
X7.6346Y-4.311
X7.9559Y-3.189
T3
X4.7179Y-3.3976
X4.7179Y-3.5
X4.7179Y-3.6024
X4.7179Y-4.4803
X4.7179Y-4.5827
X4.7179Y-4.685
X4.7179Y-5.563
X4.7179Y-5.6654
X4.7179Y-5.7677
X5.4856Y-3.3976
X5.4856Y-3.5
X5.4856Y-3.6024
X5.4856Y-4.4803
X5.4856Y-4.5827
X5.4856Y-4.685
X5.4856Y-5.563
X5.4856Y-5.6654
X5.4856Y-5.7677
X6.2533Y-2.7283
X6.2533Y-2.8307
X6.2533Y-2.9331
X6.2533Y-3.6732
X6.2533Y-3.7756
X6.2533Y-3.878
X6.2533Y-4.6181
X6.2533Y-4.7205
X6.2533Y-4.8228
X6.2533Y-5.563
X6.2533Y-5.6654
X6.2533Y-5.7677
X6.552Y-1.847
X6.6543Y-1.847
X6.7567Y-1.847
X7.2376Y-2.7283
X7.2376Y-2.8307
X7.2376Y-2.9331
T4
X3.6945Y-2.2244
X3.6945Y-2.3331
X3.6945Y-2.4417
X3.6945Y-2.5504
X3.6945Y-2.6591
X3.6945Y-2.7677
X3.6945Y-2.8764
X3.6945Y-2.985
X3.6945Y-3.0937
X3.6945Y-3.2024
X3.6945Y-3.311
X3.6945Y-3.4197
X3.8063Y-2.1701
X3.8063Y-2.2787
X3.8063Y-2.3874
X3.8063Y-2.4961
X3.8063Y-2.6047
X3.8063Y-2.7134
X3.8063Y-2.822
X3.8063Y-2.9307
X3.8063Y-3.0394
X3.8063Y-3.148
X3.8063Y-3.2567
X3.8063Y-3.3654
X3.8063Y-3.474
X6.6461Y-4.6437
X6.6461Y-4.7437
X6.6461Y-4.8437
X6.6461Y-4.9437
X6.6461Y-5.0437
X6.6461Y-5.1437
X6.6461Y-5.2437
X6.6461Y-5.3437
X6.6461Y-5.4437
X6.6461Y-5.5437
X6.6461Y-5.6437
X6.6461Y-5.7437
X6.6461Y-5.8437
X6.6461Y-5.9437
X6.6461Y-6.0437
X7.0535Y-1.8535
X7.1535Y-1.8535
X7.2461Y-4.6437
X7.2461Y-4.7437
X7.2461Y-4.8437
X7.2461Y-4.9437
X7.2461Y-5.0437
X7.2461Y-5.1437
X7.2461Y-5.2437
X7.2461Y-5.3437
X7.2461Y-5.4437
X7.2461Y-5.5437
X7.2461Y-5.6437
X7.2461Y-5.7437
X7.2461Y-5.8437
X7.2461Y-5.9437
X7.2461Y-6.0437
X7.2535Y-1.8535
X7.3535Y-1.8535
X7.7557Y-4.9785
X7.7557Y-5.0877
X7.7557Y-5.1969
X7.7557Y-5.306
X7.7557Y-5.4152
X7.7559Y-2.1636
X7.7559Y-2.2727
X7.7559Y-2.3819
X7.7559Y-2.491
X7.7559Y-2.6002
X7.8675Y-5.0331
X7.8675Y-5.1423
X7.8675Y-5.2514
X7.8675Y-5.3606
X7.8677Y-2.2181
X7.8677Y-2.3273
X7.8677Y-2.4365
X7.8677Y-2.5456
T5
X4.7213Y-2.8118
X4.7213Y-3.2118
X4.7213Y-3.8945
X4.7213Y-4.2945
X4.7213Y-4.9772
X4.7213Y-5.3772
X5.489Y-2.8118
X5.489Y-3.2118
X5.489Y-3.8945
X5.489Y-4.2945
X5.489Y-4.9772
X5.489Y-5.3772
X5.5055Y-2.0276
X5.9055Y-2.0276
X6.2567Y-2.1425
X6.2567Y-2.5425
X6.2567Y-3.0874
X6.2567Y-3.4874
X6.2567Y-4.0323
X6.2567Y-4.4323
X6.2567Y-4.9772
X6.2567Y-5.3772
X7.0441Y-2.5362
X7.0441Y-2.9362
T6
X3.678Y-5.0787
X3.678Y-5.6299
T7
X4.2606Y-2.0177
X4.2606Y-2.313
X5.048Y-2.0177
X5.048Y-2.313
X5.2449Y-2.0177
X5.2449Y-2.313
T8
X3.4909Y-4.9213
X3.4909Y-5.4724
T9
X3.7504Y-1.8969
X3.7504Y-3.7472
T10
X3.4811Y-6.0039
X3.4843Y-1.5551
X7.8116Y-4.7049
X7.8116Y-5.6888
X7.8118Y-1.89
X7.8118Y-2.8738
X7.989Y-6.0039
X7.9921Y-1.5551
M30
