%TF.GenerationSoftware,KiCad,Pcbnew,8.0.0*%
%TF.CreationDate,2024-03-27T19:15:27-07:00*%
%TF.ProjectId,honda radio,686f6e64-6120-4726-9164-696f2e6b6963,rev?*%
%TF.SameCoordinates,Original*%
%TF.FileFunction,Copper,L1,Top*%
%TF.FilePolarity,Positive*%
%FSLAX46Y46*%
G04 Gerber Fmt 4.6, Leading zero omitted, Abs format (unit mm)*
G04 Created by KiCad (PCBNEW 8.0.0) date 2024-03-27 19:15:27*
%MOMM*%
%LPD*%
G01*
G04 APERTURE LIST*
%TA.AperFunction,ComponentPad*%
%ADD10C,1.600000*%
%TD*%
%TA.AperFunction,ComponentPad*%
%ADD11O,1.600000X1.600000*%
%TD*%
%TA.AperFunction,ComponentPad*%
%ADD12R,2.200000X2.200000*%
%TD*%
%TA.AperFunction,ComponentPad*%
%ADD13O,2.200000X2.200000*%
%TD*%
%TA.AperFunction,ComponentPad*%
%ADD14C,1.493000*%
%TD*%
%TA.AperFunction,SMDPad,CuDef*%
%ADD15R,0.800000X2.660000*%
%TD*%
%TA.AperFunction,ComponentPad*%
%ADD16C,4.800000*%
%TD*%
%TA.AperFunction,ComponentPad*%
%ADD17C,4.650000*%
%TD*%
%TA.AperFunction,ComponentPad*%
%ADD18R,1.500000X1.500000*%
%TD*%
%TA.AperFunction,ComponentPad*%
%ADD19C,1.500000*%
%TD*%
%TA.AperFunction,ComponentPad*%
%ADD20R,1.350000X1.350000*%
%TD*%
%TA.AperFunction,ComponentPad*%
%ADD21O,1.350000X1.350000*%
%TD*%
%TA.AperFunction,ComponentPad*%
%ADD22C,1.950000*%
%TD*%
%TA.AperFunction,SMDPad,CuDef*%
%ADD23R,2.200000X2.800000*%
%TD*%
%TA.AperFunction,SMDPad,CuDef*%
%ADD24R,2.800000X2.600000*%
%TD*%
%TA.AperFunction,ComponentPad*%
%ADD25R,1.700000X1.700000*%
%TD*%
%TA.AperFunction,ComponentPad*%
%ADD26O,1.700000X1.700000*%
%TD*%
%TA.AperFunction,ComponentPad*%
%ADD27R,1.600000X1.600000*%
%TD*%
%TA.AperFunction,ComponentPad*%
%ADD28R,3.750000X3.750000*%
%TD*%
%TA.AperFunction,ComponentPad*%
%ADD29C,1.800000*%
%TD*%
%TA.AperFunction,ComponentPad*%
%ADD30C,3.750000*%
%TD*%
%TA.AperFunction,ViaPad*%
%ADD31C,0.600000*%
%TD*%
%TA.AperFunction,Conductor*%
%ADD32C,0.300000*%
%TD*%
G04 APERTURE END LIST*
D10*
%TO.P,R6,1*%
%TO.N,Net-(J1-GND)*%
X155000000Y-98500000D03*
D11*
%TO.P,R6,2*%
%TO.N,Net-(J6-D8)*%
X144840000Y-98500000D03*
%TD*%
D12*
%TO.P,D7,1,K*%
%TO.N,Net-(D1-K)*%
X139420000Y-109080000D03*
D13*
%TO.P,D7,2,A*%
%TO.N,Net-(D7-A)*%
X139420000Y-98920000D03*
%TD*%
D14*
%TO.P,Q10,1,C*%
%TO.N,Net-(D10-A)*%
X119835000Y-141300000D03*
%TO.P,Q10,2,B*%
%TO.N,Net-(Q10-B)*%
X119835000Y-143900000D03*
%TO.P,Q10,3,E*%
%TO.N,Net-(J1-GND)*%
X119835000Y-146500000D03*
%TD*%
D10*
%TO.P,R16,1*%
%TO.N,Net-(J1-GND)*%
X175085000Y-74500000D03*
D11*
%TO.P,R16,2*%
%TO.N,Net-(J6-D12)*%
X164925000Y-74500000D03*
%TD*%
D10*
%TO.P,R23,1*%
%TO.N,Net-(J3-LED1)*%
X116000000Y-124000000D03*
D11*
%TO.P,R23,2*%
%TO.N,Net-(K10-N.O.)*%
X105840000Y-124000000D03*
%TD*%
D10*
%TO.P,R31,1*%
%TO.N,Net-(J1-GND)*%
X116000000Y-146500000D03*
D11*
%TO.P,R31,2*%
%TO.N,Net-(J6-D7)*%
X105840000Y-146500000D03*
%TD*%
D15*
%TO.P,K8,2,COM*%
%TO.N,Net-(J1-12V)*%
X131690000Y-74630000D03*
%TO.P,K8,4,N.O.*%
%TO.N,Net-(K8-N.O.)*%
X126610000Y-74630000D03*
%TO.P,K8,5,COIL_1*%
%TO.N,Net-(D1-K)*%
X126610000Y-81370000D03*
%TO.P,K8,8,COIL_2*%
%TO.N,Net-(D8-A)*%
X134230000Y-81370000D03*
%TD*%
D14*
%TO.P,Q5,1,C*%
%TO.N,Net-(D5-A)*%
X183835000Y-69300000D03*
%TO.P,Q5,2,B*%
%TO.N,Net-(Q5-B)*%
X183835000Y-71900000D03*
%TO.P,Q5,3,E*%
%TO.N,Net-(J1-GND)*%
X183835000Y-74500000D03*
%TD*%
D15*
%TO.P,K7,2,COM*%
%TO.N,Net-(J1-12V)*%
X131690000Y-102130000D03*
%TO.P,K7,4,N.O.*%
%TO.N,Net-(K7-N.O.)*%
X126610000Y-102130000D03*
%TO.P,K7,5,COIL_1*%
%TO.N,Net-(D1-K)*%
X126610000Y-108870000D03*
%TO.P,K7,8,COIL_2*%
%TO.N,Net-(D7-A)*%
X134230000Y-108870000D03*
%TD*%
D10*
%TO.P,R30,1*%
%TO.N,Net-(Q12-B)*%
X116000000Y-86500000D03*
D11*
%TO.P,R30,2*%
%TO.N,Net-(J6-D5)*%
X105840000Y-86500000D03*
%TD*%
D10*
%TO.P,R17,1*%
%TO.N,Net-(Q6-B)*%
X135500000Y-141500000D03*
D11*
%TO.P,R17,2*%
%TO.N,Net-(J6-D2)*%
X125340000Y-141500000D03*
%TD*%
D16*
%TO.P,REF\u002A\u002A,MH1*%
%TO.N,N/C*%
X88500000Y-39500000D03*
%TD*%
D17*
%TO.P,J3,0,PAD*%
%TO.N,Net-(J1-GND)*%
X95260000Y-48180000D03*
D18*
%TO.P,J3,1,GND*%
X96680000Y-88240000D03*
D19*
%TO.P,J3,2,12V*%
%TO.N,Net-(J1-12V)*%
X96680000Y-85480000D03*
%TO.P,J3,3,SPK_L*%
%TO.N,Net-(J3-SPK_L)*%
X96680000Y-82720000D03*
%TO.P,J3,4,SPK_R*%
%TO.N,Net-(J3-SPK_R)*%
X96680000Y-79960000D03*
%TO.P,J3,5,B+*%
%TO.N,Net-(J3-B+)*%
X96680000Y-77200000D03*
%TO.P,J3,6,B+RAD*%
%TO.N,Net-(J3-B+RAD)*%
X96680000Y-74440000D03*
%TO.P,J3,7,B+TAP*%
%TO.N,Net-(J3-B+TAP)*%
X96680000Y-71680000D03*
%TO.P,J3,8,BTN1*%
%TO.N,Net-(J3-BTN1)*%
X96680000Y-68920000D03*
%TO.P,J3,9,BTN2*%
%TO.N,Net-(J3-BTN2)*%
X96680000Y-66160000D03*
%TO.P,J3,10,BTN3*%
%TO.N,Net-(J3-BTN3)*%
X96680000Y-63400000D03*
%TO.P,J3,11,BTN4*%
%TO.N,Net-(J3-BTN4)*%
X96680000Y-60640000D03*
%TO.P,J3,12,BTN5*%
%TO.N,Net-(J3-BTN5)*%
X96680000Y-57880000D03*
%TO.P,J3,13,BTN6*%
%TO.N,Net-(J3-BTN6)*%
X96680000Y-55120000D03*
%TO.P,J3,14,GND*%
%TO.N,Net-(J1-GND)*%
X93840000Y-86860000D03*
%TO.P,J3,15,LED6*%
%TO.N,Net-(J3-LED6)*%
X93840000Y-84100000D03*
%TO.P,J3,16,LED5*%
%TO.N,Net-(J3-LED5)*%
X93840000Y-81340000D03*
%TO.P,J3,17,LED4*%
%TO.N,Net-(J3-LED4)*%
X93840000Y-78580000D03*
%TO.P,J3,18,LED3*%
%TO.N,Net-(J3-LED3)*%
X93840000Y-75820000D03*
%TO.P,J3,19,LED2*%
%TO.N,Net-(J3-LED2)*%
X93840000Y-73060000D03*
%TO.P,J3,20,LED1*%
%TO.N,Net-(J3-LED1)*%
X93840000Y-70300000D03*
%TO.P,J3,21,NC*%
%TO.N,unconnected-(J3-NC-Pad21)*%
X93840000Y-67540000D03*
%TO.P,J3,22,NC*%
%TO.N,unconnected-(J3-NC-Pad22)*%
X93840000Y-64780000D03*
%TO.P,J3,23,NC*%
%TO.N,unconnected-(J3-NC-Pad23)*%
X93840000Y-62020000D03*
%TO.P,J3,24,NC*%
%TO.N,unconnected-(J3-NC-Pad24)*%
X93840000Y-59260000D03*
%TO.P,J3,25,NC*%
%TO.N,unconnected-(J3-NC-Pad25)*%
X93840000Y-56500000D03*
D17*
%TO.P,J3,MH1*%
%TO.N,N/C*%
X95260000Y-95180000D03*
%TD*%
D16*
%TO.P,REF\u002A\u002A,MH1*%
%TO.N,N/C*%
X88420000Y-152500000D03*
%TD*%
D10*
%TO.P,R28,1*%
%TO.N,Net-(Q10-B)*%
X116000000Y-141500000D03*
D11*
%TO.P,R28,2*%
%TO.N,Net-(J6-D7)*%
X105840000Y-141500000D03*
%TD*%
D16*
%TO.P,J1,0,PAD*%
%TO.N,Net-(J1-GND)*%
X198420000Y-72995000D03*
D18*
%TO.P,J1,1,1.8V_TRIG*%
%TO.N,Net-(J1-1.8V_TRIG)*%
X197000000Y-54955000D03*
D19*
%TO.P,J1,2,FWD_BTN*%
%TO.N,Net-(J1-FWD_BTN)*%
X197000000Y-57727000D03*
%TO.P,J1,3,REW_BTN*%
%TO.N,Net-(J1-REW_BTN)*%
X197000000Y-60500000D03*
%TO.P,J1,4,PP_BTN*%
%TO.N,Net-(J1-PP_BTN)*%
X197000000Y-63272000D03*
%TO.P,J1,5,NC*%
%TO.N,unconnected-(J1-NC-Pad5)*%
X197000000Y-66045000D03*
%TO.P,J1,6,NC*%
%TO.N,unconnected-(J1-NC-Pad6)*%
X199840000Y-56341000D03*
%TO.P,J1,7,5V*%
%TO.N,Net-(D1-K)*%
X199840000Y-59114000D03*
%TO.P,J1,8,12V*%
%TO.N,Net-(J1-12V)*%
X199840000Y-61886000D03*
%TO.P,J1,9,GND*%
%TO.N,Net-(J1-GND)*%
X199840000Y-64659000D03*
D16*
%TO.P,J1,MH1*%
%TO.N,N/C*%
X198420000Y-48005000D03*
%TD*%
D10*
%TO.P,R11,1*%
%TO.N,Net-(J3-LED5)*%
X135500000Y-96500000D03*
D11*
%TO.P,R11,2*%
%TO.N,Net-(K7-N.O.)*%
X125340000Y-96500000D03*
%TD*%
D20*
%TO.P,J8,1,GND*%
%TO.N,Net-(J1-GND)*%
X193920000Y-88500000D03*
D21*
%TO.P,J8,2,SPK_LP*%
%TO.N,unconnected-(J8-SPK_LP-Pad2)*%
X191920000Y-88500000D03*
%TO.P,J8,3,SPK_LN*%
%TO.N,unconnected-(J8-SPK_LN-Pad3)*%
X189920000Y-88500000D03*
%TO.P,J8,4,SPK_RP*%
%TO.N,unconnected-(J8-SPK_RP-Pad4)*%
X187920000Y-88500000D03*
%TO.P,J8,5,SPK_RN*%
%TO.N,unconnected-(J8-SPK_RN-Pad5)*%
X185920000Y-88500000D03*
D20*
%TO.P,J8,6,GND*%
%TO.N,Net-(J1-GND)*%
X183920000Y-88500000D03*
D21*
%TO.P,J8,7,LIN_AN*%
%TO.N,unconnected-(J8-LIN_AN-Pad7)*%
X181920000Y-88500000D03*
%TO.P,J8,8,LIN_AP*%
%TO.N,unconnected-(J8-LIN_AP-Pad8)*%
X179920000Y-88500000D03*
%TO.P,J8,9,LIN_BN*%
%TO.N,unconnected-(J8-LIN_BN-Pad9)*%
X177920000Y-88500000D03*
%TO.P,J8,10,LIN_BP*%
%TO.N,unconnected-(J8-LIN_BP-Pad10)*%
X175920000Y-88500000D03*
%TO.P,J8,11,VIN*%
%TO.N,Net-(D1-K)*%
X175920000Y-109500000D03*
%TO.P,J8,12,+3.3V*%
%TO.N,unconnected-(J8-+3.3V-Pad12)*%
X177920000Y-109500000D03*
%TO.P,J8,13,SPK_R*%
%TO.N,Net-(J8-SPK_R)*%
X179920000Y-109500000D03*
%TO.P,J8,14,SPK_L*%
%TO.N,Net-(J8-SPK_L)*%
X181920000Y-109500000D03*
%TO.P,J8,15,+1.8V*%
%TO.N,Net-(J1-1.8V_TRIG)*%
X183920000Y-109500000D03*
D20*
%TO.P,J8,16,GND*%
%TO.N,Net-(J1-GND)*%
X185920000Y-109500000D03*
D21*
%TO.P,J8,17,FWD*%
%TO.N,Net-(J8-FWD)*%
X187920000Y-109500000D03*
%TO.P,J8,18,REW*%
%TO.N,Net-(J8-REW)*%
X189920000Y-109500000D03*
%TO.P,J8,19,P/P*%
%TO.N,Net-(J8-P{slash}P)*%
X191920000Y-109500000D03*
%TO.P,J8,20,AUXD_MUT*%
%TO.N,unconnected-(J8-AUXD_MUT-Pad20)*%
X193920000Y-109500000D03*
%TD*%
D12*
%TO.P,D9,1,K*%
%TO.N,Net-(D1-K)*%
X139840000Y-51500000D03*
D13*
%TO.P,D9,2,A*%
%TO.N,Net-(D9-A)*%
X150000000Y-51500000D03*
%TD*%
D10*
%TO.P,R29,1*%
%TO.N,Net-(Q11-B)*%
X116000000Y-114000000D03*
D11*
%TO.P,R29,2*%
%TO.N,Net-(J6-D6)*%
X105840000Y-114000000D03*
%TD*%
D12*
%TO.P,D5,1,K*%
%TO.N,Net-(D1-K)*%
X178920000Y-74580000D03*
D13*
%TO.P,D5,2,A*%
%TO.N,Net-(D5-A)*%
X178920000Y-64420000D03*
%TD*%
D10*
%TO.P,R27,1*%
%TO.N,Net-(J1-GND)*%
X163000000Y-47000000D03*
D11*
%TO.P,R27,2*%
%TO.N,Net-(J6-D13)*%
X152840000Y-47000000D03*
%TD*%
D14*
%TO.P,Q2,1,C*%
%TO.N,Net-(D2-A)*%
X158835000Y-117300000D03*
%TO.P,Q2,2,B*%
%TO.N,Net-(Q2-B)*%
X158835000Y-119900000D03*
%TO.P,Q2,3,E*%
%TO.N,Net-(J1-GND)*%
X158835000Y-122500000D03*
%TD*%
D22*
%TO.P,K9,1,COIL_1*%
%TO.N,Net-(D1-K)*%
X108220000Y-58750000D03*
%TO.P,K9,3,COM_1*%
%TO.N,Net-(J8-SPK_L)*%
X128220000Y-58750000D03*
%TO.P,K9,4,NO_1*%
%TO.N,Net-(J3-SPK_L)*%
X133220000Y-58750000D03*
%TO.P,K9,5,NO_2*%
%TO.N,Net-(J3-SPK_R)*%
X133220000Y-51250000D03*
%TO.P,K9,6,COM_2*%
%TO.N,Net-(J8-SPK_R)*%
X128220000Y-51250000D03*
%TO.P,K9,8,COIL_2*%
%TO.N,Net-(D9-A)*%
X108220000Y-51250000D03*
%TD*%
D12*
%TO.P,D2,1,K*%
%TO.N,Net-(D1-K)*%
X158920000Y-112580000D03*
D13*
%TO.P,D2,2,A*%
%TO.N,Net-(D2-A)*%
X158920000Y-102420000D03*
%TD*%
D12*
%TO.P,D4,1,K*%
%TO.N,Net-(D1-K)*%
X158920000Y-64580000D03*
D13*
%TO.P,D4,2,A*%
%TO.N,Net-(D4-A)*%
X158920000Y-54420000D03*
%TD*%
D10*
%TO.P,R7,1*%
%TO.N,Net-(J1-PP_BTN)*%
X191920000Y-81000000D03*
D11*
%TO.P,R7,2*%
%TO.N,Net-(J8-P{slash}P)*%
X202080000Y-81000000D03*
%TD*%
D15*
%TO.P,K6,2,COM*%
%TO.N,Net-(J1-12V)*%
X131690000Y-129630000D03*
%TO.P,K6,4,N.O.*%
%TO.N,Net-(K6-N.O.)*%
X126610000Y-129630000D03*
%TO.P,K6,5,COIL_1*%
%TO.N,Net-(D1-K)*%
X126610000Y-136370000D03*
%TO.P,K6,8,COIL_2*%
%TO.N,Net-(D6-A)*%
X134230000Y-136370000D03*
%TD*%
D10*
%TO.P,R5,1*%
%TO.N,Net-(J1-GND)*%
X155000000Y-122500000D03*
D11*
%TO.P,R5,2*%
%TO.N,Net-(J6-D10)*%
X144840000Y-122500000D03*
%TD*%
D15*
%TO.P,K1,2,COM*%
%TO.N,Net-(J1-1.8V_TRIG)*%
X151190000Y-129630000D03*
%TO.P,K1,4,N.O.*%
%TO.N,Net-(J1-REW_BTN)*%
X146110000Y-129630000D03*
%TO.P,K1,5,COIL_1*%
%TO.N,Net-(D1-K)*%
X146110000Y-136370000D03*
%TO.P,K1,8,COIL_2*%
%TO.N,Net-(D1-A)*%
X153730000Y-136370000D03*
%TD*%
D10*
%TO.P,R32,1*%
%TO.N,Net-(J1-GND)*%
X116000000Y-119000000D03*
D11*
%TO.P,R32,2*%
%TO.N,Net-(J6-D6)*%
X105840000Y-119000000D03*
%TD*%
D10*
%TO.P,R25,1*%
%TO.N,Net-(J3-LED3)*%
X116000000Y-69000000D03*
D11*
%TO.P,R25,2*%
%TO.N,Net-(K12-N.O.)*%
X105840000Y-69000000D03*
%TD*%
D23*
%TO.P,J5,1,SLEEVE*%
%TO.N,Net-(J1-GND)*%
X85320000Y-112200000D03*
D24*
%TO.P,J5,2,TIP*%
%TO.N,Net-(J3-SPK_L)*%
X94720000Y-112300000D03*
D23*
%TO.P,J5,3,RING*%
%TO.N,Net-(J3-SPK_R)*%
X87320000Y-104800000D03*
%TD*%
D12*
%TO.P,D3,1,K*%
%TO.N,Net-(D1-K)*%
X158920000Y-88580000D03*
D13*
%TO.P,D3,2,A*%
%TO.N,Net-(D3-A)*%
X158920000Y-78420000D03*
%TD*%
D14*
%TO.P,Q7,1,C*%
%TO.N,Net-(D7-A)*%
X139335000Y-113800000D03*
%TO.P,Q7,2,B*%
%TO.N,Net-(Q7-B)*%
X139335000Y-116400000D03*
%TO.P,Q7,3,E*%
%TO.N,Net-(J1-GND)*%
X139335000Y-119000000D03*
%TD*%
D16*
%TO.P,,MH1*%
%TO.N,N/C*%
X203000000Y-39500000D03*
%TD*%
%TO.P,,MH1*%
%TO.N,N/C*%
X202920000Y-152500000D03*
%TD*%
D15*
%TO.P,K3,2,COM*%
%TO.N,Net-(J1-1.8V_TRIG)*%
X151190000Y-81630000D03*
%TO.P,K3,4,N.O.*%
%TO.N,Net-(J1-FWD_BTN)*%
X146110000Y-81630000D03*
%TO.P,K3,5,COIL_1*%
%TO.N,Net-(D1-K)*%
X146110000Y-88370000D03*
%TO.P,K3,8,COIL_2*%
%TO.N,Net-(D3-A)*%
X153730000Y-88370000D03*
%TD*%
D10*
%TO.P,R13,1*%
%TO.N,Net-(Q4-B)*%
X155000000Y-69500000D03*
D11*
%TO.P,R13,2*%
%TO.N,Net-(J6-D11)*%
X144840000Y-69500000D03*
%TD*%
D14*
%TO.P,Q9,1,C*%
%TO.N,Net-(D9-A)*%
X171620000Y-46915000D03*
%TO.P,Q9,2,B*%
%TO.N,Net-(Q9-B)*%
X169020000Y-46915000D03*
%TO.P,Q9,3,E*%
%TO.N,Net-(J1-GND)*%
X166420000Y-46915000D03*
%TD*%
D15*
%TO.P,K12,2,COM*%
%TO.N,Net-(J1-12V)*%
X112190000Y-74630000D03*
%TO.P,K12,4,N.O.*%
%TO.N,Net-(K12-N.O.)*%
X107110000Y-74630000D03*
%TO.P,K12,5,COIL_1*%
%TO.N,Net-(D1-K)*%
X107110000Y-81370000D03*
%TO.P,K12,8,COIL_2*%
%TO.N,Net-(D12-A)*%
X114730000Y-81370000D03*
%TD*%
D14*
%TO.P,Q12,1,C*%
%TO.N,Net-(D12-A)*%
X119835000Y-86300000D03*
%TO.P,Q12,2,B*%
%TO.N,Net-(Q12-B)*%
X119835000Y-88900000D03*
%TO.P,Q12,3,E*%
%TO.N,Net-(J1-GND)*%
X119835000Y-91500000D03*
%TD*%
D10*
%TO.P,R26,1*%
%TO.N,Net-(Q9-B)*%
X139840000Y-47000000D03*
D11*
%TO.P,R26,2*%
%TO.N,Net-(J6-D13)*%
X150000000Y-47000000D03*
%TD*%
D14*
%TO.P,Q3,1,C*%
%TO.N,Net-(D3-A)*%
X158835000Y-93300000D03*
%TO.P,Q3,2,B*%
%TO.N,Net-(Q3-B)*%
X158835000Y-95900000D03*
%TO.P,Q3,3,E*%
%TO.N,Net-(J1-GND)*%
X158835000Y-98500000D03*
%TD*%
D10*
%TO.P,R21,1*%
%TO.N,Net-(J1-GND)*%
X135500000Y-119000000D03*
D11*
%TO.P,R21,2*%
%TO.N,Net-(J6-D3)*%
X125340000Y-119000000D03*
%TD*%
D14*
%TO.P,Q1,1,C*%
%TO.N,Net-(D1-A)*%
X158835000Y-141300000D03*
%TO.P,Q1,2,B*%
%TO.N,Net-(Q1-B)*%
X158835000Y-143900000D03*
%TO.P,Q1,3,E*%
%TO.N,Net-(J1-GND)*%
X158835000Y-146500000D03*
%TD*%
D12*
%TO.P,D11,1,K*%
%TO.N,Net-(D1-K)*%
X119920000Y-109080000D03*
D13*
%TO.P,D11,2,A*%
%TO.N,Net-(D11-A)*%
X119920000Y-98920000D03*
%TD*%
D10*
%TO.P,R33,1*%
%TO.N,Net-(J1-GND)*%
X116000000Y-91500000D03*
D11*
%TO.P,R33,2*%
%TO.N,Net-(J6-D5)*%
X105840000Y-91500000D03*
%TD*%
D12*
%TO.P,D12,1,K*%
%TO.N,Net-(D1-K)*%
X119920000Y-81580000D03*
D13*
%TO.P,D12,2,A*%
%TO.N,Net-(D12-A)*%
X119920000Y-71420000D03*
%TD*%
D10*
%TO.P,R22,1*%
%TO.N,Net-(J1-GND)*%
X135500000Y-91500000D03*
D11*
%TO.P,R22,2*%
%TO.N,Net-(J6-D4)*%
X125340000Y-91500000D03*
%TD*%
D12*
%TO.P,D10,1,K*%
%TO.N,Net-(D1-K)*%
X119920000Y-136580000D03*
D13*
%TO.P,D10,2,A*%
%TO.N,Net-(D10-A)*%
X119920000Y-126420000D03*
%TD*%
D14*
%TO.P,Q6,1,C*%
%TO.N,Net-(D6-A)*%
X139335000Y-141300000D03*
%TO.P,Q6,2,B*%
%TO.N,Net-(Q6-B)*%
X139335000Y-143900000D03*
%TO.P,Q6,3,E*%
%TO.N,Net-(J1-GND)*%
X139335000Y-146500000D03*
%TD*%
D10*
%TO.P,R15,1*%
%TO.N,Net-(J1-GND)*%
X155000000Y-74500000D03*
D11*
%TO.P,R15,2*%
%TO.N,Net-(J6-D11)*%
X144840000Y-74500000D03*
%TD*%
D14*
%TO.P,Q8,1,C*%
%TO.N,Net-(D8-A)*%
X139335000Y-86300000D03*
%TO.P,Q8,2,B*%
%TO.N,Net-(Q8-B)*%
X139335000Y-88900000D03*
%TO.P,Q8,3,E*%
%TO.N,Net-(J1-GND)*%
X139335000Y-91500000D03*
%TD*%
D15*
%TO.P,K4,2,COM*%
%TO.N,Net-(J3-B+)*%
X151190000Y-57630000D03*
%TO.P,K4,4,N.O.*%
%TO.N,Net-(J3-B+RAD)*%
X146110000Y-57630000D03*
%TO.P,K4,5,COIL_1*%
%TO.N,Net-(D1-K)*%
X146110000Y-64370000D03*
%TO.P,K4,8,COIL_2*%
%TO.N,Net-(D4-A)*%
X153730000Y-64370000D03*
%TD*%
D10*
%TO.P,R10,1*%
%TO.N,Net-(J3-LED6)*%
X135500000Y-124000000D03*
D11*
%TO.P,R10,2*%
%TO.N,Net-(K6-N.O.)*%
X125340000Y-124000000D03*
%TD*%
D10*
%TO.P,R1,1*%
%TO.N,Net-(Q1-B)*%
X155000000Y-141500000D03*
D11*
%TO.P,R1,2*%
%TO.N,Net-(J6-D9)*%
X144840000Y-141500000D03*
%TD*%
D10*
%TO.P,R20,1*%
%TO.N,Net-(J1-GND)*%
X135500000Y-146500000D03*
D11*
%TO.P,R20,2*%
%TO.N,Net-(J6-D2)*%
X125340000Y-146500000D03*
%TD*%
D15*
%TO.P,K11,2,COM*%
%TO.N,Net-(J1-12V)*%
X112190000Y-102130000D03*
%TO.P,K11,4,N.O.*%
%TO.N,Net-(K11-N.O.)*%
X107110000Y-102130000D03*
%TO.P,K11,5,COIL_1*%
%TO.N,Net-(D1-K)*%
X107110000Y-108870000D03*
%TO.P,K11,8,COIL_2*%
%TO.N,Net-(D11-A)*%
X114730000Y-108870000D03*
%TD*%
D10*
%TO.P,R19,1*%
%TO.N,Net-(Q8-B)*%
X135580000Y-86500000D03*
D11*
%TO.P,R19,2*%
%TO.N,Net-(J6-D4)*%
X125420000Y-86500000D03*
%TD*%
D10*
%TO.P,R2,1*%
%TO.N,Net-(Q2-B)*%
X155000000Y-117500000D03*
D11*
%TO.P,R2,2*%
%TO.N,Net-(J6-D10)*%
X144840000Y-117500000D03*
%TD*%
D10*
%TO.P,R12,1*%
%TO.N,Net-(J3-LED4)*%
X135500000Y-69000000D03*
D11*
%TO.P,R12,2*%
%TO.N,Net-(K8-N.O.)*%
X125340000Y-69000000D03*
%TD*%
D15*
%TO.P,K5,2,COM*%
%TO.N,Net-(J3-B+)*%
X171275000Y-57630000D03*
%TO.P,K5,4,N.O.*%
%TO.N,Net-(J3-B+TAP)*%
X166195000Y-57630000D03*
%TO.P,K5,5,COIL_1*%
%TO.N,Net-(D1-K)*%
X166195000Y-64370000D03*
%TO.P,K5,8,COIL_2*%
%TO.N,Net-(D5-A)*%
X173815000Y-64370000D03*
%TD*%
%TO.P,K2,2,COM*%
%TO.N,Net-(J1-1.8V_TRIG)*%
X151190000Y-105630000D03*
%TO.P,K2,4,N.O.*%
%TO.N,Net-(J1-PP_BTN)*%
X146110000Y-105630000D03*
%TO.P,K2,5,COIL_1*%
%TO.N,Net-(D1-K)*%
X146110000Y-112370000D03*
%TO.P,K2,8,COIL_2*%
%TO.N,Net-(D2-A)*%
X153730000Y-112370000D03*
%TD*%
D12*
%TO.P,D1,1,K*%
%TO.N,Net-(D1-K)*%
X158920000Y-136580000D03*
D13*
%TO.P,D1,2,A*%
%TO.N,Net-(D1-A)*%
X158920000Y-126420000D03*
%TD*%
D10*
%TO.P,R14,1*%
%TO.N,Net-(Q5-B)*%
X175085000Y-69500000D03*
D11*
%TO.P,R14,2*%
%TO.N,Net-(J6-D12)*%
X164925000Y-69500000D03*
%TD*%
D10*
%TO.P,R24,1*%
%TO.N,Net-(J3-LED2)*%
X116000000Y-96500000D03*
D11*
%TO.P,R24,2*%
%TO.N,Net-(K11-N.O.)*%
X105840000Y-96500000D03*
%TD*%
D15*
%TO.P,K10,2,COM*%
%TO.N,Net-(J1-12V)*%
X112190000Y-129630000D03*
%TO.P,K10,4,N.O.*%
%TO.N,Net-(K10-N.O.)*%
X107110000Y-129630000D03*
%TO.P,K10,5,COIL_1*%
%TO.N,Net-(D1-K)*%
X107110000Y-136370000D03*
%TO.P,K10,8,COIL_2*%
%TO.N,Net-(D10-A)*%
X114730000Y-136370000D03*
%TD*%
D10*
%TO.P,R8,1*%
%TO.N,Net-(J1-REW_BTN)*%
X178340000Y-81000000D03*
D11*
%TO.P,R8,2*%
%TO.N,Net-(J8-REW)*%
X188500000Y-81000000D03*
%TD*%
D10*
%TO.P,R18,1*%
%TO.N,Net-(Q7-B)*%
X135500000Y-114000000D03*
D11*
%TO.P,R18,2*%
%TO.N,Net-(J6-D3)*%
X125340000Y-114000000D03*
%TD*%
D10*
%TO.P,R3,1*%
%TO.N,Net-(Q3-B)*%
X155000000Y-93500000D03*
D11*
%TO.P,R3,2*%
%TO.N,Net-(J6-D8)*%
X144840000Y-93500000D03*
%TD*%
D25*
%TO.P,J7,1,GND*%
%TO.N,Net-(J1-GND)*%
X186780000Y-47080000D03*
D26*
%TO.P,J7,2,3V/5V*%
%TO.N,Net-(D1-K)*%
X184240000Y-47080000D03*
%TO.P,J7,3,Vin*%
%TO.N,Net-(J1-12V)*%
X181700000Y-47080000D03*
%TO.P,J7,4,En*%
%TO.N,unconnected-(J7-En-Pad4)*%
X179160000Y-47080000D03*
%TD*%
D12*
%TO.P,D6,1,K*%
%TO.N,Net-(D1-K)*%
X139420000Y-136580000D03*
D13*
%TO.P,D6,2,A*%
%TO.N,Net-(D6-A)*%
X139420000Y-126420000D03*
%TD*%
D10*
%TO.P,R9,1*%
%TO.N,Net-(J1-FWD_BTN)*%
X164920000Y-81000000D03*
D11*
%TO.P,R9,2*%
%TO.N,Net-(J8-FWD)*%
X175080000Y-81000000D03*
%TD*%
D10*
%TO.P,R4,1*%
%TO.N,Net-(J1-GND)*%
X155000000Y-146500000D03*
D11*
%TO.P,R4,2*%
%TO.N,Net-(J6-D9)*%
X144840000Y-146500000D03*
%TD*%
D14*
%TO.P,Q11,1,C*%
%TO.N,Net-(D11-A)*%
X119835000Y-113800000D03*
%TO.P,Q11,2,B*%
%TO.N,Net-(Q11-B)*%
X119835000Y-116400000D03*
%TO.P,Q11,3,E*%
%TO.N,Net-(J1-GND)*%
X119835000Y-119000000D03*
%TD*%
D11*
%TO.P,J6,1,VIN*%
%TO.N,Net-(D1-K)*%
X184050000Y-117950000D03*
D27*
%TO.P,J6,2,GND*%
%TO.N,Net-(J1-GND)*%
X184050000Y-120490000D03*
D11*
%TO.P,J6,3,RST*%
%TO.N,unconnected-(J6-RST-Pad3)*%
X184050000Y-123030000D03*
%TO.P,J6,4,5V*%
%TO.N,unconnected-(J6-5V-Pad4)*%
X184050000Y-125570000D03*
%TO.P,J6,5,A7*%
%TO.N,Net-(J2-PP_BTN)*%
X184050000Y-128110000D03*
%TO.P,J6,6,A6*%
%TO.N,Net-(J3-BTN6)*%
X184050000Y-130650000D03*
%TO.P,J6,7,A5*%
%TO.N,Net-(J3-BTN5)*%
X184050000Y-133190000D03*
%TO.P,J6,8,A4*%
%TO.N,Net-(J3-BTN4)*%
X184050000Y-135730000D03*
%TO.P,J6,9,A3*%
%TO.N,Net-(J3-BTN3)*%
X184050000Y-138270000D03*
%TO.P,J6,10,A2*%
%TO.N,Net-(J3-BTN2)*%
X184050000Y-140810000D03*
%TO.P,J6,11,A1*%
%TO.N,Net-(J3-BTN1)*%
X184050000Y-143350000D03*
%TO.P,J6,12,A0*%
%TO.N,Net-(J6-A0)*%
X184050000Y-145890000D03*
%TO.P,J6,13,REF*%
%TO.N,unconnected-(J6-REF-Pad13)*%
X184050000Y-148430000D03*
%TO.P,J6,14,3.3V*%
%TO.N,unconnected-(J6-3.3V-Pad14)*%
X184050000Y-150970000D03*
%TO.P,J6,15,D13*%
%TO.N,Net-(J6-D13)*%
X184050000Y-153510000D03*
%TO.P,J6,16,TX1*%
%TO.N,Net-(J2-FWD_BTN)*%
X168810000Y-117950000D03*
%TO.P,J6,17,RX0*%
%TO.N,Net-(J2-REW_BTN)*%
X168810000Y-120490000D03*
%TO.P,J6,18,RST*%
%TO.N,unconnected-(J6-RST-Pad18)*%
X168810000Y-123030000D03*
D27*
%TO.P,J6,19,GND*%
%TO.N,Net-(J1-GND)*%
X168810000Y-125570000D03*
D11*
%TO.P,J6,20,D2*%
%TO.N,Net-(J6-D2)*%
X168810000Y-128110000D03*
%TO.P,J6,21,D3*%
%TO.N,Net-(J6-D3)*%
X168810000Y-130650000D03*
%TO.P,J6,22,D4*%
%TO.N,Net-(J6-D4)*%
X168810000Y-133190000D03*
%TO.P,J6,23,D5*%
%TO.N,Net-(J6-D5)*%
X168810000Y-135730000D03*
%TO.P,J6,24,D6*%
%TO.N,Net-(J6-D6)*%
X168810000Y-138270000D03*
%TO.P,J6,25,D7*%
%TO.N,Net-(J6-D7)*%
X168810000Y-140810000D03*
%TO.P,J6,26,D8*%
%TO.N,Net-(J6-D8)*%
X168810000Y-143350000D03*
%TO.P,J6,27,D9*%
%TO.N,Net-(J6-D9)*%
X168810000Y-145890000D03*
%TO.P,J6,28,D10*%
%TO.N,Net-(J6-D10)*%
X168810000Y-148430000D03*
%TO.P,J6,29,D11*%
%TO.N,Net-(J6-D11)*%
X168810000Y-150970000D03*
%TO.P,J6,30,D12*%
%TO.N,Net-(J6-D12)*%
X168810000Y-153510000D03*
%TD*%
D16*
%TO.P,J2,0,PAD*%
%TO.N,Net-(J1-GND)*%
X198415000Y-144495000D03*
D18*
%TO.P,J2,1,1.8V_TRIG*%
X196995000Y-126455000D03*
D19*
%TO.P,J2,2,FWD_BTN*%
%TO.N,Net-(J2-FWD_BTN)*%
X196995000Y-129227000D03*
%TO.P,J2,3,REW_BTN*%
%TO.N,Net-(J2-REW_BTN)*%
X196995000Y-132000000D03*
%TO.P,J2,4,PP_BTN*%
%TO.N,Net-(J2-PP_BTN)*%
X196995000Y-134772000D03*
%TO.P,J2,5,NC*%
%TO.N,Net-(J6-A0)*%
X196995000Y-137545000D03*
%TO.P,J2,6,NC*%
%TO.N,unconnected-(J2-NC-Pad6)*%
X199835000Y-127841000D03*
%TO.P,J2,7,5V*%
%TO.N,unconnected-(J2-5V-Pad7)*%
X199835000Y-130614000D03*
%TO.P,J2,8,12V*%
%TO.N,unconnected-(J2-12V-Pad8)*%
X199835000Y-133386000D03*
%TO.P,J2,9,GND*%
%TO.N,unconnected-(J2-GND-Pad9)*%
X199835000Y-136159000D03*
D16*
%TO.P,J2,MH1*%
%TO.N,N/C*%
X198415000Y-119505000D03*
%TD*%
D14*
%TO.P,Q4,1,C*%
%TO.N,Net-(D4-A)*%
X158835000Y-69300000D03*
%TO.P,Q4,2,B*%
%TO.N,Net-(Q4-B)*%
X158835000Y-71900000D03*
%TO.P,Q4,3,E*%
%TO.N,Net-(J1-GND)*%
X158835000Y-74500000D03*
%TD*%
D28*
%TO.P,J4,1,GND*%
%TO.N,Net-(J1-GND)*%
X88670000Y-125000000D03*
D29*
%TO.P,J4,2,R*%
%TO.N,Net-(J3-SPK_R)*%
X93420000Y-129000000D03*
D30*
%TO.P,J4,3,GND*%
%TO.N,Net-(J1-GND)*%
X88670000Y-139000000D03*
D29*
%TO.P,J4,4,L*%
%TO.N,Net-(J3-SPK_L)*%
X93420000Y-143000000D03*
%TD*%
D12*
%TO.P,D8,1,K*%
%TO.N,Net-(D1-K)*%
X139420000Y-81580000D03*
D13*
%TO.P,D8,2,A*%
%TO.N,Net-(D8-A)*%
X139420000Y-71420000D03*
%TD*%
D31*
%TO.N,Net-(J1-GND)*%
X150250000Y-146500000D03*
X148750000Y-146500000D03*
X145590000Y-145000000D03*
X144000000Y-145000000D03*
%TO.N,Net-(D1-K)*%
X186530331Y-115969669D03*
X184291892Y-48507446D03*
X184105331Y-114105331D03*
X186469669Y-119030331D03*
X182000000Y-114000000D03*
X185265331Y-49655331D03*
%TO.N,Net-(J1-REW_BTN)*%
X165721052Y-94320390D03*
X191099997Y-73750000D03*
X161500000Y-113330000D03*
X174041729Y-85791729D03*
X177570331Y-82429669D03*
X191099997Y-75500000D03*
X161500000Y-111830000D03*
X164667756Y-95388418D03*
%TO.N,Net-(J1-GND)*%
X168987169Y-48487169D03*
X163389669Y-94110331D03*
X161969669Y-127969669D03*
X182000000Y-117250000D03*
X171047831Y-48547831D03*
X182000000Y-115150000D03*
X162350000Y-132500000D03*
X164500000Y-93000000D03*
X162349052Y-140290286D03*
X160250000Y-145500000D03*
%TO.N,Net-(J1-PP_BTN)*%
X164026067Y-94746729D03*
X192000000Y-75500000D03*
X191000000Y-82250000D03*
X192000000Y-73750000D03*
X152000000Y-103000000D03*
X183209714Y-84349052D03*
X150440000Y-103000000D03*
X165136398Y-93636398D03*
X189000000Y-84350000D03*
X181000000Y-85000000D03*
%TO.N,Net-(J1-1.8V_TRIG)*%
X151000000Y-115250000D03*
X189299991Y-75500000D03*
X180000000Y-85750000D03*
X151000000Y-89750000D03*
X158170000Y-106000000D03*
X151000000Y-113750000D03*
X162250000Y-106000000D03*
X175000000Y-106000000D03*
X176670000Y-106019883D03*
X189299991Y-73750000D03*
X180000000Y-77650000D03*
X151000000Y-91250000D03*
%TO.N,Net-(J1-FWD_BTN)*%
X174250000Y-78500000D03*
X190199994Y-75500000D03*
X172750000Y-78500000D03*
X190199994Y-73750000D03*
%TO.N,Net-(J1-12V)*%
X112000000Y-110250000D03*
X186394186Y-49723524D03*
X119170000Y-129500000D03*
X120670000Y-129500000D03*
X143000000Y-62500000D03*
X180000000Y-48750000D03*
X110500000Y-101000000D03*
X119170000Y-74500000D03*
X120670000Y-102000000D03*
X178500000Y-50500000D03*
X119170000Y-102000000D03*
X143000000Y-60000000D03*
X120670000Y-74500000D03*
X112000000Y-111750000D03*
X183425613Y-48750000D03*
%TO.N,Net-(J2-FWD_BTN)*%
X189000000Y-119500000D03*
X189000000Y-121240000D03*
%TO.N,Net-(J2-REW_BTN)*%
X188000000Y-119740000D03*
X188000000Y-121240000D03*
%TO.N,Net-(J3-BTN6)*%
X179651655Y-153151655D03*
%TO.N,Net-(J3-SPK_R)*%
X86819669Y-92819669D03*
X86901753Y-94858909D03*
%TO.N,Net-(J3-SPK_L)*%
X87644669Y-91994669D03*
X87650865Y-94109797D03*
%TO.N,Net-(J3-BTN2)*%
X182030331Y-146530331D03*
%TO.N,Net-(J3-LED4)*%
X104969669Y-63969669D03*
X124500000Y-64129669D03*
X109553123Y-64053123D03*
X122469669Y-63969669D03*
%TO.N,Net-(J3-LED1)*%
X102650000Y-121500000D03*
X86000000Y-93500000D03*
X86250000Y-99000000D03*
X111440000Y-121500000D03*
X104750000Y-121500000D03*
X88400865Y-99000000D03*
X113000000Y-121500000D03*
X86130331Y-95630331D03*
%TO.N,Net-(J3-B+TAP)*%
X98750000Y-71500000D03*
X100850000Y-71500000D03*
X148530331Y-60030331D03*
X159080331Y-60080331D03*
X157000000Y-60000000D03*
X140500000Y-60000000D03*
%TO.N,Net-(J3-LED2)*%
X113000000Y-93500000D03*
%TO.N,Net-(J3-LED3)*%
X107860000Y-71000000D03*
X101000000Y-76000000D03*
X98750000Y-75889666D03*
X106360000Y-71000000D03*
%TO.N,Net-(J3-B+RAD)*%
X143750000Y-59000000D03*
X98750000Y-74500000D03*
X141339669Y-60660331D03*
X101000000Y-74500000D03*
%TO.N,Net-(J3-BTN4)*%
X180840993Y-149840993D03*
%TO.N,Net-(J3-BTN3)*%
X181310662Y-148310662D03*
%TO.N,Net-(J3-BTN5)*%
X180121324Y-151621324D03*
%TO.N,Net-(J3-B+)*%
X145150331Y-62349669D03*
X98750000Y-76789669D03*
X141879669Y-63379669D03*
X101000000Y-77000000D03*
%TO.N,Net-(J6-D4)*%
X149250000Y-123500000D03*
X163100000Y-133048741D03*
X140750000Y-90500000D03*
X142000000Y-115000000D03*
X142250000Y-90500000D03*
X153250000Y-123500000D03*
X144520331Y-115020331D03*
X158000000Y-130500000D03*
%TO.N,Net-(J6-D12)*%
X165304154Y-96024816D03*
X165000000Y-105250000D03*
X160929669Y-78070331D03*
X170500000Y-126320000D03*
X172930331Y-117430331D03*
X165000000Y-111830000D03*
X165000000Y-106750000D03*
X161000000Y-75000000D03*
X173000000Y-115150000D03*
X164606067Y-91833271D03*
X165000000Y-113330000D03*
X170500000Y-124820000D03*
%TO.N,Net-(J6-D5)*%
X165000000Y-137500000D03*
X160000000Y-152620003D03*
%TO.N,Net-(J6-D11)*%
X149500000Y-132250000D03*
X149500000Y-137500000D03*
X150099997Y-89750000D03*
X150000000Y-102000000D03*
X150000000Y-91250000D03*
X149500000Y-147250000D03*
X149500000Y-130500000D03*
X150000000Y-113750000D03*
X150000000Y-115250000D03*
X149500000Y-150750000D03*
X150030331Y-104030331D03*
X149500000Y-139500000D03*
%TO.N,Net-(J6-D10)*%
X148750000Y-144000000D03*
X144500000Y-136000000D03*
X144650331Y-133849669D03*
X161053123Y-150053123D03*
X157000000Y-145500000D03*
X150250000Y-144000000D03*
%TO.N,Net-(J6-D3)*%
X124000000Y-135830000D03*
X124000000Y-137330000D03*
X124000000Y-132160000D03*
X124000000Y-130660000D03*
%TO.N,Net-(J6-D8)*%
X164500000Y-141560000D03*
X159281500Y-139000000D03*
X142750000Y-126000000D03*
X145590000Y-126000000D03*
X149250000Y-126000000D03*
X153250000Y-126000000D03*
X155000000Y-134000000D03*
X155080331Y-136080331D03*
%TO.N,Net-(J6-D6)*%
X160000000Y-151720000D03*
X163500000Y-140000000D03*
%TO.N,Net-(J6-D13)*%
X156500000Y-46250000D03*
X158000000Y-44750000D03*
%TO.N,Net-(J6-D9)*%
X147500000Y-150000000D03*
X147500000Y-147250000D03*
%TO.N,Net-(J8-SPK_L)*%
X177500000Y-99500000D03*
X182000000Y-99500000D03*
%TO.N,Net-(J1-GND)*%
X123099997Y-130660000D03*
X122000000Y-109830000D03*
X123099997Y-137330000D03*
X122000000Y-102000000D03*
X123000000Y-145000000D03*
X123099997Y-132160000D03*
X124750000Y-121000000D03*
X126090000Y-145000000D03*
X122000000Y-104500000D03*
X123099997Y-135830000D03*
X122000000Y-108330000D03*
X123250000Y-121000000D03*
%TD*%
D32*
%TO.N,Net-(D1-K)*%
X140680000Y-136580000D02*
X143500000Y-133760000D01*
X139420000Y-136580000D02*
X140680000Y-136580000D01*
%TO.N,Net-(J1-GND)*%
X150250000Y-146500000D02*
X155000000Y-146500000D01*
X148900000Y-146350000D02*
X148750000Y-146500000D01*
X148900000Y-145900000D02*
X148900000Y-146350000D01*
X148000000Y-145000000D02*
X148900000Y-145900000D01*
X142500000Y-146500000D02*
X144000000Y-145000000D01*
X139335000Y-146500000D02*
X142500000Y-146500000D01*
X145590000Y-145000000D02*
X148000000Y-145000000D01*
%TO.N,Net-(D1-K)*%
X139840000Y-58100000D02*
X146110000Y-64370000D01*
X117970000Y-49000000D02*
X137340000Y-49000000D01*
X143000000Y-67480000D02*
X146110000Y-64370000D01*
X184105331Y-114105331D02*
X184665993Y-114105331D01*
X185265331Y-49655331D02*
X186360000Y-50750000D01*
X143500000Y-133760000D02*
X146110000Y-136370000D01*
X148240000Y-114500000D02*
X146110000Y-112370000D01*
X186469669Y-119030331D02*
X185130331Y-119030331D01*
X146110000Y-112370000D02*
X143500000Y-114980000D01*
X185265331Y-49655331D02*
X170550662Y-64370000D01*
X188750000Y-50750000D02*
X190100000Y-52100000D01*
X158920000Y-136580000D02*
X160031500Y-137691500D01*
X178920000Y-74580000D02*
X177520000Y-74580000D01*
X148240000Y-138500000D02*
X146110000Y-136370000D01*
X158280028Y-118496500D02*
X154283528Y-114500000D01*
X159330607Y-118496500D02*
X158280028Y-118496500D01*
X148240000Y-66500000D02*
X146110000Y-64370000D01*
X186360000Y-50750000D02*
X188750000Y-50750000D01*
X158339393Y-142496500D02*
X154342893Y-138500000D01*
X160031500Y-137691500D02*
X160031500Y-141795607D01*
X172420000Y-112580000D02*
X158920000Y-112580000D01*
X158280028Y-94496500D02*
X154283528Y-90500000D01*
X160031500Y-65691500D02*
X160031500Y-69795607D01*
X158920000Y-112580000D02*
X160031500Y-113691500D01*
X201800000Y-57154000D02*
X199840000Y-59114000D01*
X158920000Y-64580000D02*
X160031500Y-65691500D01*
X199902944Y-52100000D02*
X201800000Y-53997056D01*
X158920000Y-88580000D02*
X160031500Y-89691500D01*
X159330607Y-142496500D02*
X158339393Y-142496500D01*
X160031500Y-141795607D02*
X159330607Y-142496500D01*
X143500000Y-114980000D02*
X143500000Y-133760000D01*
X184240000Y-48455554D02*
X184291892Y-48507446D01*
X108220000Y-58750000D02*
X117970000Y-49000000D01*
X190100000Y-52100000D02*
X199902944Y-52100000D01*
X175920000Y-109500000D02*
X175920000Y-105580000D01*
X158920000Y-64580000D02*
X165985000Y-64580000D01*
X167310000Y-64370000D02*
X166195000Y-64370000D01*
X154283528Y-114500000D02*
X148240000Y-114500000D01*
X158283528Y-70500000D02*
X154283528Y-66500000D01*
X159330607Y-94496500D02*
X158280028Y-94496500D01*
X175500000Y-109500000D02*
X172420000Y-112580000D01*
X175920000Y-109500000D02*
X180420000Y-114000000D01*
X177520000Y-74580000D02*
X167310000Y-64370000D01*
X154283528Y-90500000D02*
X148240000Y-90500000D01*
X170550662Y-64370000D02*
X166195000Y-64370000D01*
X154342893Y-138500000D02*
X148240000Y-138500000D01*
X184240000Y-47080000D02*
X184240000Y-48455554D01*
X137340000Y-49000000D02*
X139840000Y-51500000D01*
X180420000Y-114000000D02*
X182000000Y-114000000D01*
X160031500Y-69795607D02*
X159327107Y-70500000D01*
X159327107Y-70500000D02*
X158283528Y-70500000D01*
X146110000Y-88110000D02*
X143000000Y-85000000D01*
X184665993Y-114105331D02*
X186530331Y-115969669D01*
X139840000Y-51500000D02*
X139840000Y-58100000D01*
X160031500Y-93795607D02*
X159330607Y-94496500D01*
X160031500Y-113691500D02*
X160031500Y-117795607D01*
X175920000Y-105580000D02*
X158920000Y-88580000D01*
X148240000Y-90500000D02*
X146110000Y-88370000D01*
X185130331Y-119030331D02*
X184050000Y-117950000D01*
X201800000Y-53997056D02*
X201800000Y-57154000D01*
X154283528Y-66500000D02*
X148240000Y-66500000D01*
X160031500Y-89691500D02*
X160031500Y-93795607D01*
X143000000Y-85000000D02*
X143000000Y-67480000D01*
X160031500Y-117795607D02*
X159330607Y-118496500D01*
%TO.N,Net-(D1-A)*%
X158835000Y-141300000D02*
X153905000Y-136370000D01*
X158920000Y-126420000D02*
X158920000Y-131180000D01*
X158920000Y-131180000D02*
X153730000Y-136370000D01*
%TO.N,Net-(D2-A)*%
X158920000Y-107180000D02*
X153730000Y-112370000D01*
X158920000Y-102420000D02*
X158920000Y-107180000D01*
X153905000Y-112370000D02*
X158835000Y-117300000D01*
%TO.N,Net-(D3-A)*%
X158920000Y-78420000D02*
X158920000Y-83180000D01*
X153905000Y-88370000D02*
X158835000Y-93300000D01*
X158920000Y-83180000D02*
X153730000Y-88370000D01*
%TO.N,Net-(D4-A)*%
X153905000Y-64370000D02*
X158835000Y-69300000D01*
X158920000Y-54420000D02*
X158920000Y-59180000D01*
X158920000Y-59180000D02*
X153730000Y-64370000D01*
%TO.N,Net-(D5-A)*%
X173815000Y-64370000D02*
X178870000Y-64370000D01*
X178920000Y-64420000D02*
X183800000Y-69300000D01*
%TO.N,Net-(D1-K)*%
X140970000Y-135030000D02*
X140970000Y-114734107D01*
X134783528Y-111000000D02*
X128740000Y-111000000D01*
X121031500Y-82691500D02*
X121031500Y-86795607D01*
X138839393Y-142496500D02*
X134842893Y-138500000D01*
X128740000Y-138500000D02*
X126610000Y-136370000D01*
X119339393Y-142496500D02*
X115342893Y-138500000D01*
X138783528Y-87500000D02*
X134783528Y-83500000D01*
X140970000Y-114734107D02*
X140531500Y-114295607D01*
X109240000Y-83500000D02*
X107110000Y-81370000D01*
X119920000Y-109080000D02*
X121031500Y-110191500D01*
X128740000Y-111000000D02*
X126610000Y-108870000D01*
X139830607Y-114996500D02*
X138780028Y-114996500D01*
X141500000Y-107000000D02*
X141500000Y-83660000D01*
X139420000Y-81580000D02*
X140531500Y-82691500D01*
X119920000Y-109080000D02*
X126400000Y-109080000D01*
X120330607Y-142496500D02*
X119339393Y-142496500D01*
X120330607Y-87496500D02*
X119280028Y-87496500D01*
X115283528Y-111000000D02*
X109240000Y-111000000D01*
X119920000Y-81580000D02*
X126400000Y-81580000D01*
X134783528Y-83500000D02*
X128740000Y-83500000D01*
X140531500Y-114295607D02*
X139830607Y-114996500D01*
X115283528Y-83500000D02*
X109240000Y-83500000D01*
X109240000Y-111000000D02*
X107110000Y-108870000D01*
X121031500Y-141795607D02*
X120330607Y-142496500D01*
X140531500Y-137691500D02*
X140531500Y-141795607D01*
X139420000Y-109080000D02*
X140531500Y-110191500D01*
X120500000Y-115000000D02*
X119283528Y-115000000D01*
X141500000Y-83660000D02*
X139420000Y-81580000D01*
X121031500Y-110191500D02*
X121031500Y-114468500D01*
X138780028Y-114996500D02*
X134783528Y-111000000D01*
X139420000Y-136580000D02*
X140970000Y-135030000D01*
X119920000Y-136580000D02*
X126400000Y-136580000D01*
X109240000Y-138500000D02*
X107110000Y-136370000D01*
X139830607Y-142496500D02*
X138839393Y-142496500D01*
X115342893Y-138500000D02*
X109240000Y-138500000D01*
X128740000Y-83500000D02*
X126610000Y-81370000D01*
X140531500Y-141795607D02*
X139830607Y-142496500D01*
X134842893Y-138500000D02*
X128740000Y-138500000D01*
X119920000Y-136580000D02*
X121031500Y-137691500D01*
X140531500Y-110191500D02*
X140531500Y-114295607D01*
X119283528Y-115000000D02*
X115283528Y-111000000D01*
X139420000Y-136580000D02*
X140531500Y-137691500D01*
X140531500Y-82691500D02*
X140531500Y-86968500D01*
X121031500Y-86795607D02*
X120330607Y-87496500D01*
X121031500Y-114468500D02*
X120500000Y-115000000D01*
X139420000Y-109080000D02*
X141500000Y-107000000D01*
X140531500Y-86968500D02*
X140000000Y-87500000D01*
X121031500Y-137691500D02*
X121031500Y-141795607D01*
X119280028Y-87496500D02*
X115283528Y-83500000D01*
X119920000Y-81580000D02*
X121031500Y-82691500D01*
X140000000Y-87500000D02*
X138783528Y-87500000D01*
%TO.N,Net-(D6-A)*%
X139420000Y-131180000D02*
X134230000Y-136370000D01*
X134405000Y-136370000D02*
X139335000Y-141300000D01*
X139420000Y-126420000D02*
X139420000Y-131180000D01*
%TO.N,Net-(D7-A)*%
X134405000Y-108870000D02*
X139335000Y-113800000D01*
X139420000Y-98920000D02*
X139420000Y-103680000D01*
X139420000Y-103680000D02*
X134230000Y-108870000D01*
%TO.N,Net-(D8-A)*%
X134405000Y-81370000D02*
X139335000Y-86300000D01*
X139420000Y-76180000D02*
X134230000Y-81370000D01*
X139420000Y-71420000D02*
X139420000Y-76180000D01*
%TO.N,Net-(D9-A)*%
X146900000Y-48400000D02*
X150000000Y-51500000D01*
X150000000Y-51500000D02*
X167035000Y-51500000D01*
X111070000Y-48400000D02*
X146900000Y-48400000D01*
X108220000Y-51250000D02*
X111070000Y-48400000D01*
X167035000Y-51500000D02*
X171620000Y-46915000D01*
%TO.N,Net-(D10-A)*%
X119920000Y-131180000D02*
X114730000Y-136370000D01*
X119920000Y-126420000D02*
X119920000Y-131180000D01*
X119835000Y-141300000D02*
X114905000Y-136370000D01*
%TO.N,Net-(D11-A)*%
X114905000Y-108870000D02*
X119835000Y-113800000D01*
X119920000Y-98920000D02*
X119920000Y-103680000D01*
X119920000Y-103680000D02*
X114730000Y-108870000D01*
%TO.N,Net-(D12-A)*%
X119920000Y-76180000D02*
X114730000Y-81370000D01*
X119920000Y-71420000D02*
X119920000Y-76180000D01*
X114905000Y-81370000D02*
X119835000Y-86300000D01*
%TO.N,Net-(J1-REW_BTN)*%
X164667756Y-95388418D02*
X161500000Y-98556174D01*
X178340000Y-81660000D02*
X177570331Y-82429669D01*
X180340000Y-79000000D02*
X189500000Y-79000000D01*
X161500000Y-98556174D02*
X161500000Y-111830000D01*
X178340000Y-81000000D02*
X180340000Y-79000000D01*
X151950000Y-131500000D02*
X147980000Y-131500000D01*
X152500000Y-130950000D02*
X151950000Y-131500000D01*
X189500000Y-79000000D02*
X191099997Y-77400003D01*
X154403500Y-121096500D02*
X152500000Y-123000000D01*
X191099997Y-66400003D02*
X197000000Y-60500000D01*
X174041729Y-85999713D02*
X165721052Y-94320390D01*
X152500000Y-123000000D02*
X152500000Y-130950000D01*
X191099997Y-73750000D02*
X191099997Y-66400003D01*
X147980000Y-131500000D02*
X146110000Y-129630000D01*
X174041729Y-85791729D02*
X174041729Y-85999713D01*
X191099997Y-77400003D02*
X191099997Y-75500000D01*
X178340000Y-81000000D02*
X178340000Y-81660000D01*
X161500000Y-113330000D02*
X161500000Y-118927107D01*
X161500000Y-118927107D02*
X159330607Y-121096500D01*
X159330607Y-121096500D02*
X154403500Y-121096500D01*
%TO.N,Net-(J1-GND)*%
X161969669Y-127969669D02*
X161969669Y-125634669D01*
X158835000Y-122500000D02*
X161905000Y-125570000D01*
X182000000Y-118440000D02*
X182000000Y-117250000D01*
X161969669Y-125634669D02*
X161905000Y-125570000D01*
X163000000Y-47000000D02*
X166335000Y-47000000D01*
X173500000Y-76000000D02*
X173750000Y-75750000D01*
X155000000Y-98500000D02*
X158835000Y-98500000D01*
X196995000Y-126455000D02*
X198045000Y-126455000D01*
X173300000Y-84200000D02*
X176500000Y-84200000D01*
X158835000Y-98500000D02*
X163224669Y-94110331D01*
X183920000Y-88500000D02*
X183920000Y-86120000D01*
X178970000Y-125570000D02*
X184050000Y-120490000D01*
X168810000Y-125570000D02*
X178970000Y-125570000D01*
X85170000Y-58270000D02*
X95260000Y-48180000D01*
X200355000Y-50855000D02*
X203000000Y-53500000D01*
X191030000Y-120490000D02*
X196995000Y-126455000D01*
X171047831Y-48547831D02*
X172000000Y-49500000D01*
X85170000Y-112050000D02*
X85170000Y-95530000D01*
X186780000Y-47080000D02*
X190555000Y-50855000D01*
X166420000Y-46915000D02*
X167992169Y-48487169D01*
X183920000Y-86120000D02*
X182000000Y-84200000D01*
X183835000Y-74500000D02*
X182205000Y-76130000D01*
X184360000Y-49500000D02*
X186780000Y-47080000D01*
X88670000Y-125000000D02*
X86495000Y-125000000D01*
X85170000Y-95530000D02*
X93840000Y-86860000D01*
X198045000Y-126455000D02*
X198415000Y-126825000D01*
X203000000Y-53500000D02*
X203000000Y-61499000D01*
X160085000Y-75750000D02*
X158835000Y-74500000D01*
X183920000Y-107500000D02*
X185920000Y-109500000D01*
X159250000Y-146500000D02*
X160250000Y-145500000D01*
X155000000Y-146500000D02*
X158835000Y-146500000D01*
X175000000Y-74500000D02*
X173750000Y-75750000D01*
X162350000Y-140150000D02*
X162350000Y-132500000D01*
X184050000Y-120490000D02*
X182000000Y-118440000D01*
X163224669Y-94110331D02*
X163389669Y-94110331D01*
X192500000Y-89920000D02*
X193920000Y-88500000D01*
X164500000Y-93000000D02*
X173300000Y-84200000D01*
X176500000Y-84200000D02*
X176200000Y-84200000D01*
X199840000Y-64659000D02*
X199840000Y-71575000D01*
X167992169Y-48487169D02*
X168987169Y-48487169D01*
X155000000Y-122500000D02*
X158835000Y-122500000D01*
X93840000Y-86860000D02*
X95220000Y-88240000D01*
X88670000Y-139000000D02*
X88670000Y-125000000D01*
X192500000Y-90000000D02*
X192500000Y-89920000D01*
X85170000Y-95530000D02*
X85170000Y-58270000D01*
X185920000Y-111230000D02*
X185920000Y-109500000D01*
X182205000Y-76130000D02*
X176715000Y-76130000D01*
X182000000Y-115150000D02*
X185920000Y-111230000D01*
X172000000Y-49500000D02*
X184360000Y-49500000D01*
X173750000Y-75750000D02*
X160085000Y-75750000D01*
X162349052Y-140150948D02*
X162350000Y-140150000D01*
X85320000Y-123825000D02*
X85320000Y-112200000D01*
X86495000Y-125000000D02*
X85320000Y-123825000D01*
X198415000Y-126825000D02*
X198415000Y-144495000D01*
X183835000Y-74500000D02*
X196915000Y-74500000D01*
X155000000Y-74500000D02*
X158835000Y-74500000D01*
X190555000Y-50855000D02*
X200355000Y-50855000D01*
X173500000Y-81500000D02*
X173500000Y-76000000D01*
X185000000Y-90000000D02*
X192500000Y-90000000D01*
X162349052Y-140290286D02*
X162349052Y-140150948D01*
X176715000Y-76130000D02*
X175085000Y-74500000D01*
X182000000Y-84200000D02*
X176500000Y-84200000D01*
X176200000Y-84200000D02*
X173500000Y-81500000D01*
X203000000Y-61499000D02*
X199840000Y-64659000D01*
X184050000Y-120490000D02*
X191030000Y-120490000D01*
X183920000Y-88500000D02*
X183920000Y-107500000D01*
X161905000Y-125570000D02*
X168810000Y-125570000D01*
X95220000Y-88240000D02*
X96680000Y-88240000D01*
X183920000Y-88920000D02*
X185000000Y-90000000D01*
%TO.N,Net-(J1-PP_BTN)*%
X191920000Y-75580000D02*
X192000000Y-75500000D01*
X192000000Y-73750000D02*
X192000000Y-68272000D01*
X150440000Y-103000000D02*
X150000000Y-103000000D01*
X164026067Y-94746729D02*
X164026067Y-95001040D01*
X191920000Y-81000000D02*
X191920000Y-75580000D01*
X188999052Y-84349052D02*
X183209714Y-84349052D01*
X181000000Y-85000000D02*
X173772796Y-85000000D01*
X173772796Y-85000000D02*
X165136398Y-93636398D01*
X192000000Y-68272000D02*
X197000000Y-63272000D01*
X164026067Y-95001040D02*
X156027107Y-103000000D01*
X191920000Y-81330000D02*
X191000000Y-82250000D01*
X156027107Y-103000000D02*
X152000000Y-103000000D01*
X189000000Y-84350000D02*
X188999052Y-84349052D01*
X150000000Y-103000000D02*
X147370000Y-105630000D01*
X147370000Y-105630000D02*
X146110000Y-105630000D01*
%TO.N,Net-(J1-1.8V_TRIG)*%
X151000000Y-115500000D02*
X151190000Y-115690000D01*
X175750000Y-85750000D02*
X174000000Y-87500000D01*
X189299991Y-62655009D02*
X189299991Y-73750000D01*
X151190000Y-115690000D02*
X151190000Y-129630000D01*
X158170000Y-106000000D02*
X157800000Y-105630000D01*
X175000000Y-106000000D02*
X162250000Y-106000000D01*
X187350000Y-77650000D02*
X180000000Y-77650000D01*
X177500000Y-103000000D02*
X177500000Y-103080000D01*
X151000000Y-91250000D02*
X151000000Y-92000000D01*
X151190000Y-105630000D02*
X151190000Y-113560000D01*
X189299991Y-75500000D02*
X189299991Y-75700009D01*
X151190000Y-89560000D02*
X151000000Y-89750000D01*
X197000000Y-54955000D02*
X189299991Y-62655009D01*
X151000000Y-115250000D02*
X151000000Y-115500000D01*
X151190000Y-113560000D02*
X151000000Y-113750000D01*
X151190000Y-81630000D02*
X151190000Y-89560000D01*
X157800000Y-105630000D02*
X151190000Y-105630000D01*
X189299991Y-75700009D02*
X187350000Y-77650000D01*
X183920000Y-109500000D02*
X180439883Y-106019883D01*
X180439883Y-106019883D02*
X176670000Y-106019883D01*
X180000000Y-85750000D02*
X175750000Y-85750000D01*
X174000000Y-99500000D02*
X177500000Y-103000000D01*
X174000000Y-87500000D02*
X174000000Y-99500000D01*
X177500000Y-103080000D02*
X180439883Y-106019883D01*
X151190000Y-92190000D02*
X151190000Y-105630000D01*
X151000000Y-92000000D02*
X151190000Y-92190000D01*
%TO.N,Net-(J1-FWD_BTN)*%
X190199994Y-64527006D02*
X197000000Y-57727000D01*
X190199994Y-77300006D02*
X190199994Y-75500000D01*
X175500000Y-78500000D02*
X175600000Y-78400000D01*
X174250000Y-78500000D02*
X175500000Y-78500000D01*
X175600000Y-78400000D02*
X189100000Y-78400000D01*
X164920000Y-81000000D02*
X167420000Y-78500000D01*
X167420000Y-78500000D02*
X172750000Y-78500000D01*
X160790000Y-76870000D02*
X150870000Y-76870000D01*
X164920000Y-81000000D02*
X160790000Y-76870000D01*
X150870000Y-76870000D02*
X146110000Y-81630000D01*
X189100000Y-78400000D02*
X190199994Y-77300006D01*
X190199994Y-73750000D02*
X190199994Y-64527006D01*
%TO.N,Net-(J1-12V)*%
X119040000Y-102130000D02*
X112190000Y-102130000D01*
X122580000Y-76410000D02*
X120670000Y-74500000D01*
X111060000Y-101000000D02*
X112190000Y-102130000D01*
X131690000Y-129630000D02*
X129910000Y-131410000D01*
X108820000Y-78000000D02*
X112190000Y-74630000D01*
X112000000Y-111750000D02*
X112190000Y-111940000D01*
X131690000Y-74630000D02*
X129910000Y-76410000D01*
X186394186Y-49723524D02*
X188572052Y-49723524D01*
X119170000Y-102000000D02*
X119040000Y-102130000D01*
X119170000Y-129500000D02*
X119040000Y-129630000D01*
X190348528Y-51500000D02*
X200151472Y-51500000D01*
X129910000Y-76410000D02*
X122580000Y-76410000D01*
X152000000Y-53500000D02*
X153230000Y-52270000D01*
X129910000Y-131410000D02*
X122580000Y-131410000D01*
X119040000Y-129630000D02*
X112190000Y-129630000D01*
X180030000Y-48750000D02*
X181700000Y-47080000D01*
X143000000Y-63320000D02*
X143000000Y-62500000D01*
X112190000Y-110060000D02*
X112000000Y-110250000D01*
X147610000Y-53500000D02*
X152000000Y-53500000D01*
X153230000Y-52270000D02*
X176730000Y-52270000D01*
X112190000Y-111940000D02*
X112190000Y-129630000D01*
X96680000Y-85480000D02*
X104160000Y-78000000D01*
X202400000Y-53748528D02*
X202400000Y-59326000D01*
X181755613Y-47080000D02*
X183425613Y-48750000D01*
X202400000Y-59326000D02*
X199840000Y-61886000D01*
X119170000Y-74500000D02*
X112320000Y-74500000D01*
X110500000Y-101000000D02*
X111060000Y-101000000D01*
X129910000Y-103910000D02*
X122580000Y-103910000D01*
X143000000Y-58110000D02*
X147610000Y-53500000D01*
X112190000Y-102130000D02*
X112190000Y-110060000D01*
X104160000Y-78000000D02*
X108820000Y-78000000D01*
X131690000Y-102130000D02*
X129910000Y-103910000D01*
X180000000Y-48750000D02*
X180030000Y-48750000D01*
X200151472Y-51500000D02*
X202400000Y-53748528D01*
X176730000Y-52270000D02*
X178500000Y-50500000D01*
X188572052Y-49723524D02*
X190348528Y-51500000D01*
X122580000Y-103910000D02*
X120670000Y-102000000D01*
X131690000Y-74630000D02*
X143000000Y-63320000D01*
X143000000Y-60000000D02*
X143000000Y-58110000D01*
X122580000Y-131410000D02*
X120670000Y-129500000D01*
%TO.N,Net-(J6-A0)*%
X188650000Y-145890000D02*
X196995000Y-137545000D01*
X184050000Y-145890000D02*
X188650000Y-145890000D01*
%TO.N,Net-(J2-FWD_BTN)*%
X170860000Y-115900000D02*
X185400000Y-115900000D01*
X185400000Y-115900000D02*
X189000000Y-119500000D01*
X168810000Y-117950000D02*
X170860000Y-115900000D01*
X189008000Y-121240000D02*
X196995000Y-129227000D01*
X189000000Y-121240000D02*
X189008000Y-121240000D01*
%TO.N,Net-(J2-REW_BTN)*%
X188000000Y-119500000D02*
X188000000Y-119740000D01*
X172800000Y-116500000D02*
X185000000Y-116500000D01*
X168810000Y-120490000D02*
X172800000Y-116500000D01*
X188000000Y-123005000D02*
X196995000Y-132000000D01*
X188000000Y-121240000D02*
X188000000Y-123005000D01*
X185000000Y-116500000D02*
X188000000Y-119500000D01*
%TO.N,Net-(J2-PP_BTN)*%
X190333000Y-128110000D02*
X196995000Y-134772000D01*
X184050000Y-128110000D02*
X190333000Y-128110000D01*
%TO.N,Net-(J3-BTN6)*%
X179651655Y-153151655D02*
X179360662Y-152860662D01*
X179360662Y-135339338D02*
X184050000Y-130650000D01*
X179360662Y-152860662D02*
X179360662Y-135339338D01*
%TO.N,Net-(J3-SPK_R)*%
X87000000Y-94957156D02*
X87000000Y-104480000D01*
X89000000Y-106480000D02*
X89000000Y-113500000D01*
X86819669Y-86663274D02*
X86819669Y-92819669D01*
X133220000Y-51250000D02*
X131795000Y-52675000D01*
X89000000Y-113500000D02*
X93420000Y-117920000D01*
X99500000Y-77140000D02*
X96680000Y-79960000D01*
X86819669Y-86663274D02*
X93522943Y-79960000D01*
X99500000Y-70500000D02*
X99500000Y-77140000D01*
X117325000Y-52675000D02*
X99500000Y-70500000D01*
X131795000Y-52675000D02*
X117325000Y-52675000D01*
X87320000Y-104800000D02*
X89000000Y-106480000D01*
X93420000Y-117920000D02*
X93420000Y-129000000D01*
X93522943Y-79960000D02*
X96680000Y-79960000D01*
X86901753Y-94858909D02*
X87000000Y-94957156D01*
%TO.N,Net-(J3-SPK_L)*%
X131775000Y-53275000D02*
X117573528Y-53275000D01*
X133220000Y-54720000D02*
X131775000Y-53275000D01*
X93280000Y-82720000D02*
X96680000Y-82720000D01*
X94770000Y-112350000D02*
X94770000Y-141650000D01*
X94770000Y-141650000D02*
X93420000Y-143000000D01*
X87650865Y-94109797D02*
X87650865Y-100150865D01*
X100100000Y-79300000D02*
X96680000Y-82720000D01*
X87644669Y-88355331D02*
X87644669Y-91994669D01*
X117573528Y-53275000D02*
X100100000Y-70748528D01*
X133220000Y-58750000D02*
X133220000Y-54720000D01*
X95500000Y-108000000D02*
X95500000Y-111520000D01*
X87650865Y-100150865D02*
X95500000Y-108000000D01*
X87644669Y-88355331D02*
X93280000Y-82720000D01*
X100100000Y-70748528D02*
X100100000Y-79300000D01*
%TO.N,Net-(J3-BTN2)*%
X182030331Y-146530331D02*
X182030331Y-142829669D01*
X182030331Y-142829669D02*
X184050000Y-140810000D01*
%TO.N,Net-(J3-LED4)*%
X124629669Y-64000000D02*
X130500000Y-64000000D01*
X94640000Y-71860000D02*
X93140000Y-71860000D01*
X93140000Y-71860000D02*
X91000000Y-74000000D01*
X104969669Y-63969669D02*
X98459338Y-70480000D01*
X91000000Y-75740000D02*
X93840000Y-78580000D01*
X122469669Y-63969669D02*
X122439338Y-64000000D01*
X124629669Y-64000000D02*
X124500000Y-64129669D01*
X135500000Y-69000000D02*
X130500000Y-64000000D01*
X122439338Y-64000000D02*
X109606246Y-64000000D01*
X98459338Y-70480000D02*
X96020000Y-70480000D01*
X109606246Y-64000000D02*
X109553123Y-64053123D01*
X91000000Y-74000000D02*
X91000000Y-75740000D01*
X96020000Y-70480000D02*
X94640000Y-71860000D01*
%TO.N,Net-(J3-LED1)*%
X104750000Y-121500000D02*
X111440000Y-121500000D01*
X86130331Y-98880331D02*
X86250000Y-99000000D01*
X113500000Y-121500000D02*
X113000000Y-121500000D01*
X88400865Y-99840204D02*
X102650000Y-114089339D01*
X88400865Y-99000000D02*
X88400865Y-99840204D01*
X86000000Y-78140000D02*
X93840000Y-70300000D01*
X86000000Y-78140000D02*
X86000000Y-93500000D01*
X86130331Y-95630331D02*
X86130331Y-98880331D01*
X102650000Y-114089339D02*
X102650000Y-121500000D01*
X116000000Y-124000000D02*
X113500000Y-121500000D01*
%TO.N,Net-(J3-B+TAP)*%
X138500000Y-62000000D02*
X140500000Y-60000000D01*
X98570000Y-71680000D02*
X98750000Y-71500000D01*
X148530331Y-60030331D02*
X156969669Y-60030331D01*
X96680000Y-71680000D02*
X98570000Y-71680000D01*
X159080331Y-60080331D02*
X161530662Y-57630000D01*
X109697056Y-62000000D02*
X138500000Y-62000000D01*
X161530662Y-57630000D02*
X166195000Y-57630000D01*
X100850000Y-71500000D02*
X100850000Y-70847056D01*
X156969669Y-60030331D02*
X157000000Y-60000000D01*
X100850000Y-70847056D02*
X109697056Y-62000000D01*
%TO.N,Net-(J3-LED2)*%
X113000000Y-93500000D02*
X116000000Y-96500000D01*
%TO.N,Net-(J3-LED3)*%
X109860000Y-69000000D02*
X116000000Y-69000000D01*
X93840000Y-75820000D02*
X98680334Y-75820000D01*
X101360000Y-76000000D02*
X106360000Y-71000000D01*
X98680334Y-75820000D02*
X98750000Y-75889666D01*
X107860000Y-71000000D02*
X109860000Y-69000000D01*
X101000000Y-76000000D02*
X101360000Y-76000000D01*
%TO.N,Net-(J3-B+RAD)*%
X109765915Y-62779669D02*
X139220331Y-62779669D01*
X144740000Y-59000000D02*
X146110000Y-57630000D01*
X101600000Y-73900000D02*
X101600000Y-70945584D01*
X139220331Y-62779669D02*
X141339669Y-60660331D01*
X101000000Y-74500000D02*
X101600000Y-73900000D01*
X98690000Y-74440000D02*
X98750000Y-74500000D01*
X96680000Y-74440000D02*
X98690000Y-74440000D01*
X143750000Y-59000000D02*
X144740000Y-59000000D01*
X101600000Y-70945584D02*
X109765915Y-62779669D01*
%TO.N,Net-(J3-BTN4)*%
X180840993Y-149840993D02*
X180560662Y-149560662D01*
X180560662Y-149560662D02*
X180560662Y-139219338D01*
X180560662Y-139219338D02*
X184050000Y-135730000D01*
%TO.N,Net-(J3-BTN3)*%
X181310662Y-148310662D02*
X181280331Y-148280331D01*
X181280331Y-141039669D02*
X184050000Y-138270000D01*
X181280331Y-148280331D02*
X181280331Y-141039669D01*
%TO.N,Net-(J3-BTN5)*%
X180121324Y-151621324D02*
X179960662Y-151460662D01*
X179960662Y-137279338D02*
X184050000Y-133190000D01*
X179960662Y-151460662D02*
X179960662Y-137279338D01*
%TO.N,Net-(J3-B+)*%
X108000000Y-77000000D02*
X108500000Y-76500000D01*
X108500000Y-76500000D02*
X108500000Y-75000000D01*
X145150331Y-62349669D02*
X149870000Y-57630000D01*
X98339669Y-77200000D02*
X98750000Y-76789669D01*
X149870000Y-57630000D02*
X151190000Y-57630000D01*
X101000000Y-77000000D02*
X108000000Y-77000000D01*
X96680000Y-77200000D02*
X98339669Y-77200000D01*
X124120331Y-63379669D02*
X141879669Y-63379669D01*
X108500000Y-75000000D02*
X112500000Y-71000000D01*
X151190000Y-57630000D02*
X155950000Y-52870000D01*
X166515000Y-52870000D02*
X171275000Y-57630000D01*
X116500000Y-71000000D02*
X124120331Y-63379669D01*
X155950000Y-52870000D02*
X166515000Y-52870000D01*
X112500000Y-71000000D02*
X116500000Y-71000000D01*
%TO.N,Net-(J6-D7)*%
X162890000Y-140810000D02*
X162200000Y-141500000D01*
X105840000Y-146500000D02*
X105840000Y-141500000D01*
X162200000Y-141500000D02*
X162200000Y-146997056D01*
X168810000Y-140810000D02*
X162890000Y-140810000D01*
X108540000Y-149200000D02*
X105840000Y-146500000D01*
X162200000Y-146997056D02*
X159997056Y-149200000D01*
X159997056Y-149200000D02*
X108540000Y-149200000D01*
%TO.N,Net-(J6-D4)*%
X168810000Y-133190000D02*
X163241259Y-133190000D01*
X142000000Y-115000000D02*
X142100000Y-114900000D01*
X138143000Y-90250000D02*
X126590000Y-90250000D01*
X125420000Y-86500000D02*
X125420000Y-91420000D01*
X142100000Y-90650000D02*
X142250000Y-90500000D01*
X149250000Y-123500000D02*
X149250000Y-119750000D01*
X163241259Y-133190000D02*
X163100000Y-133048741D01*
X158000000Y-130500000D02*
X158000000Y-128250000D01*
X140553500Y-90303500D02*
X138196500Y-90303500D01*
X158000000Y-128250000D02*
X153250000Y-123500000D01*
X142100000Y-114900000D02*
X142100000Y-90650000D01*
X149250000Y-119750000D02*
X144520331Y-115020331D01*
X126590000Y-90250000D02*
X125340000Y-91500000D01*
X138196500Y-90303500D02*
X138143000Y-90250000D01*
X140750000Y-90500000D02*
X140553500Y-90303500D01*
%TO.N,Net-(J6-D12)*%
X165000000Y-105250000D02*
X165000000Y-96328970D01*
X161000000Y-75000000D02*
X161500000Y-74500000D01*
X165000000Y-111830000D02*
X165000000Y-106750000D01*
X173000000Y-115150000D02*
X171180000Y-113330000D01*
X164925000Y-69500000D02*
X164925000Y-74500000D01*
X161500000Y-74500000D02*
X164925000Y-74500000D01*
X170500000Y-151820000D02*
X170500000Y-126320000D01*
X160929669Y-88156873D02*
X160929669Y-78070331D01*
X164606067Y-91833271D02*
X160929669Y-88156873D01*
X170500000Y-119860662D02*
X172930331Y-117430331D01*
X171180000Y-113330000D02*
X165000000Y-113330000D01*
X165000000Y-96328970D02*
X165304154Y-96024816D01*
X170500000Y-124820000D02*
X170500000Y-119860662D01*
X168810000Y-153510000D02*
X170500000Y-151820000D01*
%TO.N,Net-(J6-D5)*%
X106551472Y-150400000D02*
X103400000Y-147248528D01*
X168810000Y-135730000D02*
X166770000Y-135730000D01*
X103400000Y-93940000D02*
X105840000Y-91500000D01*
X166770000Y-135730000D02*
X165000000Y-137500000D01*
X105840000Y-86500000D02*
X105840000Y-91500000D01*
X103400000Y-147248528D02*
X103400000Y-93940000D01*
X160000000Y-152620003D02*
X148120003Y-152620003D01*
X148120003Y-152620003D02*
X145900000Y-150400000D01*
X145900000Y-150400000D02*
X106551472Y-150400000D01*
%TO.N,Net-(J6-D11)*%
X149500000Y-139500000D02*
X149500000Y-147250000D01*
X144840000Y-84340000D02*
X150099997Y-89599997D01*
X149500000Y-127500000D02*
X149500000Y-130500000D01*
X150000000Y-127000000D02*
X149500000Y-127500000D01*
X150000000Y-91250000D02*
X150000000Y-102000000D01*
X149500000Y-150750000D02*
X149720000Y-150970000D01*
X150030331Y-104030331D02*
X150030331Y-113719669D01*
X144840000Y-74500000D02*
X144840000Y-84340000D01*
X150030331Y-113719669D02*
X150000000Y-113750000D01*
X144840000Y-69500000D02*
X144840000Y-74500000D01*
X149500000Y-132250000D02*
X149500000Y-137500000D01*
X149720000Y-150970000D02*
X168810000Y-150970000D01*
X150099997Y-89599997D02*
X150099997Y-89750000D01*
X150000000Y-115250000D02*
X150000000Y-127000000D01*
%TO.N,Net-(J6-D10)*%
X148750000Y-144000000D02*
X148750000Y-142750000D01*
X144840000Y-133660000D02*
X144840000Y-122500000D01*
X155500000Y-144000000D02*
X150250000Y-144000000D01*
X144840000Y-117500000D02*
X144840000Y-122500000D01*
X144500000Y-138500000D02*
X144500000Y-136000000D01*
X157000000Y-145500000D02*
X155500000Y-144000000D01*
X162676246Y-148430000D02*
X161053123Y-150053123D01*
X168810000Y-148430000D02*
X162676246Y-148430000D01*
X144650331Y-133849669D02*
X144840000Y-133660000D01*
X144500000Y-138500000D02*
X148750000Y-142750000D01*
%TO.N,Net-(J6-D3)*%
X125672233Y-148600000D02*
X124000000Y-146927767D01*
X161600000Y-132000000D02*
X161600000Y-146748528D01*
X168810000Y-130650000D02*
X162950000Y-130650000D01*
X161600000Y-146748528D02*
X159748528Y-148600000D01*
X124000000Y-120340000D02*
X125340000Y-119000000D01*
X124000000Y-130660000D02*
X124000000Y-120340000D01*
X162950000Y-130650000D02*
X161600000Y-132000000D01*
X124000000Y-146927767D02*
X124000000Y-137330000D01*
X125672233Y-148600000D02*
X159748528Y-148600000D01*
X125340000Y-114000000D02*
X125340000Y-119000000D01*
X124000000Y-135830000D02*
X124000000Y-132160000D01*
%TO.N,Net-(J6-D8)*%
X168810000Y-143350000D02*
X166290000Y-143350000D01*
X142750000Y-100590000D02*
X144840000Y-98500000D01*
X159281500Y-139000000D02*
X158000000Y-139000000D01*
X158000000Y-139000000D02*
X155080331Y-136080331D01*
X149250000Y-126000000D02*
X145590000Y-126000000D01*
X144840000Y-93500000D02*
X144840000Y-98500000D01*
X155000000Y-134000000D02*
X155000000Y-127750000D01*
X155000000Y-127750000D02*
X153250000Y-126000000D01*
X142750000Y-126000000D02*
X142750000Y-100590000D01*
X166290000Y-143350000D02*
X164500000Y-141560000D01*
%TO.N,Net-(J6-D6)*%
X146500000Y-150000000D02*
X146300000Y-149800000D01*
X165230000Y-138270000D02*
X163500000Y-140000000D01*
X146500000Y-150060661D02*
X146500000Y-150000000D01*
X104000000Y-120840000D02*
X105840000Y-119000000D01*
X105840000Y-114000000D02*
X105840000Y-119000000D01*
X148159339Y-151720000D02*
X146500000Y-150060661D01*
X106800000Y-149800000D02*
X104000000Y-147000000D01*
X146300000Y-149800000D02*
X106800000Y-149800000D01*
X160000000Y-151720000D02*
X148159339Y-151720000D01*
X168810000Y-138270000D02*
X165230000Y-138270000D01*
X104000000Y-147000000D02*
X104000000Y-120840000D01*
%TO.N,Net-(J6-D13)*%
X150000000Y-47000000D02*
X152840000Y-47000000D01*
X152840000Y-47000000D02*
X155750000Y-47000000D01*
X203600000Y-144400000D02*
X194490000Y-153510000D01*
X203600000Y-48100000D02*
X203600000Y-144400000D01*
X194490000Y-153510000D02*
X184050000Y-153510000D01*
X158000000Y-44750000D02*
X200250000Y-44750000D01*
X200250000Y-44750000D02*
X203600000Y-48100000D01*
X155750000Y-47000000D02*
X156500000Y-46250000D01*
%TO.N,Net-(J6-D2)*%
X161000000Y-130000000D02*
X161000000Y-146500000D01*
X162890000Y-128110000D02*
X161000000Y-130000000D01*
X125340000Y-141500000D02*
X125340000Y-146500000D01*
X161000000Y-146500000D02*
X159500000Y-148000000D01*
X126840000Y-148000000D02*
X125340000Y-146500000D01*
X168810000Y-128110000D02*
X162890000Y-128110000D01*
X159500000Y-148000000D02*
X126840000Y-148000000D01*
%TO.N,Net-(J6-D9)*%
X144840000Y-141500000D02*
X144840000Y-146500000D01*
X147500000Y-147250000D02*
X145590000Y-147250000D01*
X160045584Y-150000000D02*
X164155584Y-145890000D01*
X168810000Y-145890000D02*
X164155584Y-145890000D01*
X145590000Y-147250000D02*
X144840000Y-146500000D01*
X160045584Y-150000000D02*
X147500000Y-150000000D01*
%TO.N,Net-(J8-P{slash}P)*%
X202080000Y-99340000D02*
X202080000Y-81000000D01*
X191920000Y-109500000D02*
X202080000Y-99340000D01*
%TO.N,Net-(J8-SPK_L)*%
X177500000Y-99500000D02*
X182000000Y-99500000D01*
%TO.N,Net-(J8-FWD)*%
X200861472Y-87730000D02*
X196731472Y-83600000D01*
X190420000Y-107000000D02*
X192722944Y-107000000D01*
X187920000Y-109500000D02*
X190420000Y-107000000D01*
X192722944Y-107000000D02*
X200861472Y-98861472D01*
X177680000Y-83600000D02*
X175080000Y-81000000D01*
X200861472Y-98861472D02*
X200861472Y-87730000D01*
X196731472Y-83600000D02*
X177680000Y-83600000D01*
%TO.N,Net-(J8-REW)*%
X189920000Y-109500000D02*
X191634264Y-107785736D01*
X196980000Y-83000000D02*
X190500000Y-83000000D01*
X191634264Y-107785736D02*
X192785736Y-107785736D01*
X190500000Y-83000000D02*
X188500000Y-81000000D01*
X201480000Y-87500000D02*
X196980000Y-83000000D01*
X192785736Y-107785736D02*
X201480000Y-99091472D01*
X201480000Y-99091472D02*
X201480000Y-87500000D01*
%TO.N,Net-(K6-N.O.)*%
X126610000Y-125270000D02*
X125340000Y-124000000D01*
X126610000Y-129630000D02*
X126610000Y-125270000D01*
%TO.N,Net-(K7-N.O.)*%
X126610000Y-97770000D02*
X125340000Y-96500000D01*
X126610000Y-102130000D02*
X126610000Y-97770000D01*
%TO.N,Net-(K8-N.O.)*%
X126610000Y-70270000D02*
X125340000Y-69000000D01*
X126610000Y-74630000D02*
X126610000Y-70270000D01*
%TO.N,Net-(K10-N.O.)*%
X107110000Y-129630000D02*
X107110000Y-125270000D01*
X107110000Y-125270000D02*
X105840000Y-124000000D01*
%TO.N,Net-(K11-N.O.)*%
X107110000Y-97770000D02*
X105840000Y-96500000D01*
X107110000Y-102130000D02*
X107110000Y-97770000D01*
%TO.N,Net-(K12-N.O.)*%
X107110000Y-70270000D02*
X105840000Y-69000000D01*
X107110000Y-74630000D02*
X107110000Y-70270000D01*
%TO.N,Net-(Q1-B)*%
X155000000Y-141500000D02*
X156435000Y-141500000D01*
X156435000Y-141500000D02*
X158835000Y-143900000D01*
%TO.N,Net-(Q2-B)*%
X155000000Y-117500000D02*
X156435000Y-117500000D01*
X156435000Y-117500000D02*
X158835000Y-119900000D01*
%TO.N,Net-(Q3-B)*%
X155000000Y-93500000D02*
X156435000Y-93500000D01*
X156435000Y-93500000D02*
X158835000Y-95900000D01*
%TO.N,Net-(Q4-B)*%
X155000000Y-69500000D02*
X156435000Y-69500000D01*
X156435000Y-69500000D02*
X158835000Y-71900000D01*
%TO.N,Net-(Q5-B)*%
X181435000Y-69500000D02*
X175085000Y-69500000D01*
X183835000Y-71900000D02*
X181435000Y-69500000D01*
%TO.N,Net-(Q6-B)*%
X135500000Y-141500000D02*
X136935000Y-141500000D01*
X136935000Y-141500000D02*
X139335000Y-143900000D01*
%TO.N,Net-(J1-GND)*%
X135500000Y-91500000D02*
X139335000Y-91500000D01*
X123099997Y-144900003D02*
X123099997Y-137330000D01*
X124750000Y-121000000D02*
X125500000Y-121000000D01*
X135500000Y-119000000D02*
X139335000Y-119000000D01*
X127500000Y-119000000D02*
X135500000Y-119000000D01*
X123099997Y-121150003D02*
X123250000Y-121000000D01*
X125500000Y-121000000D02*
X127500000Y-119000000D01*
X127590000Y-146500000D02*
X135500000Y-146500000D01*
X119835000Y-119000000D02*
X122000000Y-116835000D01*
X123099997Y-122264997D02*
X119835000Y-119000000D01*
X122000000Y-93665000D02*
X119835000Y-91500000D01*
X123099997Y-122264997D02*
X123099997Y-121150003D01*
X116000000Y-119000000D02*
X119835000Y-119000000D01*
X126090000Y-145000000D02*
X127590000Y-146500000D01*
X122000000Y-108330000D02*
X122000000Y-104500000D01*
X123099997Y-135830000D02*
X123099997Y-132160000D01*
X135500000Y-146500000D02*
X139335000Y-146500000D01*
X119835000Y-146500000D02*
X121500000Y-146500000D01*
X122000000Y-116835000D02*
X122000000Y-109830000D01*
X121500000Y-146500000D02*
X123000000Y-145000000D01*
X116000000Y-91500000D02*
X119835000Y-91500000D01*
X122000000Y-102000000D02*
X122000000Y-93665000D01*
X123099997Y-130660000D02*
X123099997Y-122264997D01*
X133335000Y-93665000D02*
X135500000Y-91500000D01*
X122000000Y-93665000D02*
X133335000Y-93665000D01*
X123000000Y-145000000D02*
X123099997Y-144900003D01*
X116000000Y-146500000D02*
X119835000Y-146500000D01*
%TO.N,Net-(Q7-B)*%
X135500000Y-114000000D02*
X136935000Y-114000000D01*
X136935000Y-114000000D02*
X139335000Y-116400000D01*
%TO.N,Net-(Q8-B)*%
X136935000Y-86500000D02*
X139335000Y-88900000D01*
X135580000Y-86500000D02*
X136935000Y-86500000D01*
%TO.N,Net-(Q9-B)*%
X141340000Y-45500000D02*
X139840000Y-47000000D01*
X167605000Y-45500000D02*
X141340000Y-45500000D01*
X169020000Y-46915000D02*
X167605000Y-45500000D01*
%TO.N,Net-(Q10-B)*%
X117435000Y-141500000D02*
X119835000Y-143900000D01*
X116000000Y-141500000D02*
X117435000Y-141500000D01*
%TO.N,Net-(Q11-B)*%
X117435000Y-114000000D02*
X119835000Y-116400000D01*
X116000000Y-114000000D02*
X117435000Y-114000000D01*
%TO.N,Net-(Q12-B)*%
X117435000Y-86500000D02*
X119835000Y-88900000D01*
X116000000Y-86500000D02*
X117435000Y-86500000D01*
%TD*%
M02*
