%TF.GenerationSoftware,KiCad,Pcbnew,8.0.0*%
%TF.CreationDate,2024-03-27T19:15:27-07:00*%
%TF.ProjectId,honda radio,686f6e64-6120-4726-9164-696f2e6b6963,rev?*%
%TF.SameCoordinates,Original*%
%TF.FileFunction,Paste,Top*%
%TF.FilePolarity,Positive*%
%FSLAX46Y46*%
G04 Gerber Fmt 4.6, Leading zero omitted, Abs format (unit mm)*
G04 Created by KiCad (PCBNEW 8.0.0) date 2024-03-27 19:15:27*
%MOMM*%
%LPD*%
G01*
G04 APERTURE LIST*
%ADD10R,0.800000X2.660000*%
%ADD11R,2.200000X2.800000*%
%ADD12R,2.800000X2.600000*%
G04 APERTURE END LIST*
D10*
%TO.C,K8*%
X131690000Y-74630000D03*
X126610000Y-74630000D03*
X126610000Y-81370000D03*
X134230000Y-81370000D03*
%TD*%
%TO.C,K7*%
X131690000Y-102130000D03*
X126610000Y-102130000D03*
X126610000Y-108870000D03*
X134230000Y-108870000D03*
%TD*%
%TO.C,K6*%
X131690000Y-129630000D03*
X126610000Y-129630000D03*
X126610000Y-136370000D03*
X134230000Y-136370000D03*
%TD*%
%TO.C,K1*%
X151190000Y-129630000D03*
X146110000Y-129630000D03*
X146110000Y-136370000D03*
X153730000Y-136370000D03*
%TD*%
D11*
%TO.C,J5*%
X85320000Y-112200000D03*
D12*
X94720000Y-112300000D03*
D11*
X87320000Y-104800000D03*
%TD*%
D10*
%TO.C,K3*%
X151190000Y-81630000D03*
X146110000Y-81630000D03*
X146110000Y-88370000D03*
X153730000Y-88370000D03*
%TD*%
%TO.C,K12*%
X112190000Y-74630000D03*
X107110000Y-74630000D03*
X107110000Y-81370000D03*
X114730000Y-81370000D03*
%TD*%
%TO.C,K4*%
X151190000Y-57630000D03*
X146110000Y-57630000D03*
X146110000Y-64370000D03*
X153730000Y-64370000D03*
%TD*%
%TO.C,K11*%
X112190000Y-102130000D03*
X107110000Y-102130000D03*
X107110000Y-108870000D03*
X114730000Y-108870000D03*
%TD*%
%TO.C,K5*%
X171275000Y-57630000D03*
X166195000Y-57630000D03*
X166195000Y-64370000D03*
X173815000Y-64370000D03*
%TD*%
%TO.C,K2*%
X151190000Y-105630000D03*
X146110000Y-105630000D03*
X146110000Y-112370000D03*
X153730000Y-112370000D03*
%TD*%
%TO.C,K10*%
X112190000Y-129630000D03*
X107110000Y-129630000D03*
X107110000Y-136370000D03*
X114730000Y-136370000D03*
%TD*%
M02*
