%TF.GenerationSoftware,KiCad,Pcbnew,8.0.0*%
%TF.CreationDate,2024-03-27T19:15:27-07:00*%
%TF.ProjectId,honda radio,686f6e64-6120-4726-9164-696f2e6b6963,rev?*%
%TF.SameCoordinates,Original*%
%TF.FileFunction,Copper,L2,Bot*%
%TF.FilePolarity,Positive*%
%FSLAX46Y46*%
G04 Gerber Fmt 4.6, Leading zero omitted, Abs format (unit mm)*
G04 Created by KiCad (PCBNEW 8.0.0) date 2024-03-27 19:15:27*
%MOMM*%
%LPD*%
G01*
G04 APERTURE LIST*
%TA.AperFunction,ComponentPad*%
%ADD10C,1.600000*%
%TD*%
%TA.AperFunction,ComponentPad*%
%ADD11O,1.600000X1.600000*%
%TD*%
%TA.AperFunction,ComponentPad*%
%ADD12R,2.200000X2.200000*%
%TD*%
%TA.AperFunction,ComponentPad*%
%ADD13O,2.200000X2.200000*%
%TD*%
%TA.AperFunction,ComponentPad*%
%ADD14C,1.493000*%
%TD*%
%TA.AperFunction,ComponentPad*%
%ADD15C,4.800000*%
%TD*%
%TA.AperFunction,ComponentPad*%
%ADD16C,4.650000*%
%TD*%
%TA.AperFunction,ComponentPad*%
%ADD17R,1.500000X1.500000*%
%TD*%
%TA.AperFunction,ComponentPad*%
%ADD18C,1.500000*%
%TD*%
%TA.AperFunction,ComponentPad*%
%ADD19R,1.350000X1.350000*%
%TD*%
%TA.AperFunction,ComponentPad*%
%ADD20O,1.350000X1.350000*%
%TD*%
%TA.AperFunction,ComponentPad*%
%ADD21C,1.950000*%
%TD*%
%TA.AperFunction,ComponentPad*%
%ADD22R,1.700000X1.700000*%
%TD*%
%TA.AperFunction,ComponentPad*%
%ADD23O,1.700000X1.700000*%
%TD*%
%TA.AperFunction,ComponentPad*%
%ADD24R,1.600000X1.600000*%
%TD*%
%TA.AperFunction,ComponentPad*%
%ADD25R,3.750000X3.750000*%
%TD*%
%TA.AperFunction,ComponentPad*%
%ADD26C,1.800000*%
%TD*%
%TA.AperFunction,ComponentPad*%
%ADD27C,3.750000*%
%TD*%
%TA.AperFunction,ViaPad*%
%ADD28C,0.600000*%
%TD*%
%TA.AperFunction,Conductor*%
%ADD29C,0.300000*%
%TD*%
G04 APERTURE END LIST*
D10*
%TO.P,R6,1*%
%TO.N,Net-(J1-GND)*%
X155000000Y-98500000D03*
D11*
%TO.P,R6,2*%
%TO.N,Net-(J6-D8)*%
X144840000Y-98500000D03*
%TD*%
D12*
%TO.P,D7,1,K*%
%TO.N,Net-(D1-K)*%
X139420000Y-109080000D03*
D13*
%TO.P,D7,2,A*%
%TO.N,Net-(D7-A)*%
X139420000Y-98920000D03*
%TD*%
D14*
%TO.P,Q10,1,C*%
%TO.N,Net-(D10-A)*%
X119835000Y-141300000D03*
%TO.P,Q10,2,B*%
%TO.N,Net-(Q10-B)*%
X119835000Y-143900000D03*
%TO.P,Q10,3,E*%
%TO.N,Net-(J1-GND)*%
X119835000Y-146500000D03*
%TD*%
D10*
%TO.P,R16,1*%
%TO.N,Net-(J1-GND)*%
X175085000Y-74500000D03*
D11*
%TO.P,R16,2*%
%TO.N,Net-(J6-D12)*%
X164925000Y-74500000D03*
%TD*%
D10*
%TO.P,R23,1*%
%TO.N,Net-(J3-LED1)*%
X116000000Y-124000000D03*
D11*
%TO.P,R23,2*%
%TO.N,Net-(K10-N.O.)*%
X105840000Y-124000000D03*
%TD*%
D10*
%TO.P,R31,1*%
%TO.N,Net-(J1-GND)*%
X116000000Y-146500000D03*
D11*
%TO.P,R31,2*%
%TO.N,Net-(J6-D7)*%
X105840000Y-146500000D03*
%TD*%
D14*
%TO.P,Q5,1,C*%
%TO.N,Net-(D5-A)*%
X183835000Y-69300000D03*
%TO.P,Q5,2,B*%
%TO.N,Net-(Q5-B)*%
X183835000Y-71900000D03*
%TO.P,Q5,3,E*%
%TO.N,Net-(J1-GND)*%
X183835000Y-74500000D03*
%TD*%
D10*
%TO.P,R30,1*%
%TO.N,Net-(Q12-B)*%
X116000000Y-86500000D03*
D11*
%TO.P,R30,2*%
%TO.N,Net-(J6-D5)*%
X105840000Y-86500000D03*
%TD*%
D10*
%TO.P,R17,1*%
%TO.N,Net-(Q6-B)*%
X135500000Y-141500000D03*
D11*
%TO.P,R17,2*%
%TO.N,Net-(J6-D2)*%
X125340000Y-141500000D03*
%TD*%
D15*
%TO.P,REF\u002A\u002A,MH1*%
%TO.N,N/C*%
X88500000Y-39500000D03*
%TD*%
D16*
%TO.P,J3,0,PAD*%
%TO.N,Net-(J1-GND)*%
X95260000Y-48180000D03*
D17*
%TO.P,J3,1,GND*%
X96680000Y-88240000D03*
D18*
%TO.P,J3,2,12V*%
%TO.N,Net-(J1-12V)*%
X96680000Y-85480000D03*
%TO.P,J3,3,SPK_L*%
%TO.N,Net-(J3-SPK_L)*%
X96680000Y-82720000D03*
%TO.P,J3,4,SPK_R*%
%TO.N,Net-(J3-SPK_R)*%
X96680000Y-79960000D03*
%TO.P,J3,5,B+*%
%TO.N,Net-(J3-B+)*%
X96680000Y-77200000D03*
%TO.P,J3,6,B+RAD*%
%TO.N,Net-(J3-B+RAD)*%
X96680000Y-74440000D03*
%TO.P,J3,7,B+TAP*%
%TO.N,Net-(J3-B+TAP)*%
X96680000Y-71680000D03*
%TO.P,J3,8,BTN1*%
%TO.N,Net-(J3-BTN1)*%
X96680000Y-68920000D03*
%TO.P,J3,9,BTN2*%
%TO.N,Net-(J3-BTN2)*%
X96680000Y-66160000D03*
%TO.P,J3,10,BTN3*%
%TO.N,Net-(J3-BTN3)*%
X96680000Y-63400000D03*
%TO.P,J3,11,BTN4*%
%TO.N,Net-(J3-BTN4)*%
X96680000Y-60640000D03*
%TO.P,J3,12,BTN5*%
%TO.N,Net-(J3-BTN5)*%
X96680000Y-57880000D03*
%TO.P,J3,13,BTN6*%
%TO.N,Net-(J3-BTN6)*%
X96680000Y-55120000D03*
%TO.P,J3,14,GND*%
%TO.N,Net-(J1-GND)*%
X93840000Y-86860000D03*
%TO.P,J3,15,LED6*%
%TO.N,Net-(J3-LED6)*%
X93840000Y-84100000D03*
%TO.P,J3,16,LED5*%
%TO.N,Net-(J3-LED5)*%
X93840000Y-81340000D03*
%TO.P,J3,17,LED4*%
%TO.N,Net-(J3-LED4)*%
X93840000Y-78580000D03*
%TO.P,J3,18,LED3*%
%TO.N,Net-(J3-LED3)*%
X93840000Y-75820000D03*
%TO.P,J3,19,LED2*%
%TO.N,Net-(J3-LED2)*%
X93840000Y-73060000D03*
%TO.P,J3,20,LED1*%
%TO.N,Net-(J3-LED1)*%
X93840000Y-70300000D03*
%TO.P,J3,21,NC*%
%TO.N,unconnected-(J3-NC-Pad21)*%
X93840000Y-67540000D03*
%TO.P,J3,22,NC*%
%TO.N,unconnected-(J3-NC-Pad22)*%
X93840000Y-64780000D03*
%TO.P,J3,23,NC*%
%TO.N,unconnected-(J3-NC-Pad23)*%
X93840000Y-62020000D03*
%TO.P,J3,24,NC*%
%TO.N,unconnected-(J3-NC-Pad24)*%
X93840000Y-59260000D03*
%TO.P,J3,25,NC*%
%TO.N,unconnected-(J3-NC-Pad25)*%
X93840000Y-56500000D03*
D16*
%TO.P,J3,MH1*%
%TO.N,N/C*%
X95260000Y-95180000D03*
%TD*%
D15*
%TO.P,REF\u002A\u002A,MH1*%
%TO.N,N/C*%
X88420000Y-152500000D03*
%TD*%
D10*
%TO.P,R28,1*%
%TO.N,Net-(Q10-B)*%
X116000000Y-141500000D03*
D11*
%TO.P,R28,2*%
%TO.N,Net-(J6-D7)*%
X105840000Y-141500000D03*
%TD*%
D15*
%TO.P,J1,0,PAD*%
%TO.N,Net-(J1-GND)*%
X198420000Y-72995000D03*
D17*
%TO.P,J1,1,1.8V_TRIG*%
%TO.N,Net-(J1-1.8V_TRIG)*%
X197000000Y-54955000D03*
D18*
%TO.P,J1,2,FWD_BTN*%
%TO.N,Net-(J1-FWD_BTN)*%
X197000000Y-57727000D03*
%TO.P,J1,3,REW_BTN*%
%TO.N,Net-(J1-REW_BTN)*%
X197000000Y-60500000D03*
%TO.P,J1,4,PP_BTN*%
%TO.N,Net-(J1-PP_BTN)*%
X197000000Y-63272000D03*
%TO.P,J1,5,NC*%
%TO.N,unconnected-(J1-NC-Pad5)*%
X197000000Y-66045000D03*
%TO.P,J1,6,NC*%
%TO.N,unconnected-(J1-NC-Pad6)*%
X199840000Y-56341000D03*
%TO.P,J1,7,5V*%
%TO.N,Net-(D1-K)*%
X199840000Y-59114000D03*
%TO.P,J1,8,12V*%
%TO.N,Net-(J1-12V)*%
X199840000Y-61886000D03*
%TO.P,J1,9,GND*%
%TO.N,Net-(J1-GND)*%
X199840000Y-64659000D03*
D15*
%TO.P,J1,MH1*%
%TO.N,N/C*%
X198420000Y-48005000D03*
%TD*%
D10*
%TO.P,R11,1*%
%TO.N,Net-(J3-LED5)*%
X135500000Y-96500000D03*
D11*
%TO.P,R11,2*%
%TO.N,Net-(K7-N.O.)*%
X125340000Y-96500000D03*
%TD*%
D19*
%TO.P,J8,1,GND*%
%TO.N,Net-(J1-GND)*%
X193920000Y-88500000D03*
D20*
%TO.P,J8,2,SPK_LP*%
%TO.N,unconnected-(J8-SPK_LP-Pad2)*%
X191920000Y-88500000D03*
%TO.P,J8,3,SPK_LN*%
%TO.N,unconnected-(J8-SPK_LN-Pad3)*%
X189920000Y-88500000D03*
%TO.P,J8,4,SPK_RP*%
%TO.N,unconnected-(J8-SPK_RP-Pad4)*%
X187920000Y-88500000D03*
%TO.P,J8,5,SPK_RN*%
%TO.N,unconnected-(J8-SPK_RN-Pad5)*%
X185920000Y-88500000D03*
D19*
%TO.P,J8,6,GND*%
%TO.N,Net-(J1-GND)*%
X183920000Y-88500000D03*
D20*
%TO.P,J8,7,LIN_AN*%
%TO.N,unconnected-(J8-LIN_AN-Pad7)*%
X181920000Y-88500000D03*
%TO.P,J8,8,LIN_AP*%
%TO.N,unconnected-(J8-LIN_AP-Pad8)*%
X179920000Y-88500000D03*
%TO.P,J8,9,LIN_BN*%
%TO.N,unconnected-(J8-LIN_BN-Pad9)*%
X177920000Y-88500000D03*
%TO.P,J8,10,LIN_BP*%
%TO.N,unconnected-(J8-LIN_BP-Pad10)*%
X175920000Y-88500000D03*
%TO.P,J8,11,VIN*%
%TO.N,Net-(D1-K)*%
X175920000Y-109500000D03*
%TO.P,J8,12,+3.3V*%
%TO.N,unconnected-(J8-+3.3V-Pad12)*%
X177920000Y-109500000D03*
%TO.P,J8,13,SPK_R*%
%TO.N,Net-(J8-SPK_R)*%
X179920000Y-109500000D03*
%TO.P,J8,14,SPK_L*%
%TO.N,Net-(J8-SPK_L)*%
X181920000Y-109500000D03*
%TO.P,J8,15,+1.8V*%
%TO.N,Net-(J1-1.8V_TRIG)*%
X183920000Y-109500000D03*
D19*
%TO.P,J8,16,GND*%
%TO.N,Net-(J1-GND)*%
X185920000Y-109500000D03*
D20*
%TO.P,J8,17,FWD*%
%TO.N,Net-(J8-FWD)*%
X187920000Y-109500000D03*
%TO.P,J8,18,REW*%
%TO.N,Net-(J8-REW)*%
X189920000Y-109500000D03*
%TO.P,J8,19,P/P*%
%TO.N,Net-(J8-P{slash}P)*%
X191920000Y-109500000D03*
%TO.P,J8,20,AUXD_MUT*%
%TO.N,unconnected-(J8-AUXD_MUT-Pad20)*%
X193920000Y-109500000D03*
%TD*%
D12*
%TO.P,D9,1,K*%
%TO.N,Net-(D1-K)*%
X139840000Y-51500000D03*
D13*
%TO.P,D9,2,A*%
%TO.N,Net-(D9-A)*%
X150000000Y-51500000D03*
%TD*%
D10*
%TO.P,R29,1*%
%TO.N,Net-(Q11-B)*%
X116000000Y-114000000D03*
D11*
%TO.P,R29,2*%
%TO.N,Net-(J6-D6)*%
X105840000Y-114000000D03*
%TD*%
D12*
%TO.P,D5,1,K*%
%TO.N,Net-(D1-K)*%
X178920000Y-74580000D03*
D13*
%TO.P,D5,2,A*%
%TO.N,Net-(D5-A)*%
X178920000Y-64420000D03*
%TD*%
D10*
%TO.P,R27,1*%
%TO.N,Net-(J1-GND)*%
X163000000Y-47000000D03*
D11*
%TO.P,R27,2*%
%TO.N,Net-(J6-D13)*%
X152840000Y-47000000D03*
%TD*%
D14*
%TO.P,Q2,1,C*%
%TO.N,Net-(D2-A)*%
X158835000Y-117300000D03*
%TO.P,Q2,2,B*%
%TO.N,Net-(Q2-B)*%
X158835000Y-119900000D03*
%TO.P,Q2,3,E*%
%TO.N,Net-(J1-GND)*%
X158835000Y-122500000D03*
%TD*%
D21*
%TO.P,K9,1,COIL_1*%
%TO.N,Net-(D1-K)*%
X108220000Y-58750000D03*
%TO.P,K9,3,COM_1*%
%TO.N,Net-(J8-SPK_L)*%
X128220000Y-58750000D03*
%TO.P,K9,4,NO_1*%
%TO.N,Net-(J3-SPK_L)*%
X133220000Y-58750000D03*
%TO.P,K9,5,NO_2*%
%TO.N,Net-(J3-SPK_R)*%
X133220000Y-51250000D03*
%TO.P,K9,6,COM_2*%
%TO.N,Net-(J8-SPK_R)*%
X128220000Y-51250000D03*
%TO.P,K9,8,COIL_2*%
%TO.N,Net-(D9-A)*%
X108220000Y-51250000D03*
%TD*%
D12*
%TO.P,D2,1,K*%
%TO.N,Net-(D1-K)*%
X158920000Y-112580000D03*
D13*
%TO.P,D2,2,A*%
%TO.N,Net-(D2-A)*%
X158920000Y-102420000D03*
%TD*%
D12*
%TO.P,D4,1,K*%
%TO.N,Net-(D1-K)*%
X158920000Y-64580000D03*
D13*
%TO.P,D4,2,A*%
%TO.N,Net-(D4-A)*%
X158920000Y-54420000D03*
%TD*%
D10*
%TO.P,R7,1*%
%TO.N,Net-(J1-PP_BTN)*%
X191920000Y-81000000D03*
D11*
%TO.P,R7,2*%
%TO.N,Net-(J8-P{slash}P)*%
X202080000Y-81000000D03*
%TD*%
D10*
%TO.P,R5,1*%
%TO.N,Net-(J1-GND)*%
X155000000Y-122500000D03*
D11*
%TO.P,R5,2*%
%TO.N,Net-(J6-D10)*%
X144840000Y-122500000D03*
%TD*%
D10*
%TO.P,R32,1*%
%TO.N,Net-(J1-GND)*%
X116000000Y-119000000D03*
D11*
%TO.P,R32,2*%
%TO.N,Net-(J6-D6)*%
X105840000Y-119000000D03*
%TD*%
D10*
%TO.P,R25,1*%
%TO.N,Net-(J3-LED3)*%
X116000000Y-69000000D03*
D11*
%TO.P,R25,2*%
%TO.N,Net-(K12-N.O.)*%
X105840000Y-69000000D03*
%TD*%
D12*
%TO.P,D3,1,K*%
%TO.N,Net-(D1-K)*%
X158920000Y-88580000D03*
D13*
%TO.P,D3,2,A*%
%TO.N,Net-(D3-A)*%
X158920000Y-78420000D03*
%TD*%
D14*
%TO.P,Q7,1,C*%
%TO.N,Net-(D7-A)*%
X139335000Y-113800000D03*
%TO.P,Q7,2,B*%
%TO.N,Net-(Q7-B)*%
X139335000Y-116400000D03*
%TO.P,Q7,3,E*%
%TO.N,Net-(J1-GND)*%
X139335000Y-119000000D03*
%TD*%
D15*
%TO.P,,MH1*%
%TO.N,N/C*%
X203000000Y-39500000D03*
%TD*%
%TO.P,,MH1*%
%TO.N,N/C*%
X202920000Y-152500000D03*
%TD*%
D10*
%TO.P,R13,1*%
%TO.N,Net-(Q4-B)*%
X155000000Y-69500000D03*
D11*
%TO.P,R13,2*%
%TO.N,Net-(J6-D11)*%
X144840000Y-69500000D03*
%TD*%
D14*
%TO.P,Q9,1,C*%
%TO.N,Net-(D9-A)*%
X171620000Y-46915000D03*
%TO.P,Q9,2,B*%
%TO.N,Net-(Q9-B)*%
X169020000Y-46915000D03*
%TO.P,Q9,3,E*%
%TO.N,Net-(J1-GND)*%
X166420000Y-46915000D03*
%TD*%
%TO.P,Q12,1,C*%
%TO.N,Net-(D12-A)*%
X119835000Y-86300000D03*
%TO.P,Q12,2,B*%
%TO.N,Net-(Q12-B)*%
X119835000Y-88900000D03*
%TO.P,Q12,3,E*%
%TO.N,Net-(J1-GND)*%
X119835000Y-91500000D03*
%TD*%
D10*
%TO.P,R26,1*%
%TO.N,Net-(Q9-B)*%
X139840000Y-47000000D03*
D11*
%TO.P,R26,2*%
%TO.N,Net-(J6-D13)*%
X150000000Y-47000000D03*
%TD*%
D14*
%TO.P,Q3,1,C*%
%TO.N,Net-(D3-A)*%
X158835000Y-93300000D03*
%TO.P,Q3,2,B*%
%TO.N,Net-(Q3-B)*%
X158835000Y-95900000D03*
%TO.P,Q3,3,E*%
%TO.N,Net-(J1-GND)*%
X158835000Y-98500000D03*
%TD*%
D10*
%TO.P,R21,1*%
%TO.N,Net-(J1-GND)*%
X135500000Y-119000000D03*
D11*
%TO.P,R21,2*%
%TO.N,Net-(J6-D3)*%
X125340000Y-119000000D03*
%TD*%
D14*
%TO.P,Q1,1,C*%
%TO.N,Net-(D1-A)*%
X158835000Y-141300000D03*
%TO.P,Q1,2,B*%
%TO.N,Net-(Q1-B)*%
X158835000Y-143900000D03*
%TO.P,Q1,3,E*%
%TO.N,Net-(J1-GND)*%
X158835000Y-146500000D03*
%TD*%
D12*
%TO.P,D11,1,K*%
%TO.N,Net-(D1-K)*%
X119920000Y-109080000D03*
D13*
%TO.P,D11,2,A*%
%TO.N,Net-(D11-A)*%
X119920000Y-98920000D03*
%TD*%
D10*
%TO.P,R33,1*%
%TO.N,Net-(J1-GND)*%
X116000000Y-91500000D03*
D11*
%TO.P,R33,2*%
%TO.N,Net-(J6-D5)*%
X105840000Y-91500000D03*
%TD*%
D12*
%TO.P,D12,1,K*%
%TO.N,Net-(D1-K)*%
X119920000Y-81580000D03*
D13*
%TO.P,D12,2,A*%
%TO.N,Net-(D12-A)*%
X119920000Y-71420000D03*
%TD*%
D10*
%TO.P,R22,1*%
%TO.N,Net-(J1-GND)*%
X135500000Y-91500000D03*
D11*
%TO.P,R22,2*%
%TO.N,Net-(J6-D4)*%
X125340000Y-91500000D03*
%TD*%
D12*
%TO.P,D10,1,K*%
%TO.N,Net-(D1-K)*%
X119920000Y-136580000D03*
D13*
%TO.P,D10,2,A*%
%TO.N,Net-(D10-A)*%
X119920000Y-126420000D03*
%TD*%
D14*
%TO.P,Q6,1,C*%
%TO.N,Net-(D6-A)*%
X139335000Y-141300000D03*
%TO.P,Q6,2,B*%
%TO.N,Net-(Q6-B)*%
X139335000Y-143900000D03*
%TO.P,Q6,3,E*%
%TO.N,Net-(J1-GND)*%
X139335000Y-146500000D03*
%TD*%
D10*
%TO.P,R15,1*%
%TO.N,Net-(J1-GND)*%
X155000000Y-74500000D03*
D11*
%TO.P,R15,2*%
%TO.N,Net-(J6-D11)*%
X144840000Y-74500000D03*
%TD*%
D14*
%TO.P,Q8,1,C*%
%TO.N,Net-(D8-A)*%
X139335000Y-86300000D03*
%TO.P,Q8,2,B*%
%TO.N,Net-(Q8-B)*%
X139335000Y-88900000D03*
%TO.P,Q8,3,E*%
%TO.N,Net-(J1-GND)*%
X139335000Y-91500000D03*
%TD*%
D10*
%TO.P,R10,1*%
%TO.N,Net-(J3-LED6)*%
X135500000Y-124000000D03*
D11*
%TO.P,R10,2*%
%TO.N,Net-(K6-N.O.)*%
X125340000Y-124000000D03*
%TD*%
D10*
%TO.P,R1,1*%
%TO.N,Net-(Q1-B)*%
X155000000Y-141500000D03*
D11*
%TO.P,R1,2*%
%TO.N,Net-(J6-D9)*%
X144840000Y-141500000D03*
%TD*%
D10*
%TO.P,R20,1*%
%TO.N,Net-(J1-GND)*%
X135500000Y-146500000D03*
D11*
%TO.P,R20,2*%
%TO.N,Net-(J6-D2)*%
X125340000Y-146500000D03*
%TD*%
D10*
%TO.P,R19,1*%
%TO.N,Net-(Q8-B)*%
X135580000Y-86500000D03*
D11*
%TO.P,R19,2*%
%TO.N,Net-(J6-D4)*%
X125420000Y-86500000D03*
%TD*%
D10*
%TO.P,R2,1*%
%TO.N,Net-(Q2-B)*%
X155000000Y-117500000D03*
D11*
%TO.P,R2,2*%
%TO.N,Net-(J6-D10)*%
X144840000Y-117500000D03*
%TD*%
D10*
%TO.P,R12,1*%
%TO.N,Net-(J3-LED4)*%
X135500000Y-69000000D03*
D11*
%TO.P,R12,2*%
%TO.N,Net-(K8-N.O.)*%
X125340000Y-69000000D03*
%TD*%
D12*
%TO.P,D1,1,K*%
%TO.N,Net-(D1-K)*%
X158920000Y-136580000D03*
D13*
%TO.P,D1,2,A*%
%TO.N,Net-(D1-A)*%
X158920000Y-126420000D03*
%TD*%
D10*
%TO.P,R14,1*%
%TO.N,Net-(Q5-B)*%
X175085000Y-69500000D03*
D11*
%TO.P,R14,2*%
%TO.N,Net-(J6-D12)*%
X164925000Y-69500000D03*
%TD*%
D10*
%TO.P,R24,1*%
%TO.N,Net-(J3-LED2)*%
X116000000Y-96500000D03*
D11*
%TO.P,R24,2*%
%TO.N,Net-(K11-N.O.)*%
X105840000Y-96500000D03*
%TD*%
D10*
%TO.P,R8,1*%
%TO.N,Net-(J1-REW_BTN)*%
X178340000Y-81000000D03*
D11*
%TO.P,R8,2*%
%TO.N,Net-(J8-REW)*%
X188500000Y-81000000D03*
%TD*%
D10*
%TO.P,R18,1*%
%TO.N,Net-(Q7-B)*%
X135500000Y-114000000D03*
D11*
%TO.P,R18,2*%
%TO.N,Net-(J6-D3)*%
X125340000Y-114000000D03*
%TD*%
D10*
%TO.P,R3,1*%
%TO.N,Net-(Q3-B)*%
X155000000Y-93500000D03*
D11*
%TO.P,R3,2*%
%TO.N,Net-(J6-D8)*%
X144840000Y-93500000D03*
%TD*%
D22*
%TO.P,J7,1,GND*%
%TO.N,Net-(J1-GND)*%
X186780000Y-47080000D03*
D23*
%TO.P,J7,2,3V/5V*%
%TO.N,Net-(D1-K)*%
X184240000Y-47080000D03*
%TO.P,J7,3,Vin*%
%TO.N,Net-(J1-12V)*%
X181700000Y-47080000D03*
%TO.P,J7,4,En*%
%TO.N,unconnected-(J7-En-Pad4)*%
X179160000Y-47080000D03*
%TD*%
D12*
%TO.P,D6,1,K*%
%TO.N,Net-(D1-K)*%
X139420000Y-136580000D03*
D13*
%TO.P,D6,2,A*%
%TO.N,Net-(D6-A)*%
X139420000Y-126420000D03*
%TD*%
D10*
%TO.P,R9,1*%
%TO.N,Net-(J1-FWD_BTN)*%
X164920000Y-81000000D03*
D11*
%TO.P,R9,2*%
%TO.N,Net-(J8-FWD)*%
X175080000Y-81000000D03*
%TD*%
D10*
%TO.P,R4,1*%
%TO.N,Net-(J1-GND)*%
X155000000Y-146500000D03*
D11*
%TO.P,R4,2*%
%TO.N,Net-(J6-D9)*%
X144840000Y-146500000D03*
%TD*%
D14*
%TO.P,Q11,1,C*%
%TO.N,Net-(D11-A)*%
X119835000Y-113800000D03*
%TO.P,Q11,2,B*%
%TO.N,Net-(Q11-B)*%
X119835000Y-116400000D03*
%TO.P,Q11,3,E*%
%TO.N,Net-(J1-GND)*%
X119835000Y-119000000D03*
%TD*%
D11*
%TO.P,J6,1,VIN*%
%TO.N,Net-(D1-K)*%
X184050000Y-117950000D03*
D24*
%TO.P,J6,2,GND*%
%TO.N,Net-(J1-GND)*%
X184050000Y-120490000D03*
D11*
%TO.P,J6,3,RST*%
%TO.N,unconnected-(J6-RST-Pad3)*%
X184050000Y-123030000D03*
%TO.P,J6,4,5V*%
%TO.N,unconnected-(J6-5V-Pad4)*%
X184050000Y-125570000D03*
%TO.P,J6,5,A7*%
%TO.N,Net-(J2-PP_BTN)*%
X184050000Y-128110000D03*
%TO.P,J6,6,A6*%
%TO.N,Net-(J3-BTN6)*%
X184050000Y-130650000D03*
%TO.P,J6,7,A5*%
%TO.N,Net-(J3-BTN5)*%
X184050000Y-133190000D03*
%TO.P,J6,8,A4*%
%TO.N,Net-(J3-BTN4)*%
X184050000Y-135730000D03*
%TO.P,J6,9,A3*%
%TO.N,Net-(J3-BTN3)*%
X184050000Y-138270000D03*
%TO.P,J6,10,A2*%
%TO.N,Net-(J3-BTN2)*%
X184050000Y-140810000D03*
%TO.P,J6,11,A1*%
%TO.N,Net-(J3-BTN1)*%
X184050000Y-143350000D03*
%TO.P,J6,12,A0*%
%TO.N,Net-(J6-A0)*%
X184050000Y-145890000D03*
%TO.P,J6,13,REF*%
%TO.N,unconnected-(J6-REF-Pad13)*%
X184050000Y-148430000D03*
%TO.P,J6,14,3.3V*%
%TO.N,unconnected-(J6-3.3V-Pad14)*%
X184050000Y-150970000D03*
%TO.P,J6,15,D13*%
%TO.N,Net-(J6-D13)*%
X184050000Y-153510000D03*
%TO.P,J6,16,TX1*%
%TO.N,Net-(J2-FWD_BTN)*%
X168810000Y-117950000D03*
%TO.P,J6,17,RX0*%
%TO.N,Net-(J2-REW_BTN)*%
X168810000Y-120490000D03*
%TO.P,J6,18,RST*%
%TO.N,unconnected-(J6-RST-Pad18)*%
X168810000Y-123030000D03*
D24*
%TO.P,J6,19,GND*%
%TO.N,Net-(J1-GND)*%
X168810000Y-125570000D03*
D11*
%TO.P,J6,20,D2*%
%TO.N,Net-(J6-D2)*%
X168810000Y-128110000D03*
%TO.P,J6,21,D3*%
%TO.N,Net-(J6-D3)*%
X168810000Y-130650000D03*
%TO.P,J6,22,D4*%
%TO.N,Net-(J6-D4)*%
X168810000Y-133190000D03*
%TO.P,J6,23,D5*%
%TO.N,Net-(J6-D5)*%
X168810000Y-135730000D03*
%TO.P,J6,24,D6*%
%TO.N,Net-(J6-D6)*%
X168810000Y-138270000D03*
%TO.P,J6,25,D7*%
%TO.N,Net-(J6-D7)*%
X168810000Y-140810000D03*
%TO.P,J6,26,D8*%
%TO.N,Net-(J6-D8)*%
X168810000Y-143350000D03*
%TO.P,J6,27,D9*%
%TO.N,Net-(J6-D9)*%
X168810000Y-145890000D03*
%TO.P,J6,28,D10*%
%TO.N,Net-(J6-D10)*%
X168810000Y-148430000D03*
%TO.P,J6,29,D11*%
%TO.N,Net-(J6-D11)*%
X168810000Y-150970000D03*
%TO.P,J6,30,D12*%
%TO.N,Net-(J6-D12)*%
X168810000Y-153510000D03*
%TD*%
D15*
%TO.P,J2,0,PAD*%
%TO.N,Net-(J1-GND)*%
X198415000Y-144495000D03*
D17*
%TO.P,J2,1,1.8V_TRIG*%
X196995000Y-126455000D03*
D18*
%TO.P,J2,2,FWD_BTN*%
%TO.N,Net-(J2-FWD_BTN)*%
X196995000Y-129227000D03*
%TO.P,J2,3,REW_BTN*%
%TO.N,Net-(J2-REW_BTN)*%
X196995000Y-132000000D03*
%TO.P,J2,4,PP_BTN*%
%TO.N,Net-(J2-PP_BTN)*%
X196995000Y-134772000D03*
%TO.P,J2,5,NC*%
%TO.N,Net-(J6-A0)*%
X196995000Y-137545000D03*
%TO.P,J2,6,NC*%
%TO.N,unconnected-(J2-NC-Pad6)*%
X199835000Y-127841000D03*
%TO.P,J2,7,5V*%
%TO.N,unconnected-(J2-5V-Pad7)*%
X199835000Y-130614000D03*
%TO.P,J2,8,12V*%
%TO.N,unconnected-(J2-12V-Pad8)*%
X199835000Y-133386000D03*
%TO.P,J2,9,GND*%
%TO.N,unconnected-(J2-GND-Pad9)*%
X199835000Y-136159000D03*
D15*
%TO.P,J2,MH1*%
%TO.N,N/C*%
X198415000Y-119505000D03*
%TD*%
D14*
%TO.P,Q4,1,C*%
%TO.N,Net-(D4-A)*%
X158835000Y-69300000D03*
%TO.P,Q4,2,B*%
%TO.N,Net-(Q4-B)*%
X158835000Y-71900000D03*
%TO.P,Q4,3,E*%
%TO.N,Net-(J1-GND)*%
X158835000Y-74500000D03*
%TD*%
D25*
%TO.P,J4,1,GND*%
%TO.N,Net-(J1-GND)*%
X88670000Y-125000000D03*
D26*
%TO.P,J4,2,R*%
%TO.N,Net-(J3-SPK_R)*%
X93420000Y-129000000D03*
D27*
%TO.P,J4,3,GND*%
%TO.N,Net-(J1-GND)*%
X88670000Y-139000000D03*
D26*
%TO.P,J4,4,L*%
%TO.N,Net-(J3-SPK_L)*%
X93420000Y-143000000D03*
%TD*%
D12*
%TO.P,D8,1,K*%
%TO.N,Net-(D1-K)*%
X139420000Y-81580000D03*
D13*
%TO.P,D8,2,A*%
%TO.N,Net-(D8-A)*%
X139420000Y-71420000D03*
%TD*%
D28*
%TO.N,Net-(J1-GND)*%
X150250000Y-146500000D03*
X148750000Y-146500000D03*
X145590000Y-145000000D03*
X144000000Y-145000000D03*
%TO.N,Net-(D1-K)*%
X186530331Y-115969669D03*
X184291892Y-48507446D03*
X184105331Y-114105331D03*
X186469669Y-119030331D03*
X182000000Y-114000000D03*
X185265331Y-49655331D03*
%TO.N,Net-(J1-REW_BTN)*%
X165721052Y-94320390D03*
X191099997Y-73750000D03*
X161500000Y-113330000D03*
X174041729Y-85791729D03*
X177570331Y-82429669D03*
X191099997Y-75500000D03*
X161500000Y-111830000D03*
X164667756Y-95388418D03*
%TO.N,Net-(J1-GND)*%
X168987169Y-48487169D03*
X163389669Y-94110331D03*
X161969669Y-127969669D03*
X182000000Y-117250000D03*
X171047831Y-48547831D03*
X182000000Y-115150000D03*
X162350000Y-132500000D03*
X164500000Y-93000000D03*
X162349052Y-140290286D03*
X160250000Y-145500000D03*
%TO.N,Net-(J1-PP_BTN)*%
X164026067Y-94746729D03*
X192000000Y-75500000D03*
X191000000Y-82250000D03*
X192000000Y-73750000D03*
X152000000Y-103000000D03*
X183209714Y-84349052D03*
X150440000Y-103000000D03*
X165136398Y-93636398D03*
X189000000Y-84350000D03*
X181000000Y-85000000D03*
%TO.N,Net-(J1-1.8V_TRIG)*%
X151000000Y-115250000D03*
X189299991Y-75500000D03*
X180000000Y-85750000D03*
X151000000Y-89750000D03*
X158170000Y-106000000D03*
X151000000Y-113750000D03*
X162250000Y-106000000D03*
X175000000Y-106000000D03*
X176670000Y-106019883D03*
X189299991Y-73750000D03*
X180000000Y-77650000D03*
X151000000Y-91250000D03*
%TO.N,Net-(J1-FWD_BTN)*%
X174250000Y-78500000D03*
X190199994Y-75500000D03*
X172750000Y-78500000D03*
X190199994Y-73750000D03*
%TO.N,Net-(J1-12V)*%
X112000000Y-110250000D03*
X186394186Y-49723524D03*
X119170000Y-129500000D03*
X120670000Y-129500000D03*
X143000000Y-62500000D03*
X180000000Y-48750000D03*
X110500000Y-101000000D03*
X119170000Y-74500000D03*
X120670000Y-102000000D03*
X178500000Y-50500000D03*
X119170000Y-102000000D03*
X143000000Y-60000000D03*
X120670000Y-74500000D03*
X112000000Y-111750000D03*
X183425613Y-48750000D03*
%TO.N,Net-(J2-FWD_BTN)*%
X189000000Y-119500000D03*
X189000000Y-121240000D03*
%TO.N,Net-(J2-REW_BTN)*%
X188000000Y-119740000D03*
X188000000Y-121240000D03*
%TO.N,Net-(J3-BTN6)*%
X179651655Y-153151655D03*
%TO.N,Net-(J3-SPK_R)*%
X86819669Y-92819669D03*
X86901753Y-94858909D03*
%TO.N,Net-(J3-SPK_L)*%
X87644669Y-91994669D03*
X87650865Y-94109797D03*
%TO.N,Net-(J3-BTN2)*%
X182030331Y-146530331D03*
%TO.N,Net-(J3-LED4)*%
X104969669Y-63969669D03*
X124500000Y-64129669D03*
X109553123Y-64053123D03*
X122469669Y-63969669D03*
%TO.N,Net-(J3-LED1)*%
X102650000Y-121500000D03*
X86000000Y-93500000D03*
X86250000Y-99000000D03*
X111440000Y-121500000D03*
X104750000Y-121500000D03*
X88400865Y-99000000D03*
X113000000Y-121500000D03*
X86130331Y-95630331D03*
%TO.N,Net-(J3-B+TAP)*%
X98750000Y-71500000D03*
X100850000Y-71500000D03*
X148530331Y-60030331D03*
X159080331Y-60080331D03*
X157000000Y-60000000D03*
X140500000Y-60000000D03*
%TO.N,Net-(J3-LED2)*%
X113000000Y-93500000D03*
%TO.N,Net-(J3-LED3)*%
X107860000Y-71000000D03*
X101000000Y-76000000D03*
X98750000Y-75889666D03*
X106360000Y-71000000D03*
%TO.N,Net-(J3-B+RAD)*%
X143750000Y-59000000D03*
X98750000Y-74500000D03*
X141339669Y-60660331D03*
X101000000Y-74500000D03*
%TO.N,Net-(J3-BTN4)*%
X180840993Y-149840993D03*
%TO.N,Net-(J3-BTN3)*%
X181310662Y-148310662D03*
%TO.N,Net-(J3-BTN5)*%
X180121324Y-151621324D03*
%TO.N,Net-(J3-B+)*%
X145150331Y-62349669D03*
X98750000Y-76789669D03*
X141879669Y-63379669D03*
X101000000Y-77000000D03*
%TO.N,Net-(J6-D4)*%
X149250000Y-123500000D03*
X163100000Y-133048741D03*
X140750000Y-90500000D03*
X142000000Y-115000000D03*
X142250000Y-90500000D03*
X153250000Y-123500000D03*
X144520331Y-115020331D03*
X158000000Y-130500000D03*
%TO.N,Net-(J6-D12)*%
X165304154Y-96024816D03*
X165000000Y-105250000D03*
X160929669Y-78070331D03*
X170500000Y-126320000D03*
X172930331Y-117430331D03*
X165000000Y-111830000D03*
X165000000Y-106750000D03*
X161000000Y-75000000D03*
X173000000Y-115150000D03*
X164606067Y-91833271D03*
X165000000Y-113330000D03*
X170500000Y-124820000D03*
%TO.N,Net-(J6-D5)*%
X165000000Y-137500000D03*
X160000000Y-152620003D03*
%TO.N,Net-(J6-D11)*%
X149500000Y-132250000D03*
X149500000Y-137500000D03*
X150099997Y-89750000D03*
X150000000Y-102000000D03*
X150000000Y-91250000D03*
X149500000Y-147250000D03*
X149500000Y-130500000D03*
X150000000Y-113750000D03*
X150000000Y-115250000D03*
X149500000Y-150750000D03*
X150030331Y-104030331D03*
X149500000Y-139500000D03*
%TO.N,Net-(J6-D10)*%
X148750000Y-144000000D03*
X144500000Y-136000000D03*
X144650331Y-133849669D03*
X161053123Y-150053123D03*
X157000000Y-145500000D03*
X150250000Y-144000000D03*
%TO.N,Net-(J6-D3)*%
X124000000Y-135830000D03*
X124000000Y-137330000D03*
X124000000Y-132160000D03*
X124000000Y-130660000D03*
%TO.N,Net-(J6-D8)*%
X164500000Y-141560000D03*
X159281500Y-139000000D03*
X142750000Y-126000000D03*
X145590000Y-126000000D03*
X149250000Y-126000000D03*
X153250000Y-126000000D03*
X155000000Y-134000000D03*
X155080331Y-136080331D03*
%TO.N,Net-(J6-D6)*%
X160000000Y-151720000D03*
X163500000Y-140000000D03*
%TO.N,Net-(J6-D13)*%
X156500000Y-46250000D03*
X158000000Y-44750000D03*
%TO.N,Net-(J6-D9)*%
X147500000Y-150000000D03*
X147500000Y-147250000D03*
%TO.N,Net-(J8-SPK_L)*%
X177500000Y-99500000D03*
X182000000Y-99500000D03*
%TO.N,Net-(J1-GND)*%
X123099997Y-130660000D03*
X122000000Y-109830000D03*
X123099997Y-137330000D03*
X122000000Y-102000000D03*
X123000000Y-145000000D03*
X123099997Y-132160000D03*
X124750000Y-121000000D03*
X126090000Y-145000000D03*
X122000000Y-104500000D03*
X123099997Y-135830000D03*
X122000000Y-108330000D03*
X123250000Y-121000000D03*
%TD*%
D29*
%TO.N,Net-(J1-GND)*%
X148750000Y-146500000D02*
X150250000Y-146500000D01*
X144000000Y-145000000D02*
X145590000Y-145000000D01*
%TO.N,Net-(D1-K)*%
X184000000Y-114000000D02*
X184105331Y-114105331D01*
X186530331Y-115969669D02*
X186530331Y-118969669D01*
X186530331Y-118969669D02*
X186469669Y-119030331D01*
X182000000Y-114000000D02*
X184000000Y-114000000D01*
X184291892Y-48681892D02*
X185265331Y-49655331D01*
X184291892Y-48507446D02*
X184291892Y-48681892D01*
%TO.N,Net-(J1-REW_BTN)*%
X177570331Y-82429669D02*
X174208271Y-85791729D01*
X191099997Y-75500000D02*
X191099997Y-73750000D01*
X174208271Y-85791729D02*
X174041729Y-85791729D01*
X165721052Y-94335122D02*
X164667756Y-95388418D01*
X165721052Y-94320390D02*
X165721052Y-94335122D01*
X161500000Y-111830000D02*
X161500000Y-113330000D01*
%TO.N,Net-(J1-GND)*%
X162350000Y-131850000D02*
X161969669Y-131469669D01*
X155000000Y-104000000D02*
X155000000Y-98500000D01*
X182000000Y-117250000D02*
X182000000Y-115150000D01*
X96680000Y-88240000D02*
X96680000Y-91180000D01*
X160250000Y-145500000D02*
X162349052Y-143400948D01*
X96680000Y-91180000D02*
X113000000Y-107500000D01*
X162349052Y-143400948D02*
X162349052Y-140290286D01*
X151500000Y-107500000D02*
X155000000Y-104000000D01*
X162350000Y-132500000D02*
X162350000Y-131850000D01*
X161969669Y-131469669D02*
X161969669Y-127969669D01*
X163389669Y-94110331D02*
X164500000Y-93000000D01*
X170987169Y-48487169D02*
X171047831Y-48547831D01*
X113000000Y-107500000D02*
X151500000Y-107500000D01*
X168987169Y-48487169D02*
X170987169Y-48487169D01*
%TO.N,Net-(J1-PP_BTN)*%
X191000000Y-82350000D02*
X189000000Y-84350000D01*
X192000000Y-75500000D02*
X192000000Y-73750000D01*
X165136398Y-93636398D02*
X164026067Y-94746729D01*
X152000000Y-103000000D02*
X150440000Y-103000000D01*
X191000000Y-82250000D02*
X191000000Y-82350000D01*
X183209714Y-84349052D02*
X181650948Y-84349052D01*
X181650948Y-84349052D02*
X181000000Y-85000000D01*
%TO.N,Net-(J1-1.8V_TRIG)*%
X189299991Y-73750000D02*
X189299991Y-75500000D01*
X151000000Y-113750000D02*
X151000000Y-115250000D01*
X176670000Y-106019883D02*
X175019883Y-106019883D01*
X175019883Y-106019883D02*
X175000000Y-106000000D01*
X180000000Y-77650000D02*
X180000000Y-85750000D01*
X162250000Y-106000000D02*
X158170000Y-106000000D01*
X151000000Y-89750000D02*
X151000000Y-91250000D01*
%TO.N,Net-(J1-FWD_BTN)*%
X190199994Y-75500000D02*
X190199994Y-73750000D01*
X172750000Y-78500000D02*
X174250000Y-78500000D01*
%TO.N,Net-(J1-12V)*%
X96680000Y-85480000D02*
X110500000Y-99300000D01*
X185617710Y-50500000D02*
X186394186Y-49723524D01*
X120670000Y-129500000D02*
X119170000Y-129500000D01*
X185049339Y-50500000D02*
X185617710Y-50500000D01*
X112000000Y-110250000D02*
X112000000Y-111750000D01*
X110500000Y-99300000D02*
X110500000Y-101000000D01*
X183425613Y-48750000D02*
X183425613Y-48876274D01*
X178500000Y-50250000D02*
X180000000Y-48750000D01*
X143000000Y-62500000D02*
X143000000Y-60000000D01*
X183425613Y-48876274D02*
X185049339Y-50500000D01*
X178500000Y-50500000D02*
X178500000Y-50250000D01*
X120670000Y-102000000D02*
X119170000Y-102000000D01*
X120670000Y-74500000D02*
X119170000Y-74500000D01*
%TO.N,Net-(J2-FWD_BTN)*%
X189000000Y-119500000D02*
X189000000Y-121240000D01*
%TO.N,Net-(J2-REW_BTN)*%
X188000000Y-119740000D02*
X188000000Y-121240000D01*
%TO.N,Net-(J3-BTN6)*%
X96680000Y-55120000D02*
X90880000Y-55120000D01*
X176303310Y-156500000D02*
X179651655Y-153151655D01*
X88400000Y-57600000D02*
X90880000Y-55120000D01*
X103500000Y-156500000D02*
X176303310Y-156500000D01*
X88400000Y-97642640D02*
X96500000Y-105742640D01*
X96500000Y-149500000D02*
X103500000Y-156500000D01*
X96500000Y-105742640D02*
X96500000Y-149500000D01*
X88400000Y-57600000D02*
X88400000Y-97642640D01*
%TO.N,Net-(J3-SPK_R)*%
X86819669Y-94776825D02*
X86901753Y-94858909D01*
X86819669Y-92819669D02*
X86819669Y-94776825D01*
%TO.N,Net-(J3-SPK_L)*%
X87644669Y-94103601D02*
X87650865Y-94109797D01*
X87644669Y-91994669D02*
X87644669Y-94103601D01*
%TO.N,Net-(J3-BTN2)*%
X104494112Y-154100000D02*
X163912233Y-154100000D01*
X96680000Y-66160000D02*
X92840000Y-66160000D01*
X178840662Y-149720000D02*
X182030331Y-146530331D01*
X98900000Y-104748528D02*
X98900000Y-148505888D01*
X90800000Y-68200000D02*
X90800000Y-96648528D01*
X98900000Y-148505888D02*
X104494112Y-154100000D01*
X90800000Y-96648528D02*
X98900000Y-104748528D01*
X168292233Y-149720000D02*
X178840662Y-149720000D01*
X163912233Y-154100000D02*
X168292233Y-149720000D01*
X90800000Y-68200000D02*
X92840000Y-66160000D01*
%TO.N,Net-(J3-LED4)*%
X122629669Y-64129669D02*
X122469669Y-63969669D01*
X109553123Y-64053123D02*
X105053123Y-64053123D01*
X124500000Y-64129669D02*
X122629669Y-64129669D01*
X105053123Y-64053123D02*
X104969669Y-63969669D01*
%TO.N,Net-(J3-LED5)*%
X132000000Y-96500000D02*
X135500000Y-96500000D01*
X106548528Y-94500000D02*
X130000000Y-94500000D01*
X101024264Y-85367207D02*
X101024264Y-88975736D01*
X101024264Y-88975736D02*
X106548528Y-94500000D01*
X96997057Y-81340000D02*
X101024264Y-85367207D01*
X93840000Y-81340000D02*
X96997057Y-81340000D01*
X130000000Y-94500000D02*
X132000000Y-96500000D01*
%TO.N,Net-(J3-LED1)*%
X104750000Y-121500000D02*
X102650000Y-121500000D01*
X86250000Y-99000000D02*
X88400865Y-99000000D01*
X113000000Y-121500000D02*
X111440000Y-121500000D01*
X86000000Y-93500000D02*
X86000000Y-95500000D01*
X86000000Y-95500000D02*
X86130331Y-95630331D01*
%TO.N,Net-(J3-B+TAP)*%
X98750000Y-71500000D02*
X100850000Y-71500000D01*
X142250000Y-58250000D02*
X146750000Y-58250000D01*
X157000000Y-60000000D02*
X159000000Y-60000000D01*
X140500000Y-60000000D02*
X142250000Y-58250000D01*
X146750000Y-58250000D02*
X148530331Y-60030331D01*
X159000000Y-60000000D02*
X159080331Y-60080331D01*
%TO.N,Net-(J3-LED2)*%
X97177057Y-76000000D02*
X97880000Y-76702943D01*
X96182943Y-76000000D02*
X97177057Y-76000000D01*
X97880000Y-77697057D02*
X98804824Y-77697057D01*
X113000000Y-91892233D02*
X113000000Y-93500000D01*
X97880000Y-76702943D02*
X97880000Y-77697057D01*
X93840000Y-73657057D02*
X96182943Y-76000000D01*
X98804824Y-77697057D02*
X113000000Y-91892233D01*
%TO.N,Net-(J3-LED6)*%
X115842893Y-111500000D02*
X121500000Y-111500000D01*
X122500000Y-115000000D02*
X124000000Y-116500000D01*
X92000000Y-88000000D02*
X93440000Y-89440000D01*
X96000000Y-91000000D02*
X96000000Y-91657107D01*
X128000000Y-116500000D02*
X135500000Y-124000000D01*
X96000000Y-91657107D02*
X115842893Y-111500000D01*
X122500000Y-112500000D02*
X122500000Y-115000000D01*
X93440000Y-89440000D02*
X94440000Y-89440000D01*
X93840000Y-84100000D02*
X92000000Y-85940000D01*
X94440000Y-89440000D02*
X96000000Y-91000000D01*
X124000000Y-116500000D02*
X128000000Y-116500000D01*
X92000000Y-85940000D02*
X92000000Y-88000000D01*
X121500000Y-111500000D02*
X122500000Y-112500000D01*
%TO.N,Net-(J3-LED3)*%
X98750000Y-75889666D02*
X100889666Y-75889666D01*
X100889666Y-75889666D02*
X101000000Y-76000000D01*
X106360000Y-71000000D02*
X107860000Y-71000000D01*
%TO.N,Net-(J3-B+RAD)*%
X98750000Y-74500000D02*
X101000000Y-74500000D01*
X141339669Y-60599670D02*
X142939339Y-59000000D01*
X141339669Y-60660331D02*
X141339669Y-60599670D01*
X142939339Y-59000000D02*
X143750000Y-59000000D01*
%TO.N,Net-(J3-BTN4)*%
X103997056Y-155300000D02*
X175381986Y-155300000D01*
X89600000Y-62400000D02*
X91360000Y-60640000D01*
X175381986Y-155300000D02*
X180840993Y-149840993D01*
X96680000Y-60640000D02*
X91360000Y-60640000D01*
X97700000Y-105245584D02*
X97700000Y-149002944D01*
X97700000Y-149002944D02*
X103997056Y-155300000D01*
X89600000Y-97145584D02*
X97700000Y-105245584D01*
X89600000Y-62400000D02*
X89600000Y-97145584D01*
%TO.N,Net-(J3-BTN3)*%
X90200000Y-65300000D02*
X92100000Y-63400000D01*
X96680000Y-63400000D02*
X92100000Y-63400000D01*
X165852233Y-154700000D02*
X168292233Y-152260000D01*
X98300000Y-104997056D02*
X98300000Y-148754416D01*
X104245584Y-154700000D02*
X165852233Y-154700000D01*
X177361324Y-152260000D02*
X181310662Y-148310662D01*
X90200000Y-96897056D02*
X98300000Y-104997056D01*
X90200000Y-65300000D02*
X90200000Y-96897056D01*
X168292233Y-152260000D02*
X177361324Y-152260000D01*
X98300000Y-148754416D02*
X104245584Y-154700000D01*
%TO.N,Net-(J3-BTN1)*%
X161972233Y-153500000D02*
X168292233Y-147180000D01*
X181500000Y-146000000D02*
X181500000Y-145900000D01*
X96680000Y-68920000D02*
X93522943Y-68920000D01*
X180320000Y-147180000D02*
X181500000Y-146000000D01*
X104742640Y-153500000D02*
X161972233Y-153500000D01*
X99500000Y-104500000D02*
X99500000Y-148257360D01*
X168292233Y-147180000D02*
X180320000Y-147180000D01*
X181500000Y-145900000D02*
X184050000Y-143350000D01*
X91400000Y-96400000D02*
X99500000Y-104500000D01*
X93522943Y-68920000D02*
X91400000Y-71042943D01*
X91400000Y-71042943D02*
X91400000Y-96400000D01*
X99500000Y-148257360D02*
X104742640Y-153500000D01*
%TO.N,Net-(J3-BTN5)*%
X89000000Y-60000000D02*
X89000000Y-97394112D01*
X97100000Y-149251472D02*
X103748528Y-155900000D01*
X175842648Y-155900000D02*
X180121324Y-151621324D01*
X89000000Y-60000000D02*
X91120000Y-57880000D01*
X103748528Y-155900000D02*
X175842648Y-155900000D01*
X89000000Y-97394112D02*
X97100000Y-105494112D01*
X97100000Y-105494112D02*
X97100000Y-149251472D01*
X96680000Y-57880000D02*
X91120000Y-57880000D01*
%TO.N,Net-(J3-B+)*%
X100789669Y-76789669D02*
X101000000Y-77000000D01*
X144120331Y-63379669D02*
X145150331Y-62349669D01*
X98750000Y-76789669D02*
X100789669Y-76789669D01*
X141879669Y-63379669D02*
X144120331Y-63379669D01*
%TO.N,Net-(J6-D4)*%
X149250000Y-123500000D02*
X153250000Y-123500000D01*
X160750000Y-133250000D02*
X158000000Y-130500000D01*
X144520331Y-115020331D02*
X142020331Y-115020331D01*
X163100000Y-133048741D02*
X162898741Y-133250000D01*
X142020331Y-115020331D02*
X142000000Y-115000000D01*
X142250000Y-90500000D02*
X140750000Y-90500000D01*
X162898741Y-133250000D02*
X160750000Y-133250000D01*
%TO.N,Net-(J6-D12)*%
X165000000Y-113330000D02*
X165000000Y-111830000D01*
X166657869Y-93885073D02*
X164606067Y-91833271D01*
X170500000Y-126320000D02*
X170500000Y-124820000D01*
X172930331Y-115219669D02*
X173000000Y-115150000D01*
X160929669Y-78070331D02*
X160929669Y-75070331D01*
X165304154Y-96024816D02*
X166657869Y-94671101D01*
X165000000Y-106750000D02*
X165000000Y-105250000D01*
X166657869Y-94671101D02*
X166657869Y-93885073D01*
X160929669Y-75070331D02*
X161000000Y-75000000D01*
X172930331Y-117430331D02*
X172930331Y-115219669D01*
%TO.N,Net-(J6-D5)*%
X160395432Y-152620003D02*
X160000000Y-152620003D01*
X165000000Y-137500000D02*
X165250000Y-137750000D01*
X165250000Y-137750000D02*
X165250000Y-147765435D01*
X165250000Y-147765435D02*
X160395432Y-152620003D01*
%TO.N,Net-(J6-D11)*%
X149500000Y-130500000D02*
X149500000Y-132250000D01*
X150000000Y-113750000D02*
X150000000Y-115250000D01*
X150099997Y-89750000D02*
X150099997Y-91150003D01*
X149500000Y-137500000D02*
X149500000Y-139500000D01*
X150099997Y-91150003D02*
X150000000Y-91250000D01*
X149690000Y-102689339D02*
X149690000Y-103690000D01*
X150000000Y-102379339D02*
X149690000Y-102689339D01*
X149500000Y-147250000D02*
X149500000Y-150750000D01*
X150000000Y-102000000D02*
X150000000Y-102379339D01*
X149690000Y-103690000D02*
X150030331Y-104030331D01*
%TO.N,Net-(J6-D10)*%
X159000000Y-150000000D02*
X157000000Y-148000000D01*
X144500000Y-134000000D02*
X144650331Y-133849669D01*
X150250000Y-144000000D02*
X148750000Y-144000000D01*
X160500000Y-150000000D02*
X159000000Y-150000000D01*
X157000000Y-148000000D02*
X157000000Y-145500000D01*
X160553123Y-150053123D02*
X160500000Y-150000000D01*
X144500000Y-136000000D02*
X144500000Y-134000000D01*
X161053123Y-150053123D02*
X160553123Y-150053123D01*
%TO.N,Net-(J6-D3)*%
X124000000Y-132160000D02*
X124000000Y-130660000D01*
X124000000Y-137330000D02*
X124000000Y-135830000D01*
%TO.N,Net-(J6-D8)*%
X153250000Y-126000000D02*
X149250000Y-126000000D01*
X145590000Y-126000000D02*
X142750000Y-126000000D01*
X155080331Y-136080331D02*
X155080331Y-134080331D01*
X163560661Y-139000000D02*
X159281500Y-139000000D01*
X164500000Y-141560000D02*
X164500000Y-139939339D01*
X164500000Y-139939339D02*
X163560661Y-139000000D01*
X155080331Y-134080331D02*
X155000000Y-134000000D01*
%TO.N,Net-(J6-D6)*%
X160446907Y-151720000D02*
X160000000Y-151720000D01*
X163500000Y-140000000D02*
X163500000Y-148666907D01*
X163500000Y-148666907D02*
X160446907Y-151720000D01*
%TO.N,Net-(J6-D13)*%
X156500000Y-46250000D02*
X158000000Y-44750000D01*
%TO.N,Net-(J6-D9)*%
X147500000Y-150000000D02*
X147500000Y-147250000D01*
%TO.N,Net-(J8-SPK_R)*%
X179920000Y-96420000D02*
X179920000Y-109500000D01*
X167500000Y-68000000D02*
X167500000Y-84000000D01*
X144607767Y-67500000D02*
X167000000Y-67500000D01*
X167000000Y-67500000D02*
X167500000Y-68000000D01*
X128357767Y-51250000D02*
X144607767Y-67500000D01*
X167500000Y-84000000D02*
X179920000Y-96420000D01*
%TO.N,Net-(J8-SPK_L)*%
X181920000Y-99580000D02*
X181920000Y-109500000D01*
X157000000Y-72500000D02*
X157000000Y-81000000D01*
X175500000Y-99500000D02*
X177500000Y-99500000D01*
X182000000Y-99500000D02*
X181920000Y-99580000D01*
X140500000Y-69000000D02*
X143500000Y-72000000D01*
X143500000Y-72000000D02*
X156500000Y-72000000D01*
X156500000Y-72000000D02*
X157000000Y-72500000D01*
X138470000Y-69000000D02*
X140500000Y-69000000D01*
X128220000Y-58750000D02*
X138470000Y-69000000D01*
X157000000Y-81000000D02*
X175500000Y-99500000D01*
%TO.N,Net-(J1-GND)*%
X123250000Y-121000000D02*
X124750000Y-121000000D01*
X123099997Y-137330000D02*
X123099997Y-135830000D01*
X123099997Y-132160000D02*
X123099997Y-130660000D01*
X122000000Y-104500000D02*
X122000000Y-102000000D01*
X123000000Y-145000000D02*
X126090000Y-145000000D01*
X122000000Y-109830000D02*
X122000000Y-108330000D01*
%TD*%
M02*
