%TF.GenerationSoftware,KiCad,Pcbnew,8.0.0*%
%TF.CreationDate,2024-02-27T23:40:29-08:00*%
%TF.ProjectId,honda radio,686f6e64-6120-4726-9164-696f2e6b6963,rev?*%
%TF.SameCoordinates,Original*%
%TF.FileFunction,Drillmap*%
%TF.FilePolarity,Positive*%
%FSLAX45Y45*%
G04 Gerber Fmt 4.5, Leading zero omitted, Abs format (unit mm)*
G04 Created by KiCad (PCBNEW 8.0.0) date 2024-02-27 23:40:29*
%MOMM*%
%LPD*%
G01*
G04 APERTURE LIST*
%ADD10C,0.050000*%
%ADD11C,0.200000*%
%ADD12C,0.100000*%
%ADD13C,0.310000*%
%ADD14C,0.320000*%
G04 APERTURE END LIST*
D10*
X8050000Y-4350000D02*
X14900000Y-4350000D01*
X14900000Y-17700000D01*
X8050000Y-17700000D01*
X8050000Y-4350000D01*
D11*
D12*
X8585000Y-13585000D02*
X8615000Y-13615000D01*
X8615000Y-13585000D02*
X8585000Y-13615000D01*
X8585000Y-14385000D02*
X8615000Y-14415000D01*
X8615000Y-14385000D02*
X8585000Y-14415000D01*
X8785000Y-13585000D02*
X8815000Y-13615000D01*
X8815000Y-13585000D02*
X8785000Y-13615000D01*
X8785000Y-14385000D02*
X8815000Y-14415000D01*
X8815000Y-14385000D02*
X8785000Y-14415000D01*
X9585000Y-6835000D02*
X9615000Y-6865000D01*
X9615000Y-6835000D02*
X9585000Y-6865000D01*
X9585000Y-7135000D02*
X9615000Y-7165000D01*
X9615000Y-7135000D02*
X9585000Y-7165000D01*
X9804999Y-8575000D02*
X9834999Y-8605000D01*
X9834999Y-8575000D02*
X9804999Y-8605000D01*
X9804999Y-8945000D02*
X9834999Y-8975000D01*
X9834999Y-8945000D02*
X9804999Y-8975000D01*
X9895000Y-8575000D02*
X9925000Y-8605000D01*
X9925000Y-8575000D02*
X9895000Y-8605000D01*
X9895000Y-8945000D02*
X9925000Y-8975000D01*
X9925000Y-8945000D02*
X9895000Y-8975000D01*
X9935000Y-7485000D02*
X9965000Y-7515000D01*
X9965000Y-7485000D02*
X9935000Y-7515000D01*
X9985000Y-8575000D02*
X10015000Y-8605000D01*
X10015000Y-8575000D02*
X9985000Y-8605000D01*
X9985000Y-8945000D02*
X10015000Y-8975000D01*
X10015000Y-8945000D02*
X9985000Y-8975000D01*
X10035000Y-7485000D02*
X10065000Y-7515000D01*
X10065000Y-7485000D02*
X10035000Y-7515000D01*
X10435000Y-9485000D02*
X10465000Y-9515000D01*
X10465000Y-9485000D02*
X10435000Y-9515000D01*
X10435000Y-9585000D02*
X10465000Y-9615000D01*
X10465000Y-9585000D02*
X10435000Y-9615000D01*
X10435000Y-9685000D02*
X10465000Y-9715000D01*
X10465000Y-9685000D02*
X10435000Y-9715000D01*
X10435000Y-11815000D02*
X10465000Y-11845000D01*
X10465000Y-11815000D02*
X10435000Y-11845000D01*
X10435000Y-12205000D02*
X10465000Y-12235000D01*
X10465000Y-12205000D02*
X10435000Y-12235000D01*
X10525000Y-11815000D02*
X10555000Y-11845000D01*
X10555000Y-11815000D02*
X10525000Y-11845000D01*
X10535000Y-12205000D02*
X10565000Y-12235000D01*
X10565000Y-12205000D02*
X10535000Y-12235000D01*
X10615001Y-11815000D02*
X10645001Y-11845000D01*
X10645001Y-11815000D02*
X10615001Y-11845000D01*
X10625000Y-12205000D02*
X10655000Y-12235000D01*
X10655000Y-12205000D02*
X10625000Y-12235000D01*
X10705001Y-11815000D02*
X10735001Y-11845000D01*
X10735001Y-11815000D02*
X10705001Y-11845000D01*
X10715001Y-12205000D02*
X10745001Y-12235000D01*
X10745001Y-12205000D02*
X10715001Y-12235000D01*
X10795001Y-11815000D02*
X10825001Y-11845000D01*
X10825001Y-11815000D02*
X10795001Y-11845000D01*
X10805001Y-12205000D02*
X10835001Y-12235000D01*
X10835001Y-12205000D02*
X10805001Y-12235000D01*
X10885000Y-11815000D02*
X10915000Y-11845000D01*
X10915000Y-11815000D02*
X10885000Y-11845000D01*
X10895001Y-12205000D02*
X10925001Y-12235000D01*
X10925001Y-12205000D02*
X10895001Y-12235000D01*
X11167000Y-9485000D02*
X11197000Y-9515000D01*
X11197000Y-9485000D02*
X11167000Y-9515000D01*
X11167000Y-9585000D02*
X11197000Y-9615000D01*
X11197000Y-9585000D02*
X11167000Y-9615000D01*
X11167000Y-9685000D02*
X11197000Y-9715000D01*
X11197000Y-9685000D02*
X11167000Y-9715000D01*
X11685000Y-11965000D02*
X11715000Y-11995000D01*
X11715000Y-11965000D02*
X11685000Y-11995000D01*
X11765000Y-11815000D02*
X11795000Y-11845000D01*
X11795000Y-11815000D02*
X11765000Y-11845000D01*
X11785000Y-9685000D02*
X11815000Y-9715000D01*
X11815000Y-9685000D02*
X11785000Y-9715000D01*
X11885000Y-9585000D02*
X11915000Y-9615000D01*
X11915000Y-9585000D02*
X11885000Y-9615000D01*
X11885000Y-11985000D02*
X11915000Y-12015000D01*
X11915000Y-11985000D02*
X11885000Y-12015000D01*
X11948224Y-11915045D02*
X11978224Y-11945045D01*
X11978224Y-11915045D02*
X11948224Y-11945045D01*
X11985000Y-9485000D02*
X12015000Y-9515000D01*
X12015000Y-9485000D02*
X11985000Y-9515000D01*
X12335000Y-10385000D02*
X12365000Y-10415000D01*
X12365000Y-10385000D02*
X12335000Y-10415000D01*
X12335000Y-11535000D02*
X12365000Y-11565000D01*
X12365000Y-11535000D02*
X12335000Y-11565000D01*
X12835000Y-13885000D02*
X12865000Y-13915000D01*
X12865000Y-13885000D02*
X12835000Y-13915000D01*
X12835000Y-15735000D02*
X12865000Y-15765000D01*
X12865000Y-15735000D02*
X12835000Y-15765000D01*
X12932218Y-9632218D02*
X12962218Y-9662218D01*
X12962218Y-9632218D02*
X12932218Y-9662218D01*
X13035000Y-13735000D02*
X13065000Y-13765000D01*
X13065000Y-13735000D02*
X13035000Y-13765000D01*
X13035000Y-15035000D02*
X13065000Y-15065000D01*
X13065000Y-15035000D02*
X13035000Y-15065000D01*
X13115000Y-9835000D02*
X13145000Y-9865000D01*
X13145000Y-9835000D02*
X13115000Y-9865000D01*
X13165000Y-9745000D02*
X13195000Y-9775000D01*
X13195000Y-9745000D02*
X13165000Y-9775000D01*
X13165000Y-12035000D02*
X13195000Y-12065000D01*
X13195000Y-12035000D02*
X13165000Y-12065000D01*
X13165000Y-12135000D02*
X13195000Y-12165000D01*
X13195000Y-12135000D02*
X13165000Y-12165000D01*
X13165000Y-12995000D02*
X13195000Y-13025000D01*
X13195000Y-12995000D02*
X13165000Y-13025000D01*
X13165000Y-13085000D02*
X13195000Y-13115000D01*
X13195000Y-13085000D02*
X13165000Y-13115000D01*
X13305000Y-9745000D02*
X13335000Y-9775000D01*
X13335000Y-9745000D02*
X13305000Y-9775000D01*
X13320502Y-10356503D02*
X13350502Y-10386503D01*
X13350502Y-10356503D02*
X13320502Y-10386503D01*
X13420502Y-11556502D02*
X13450502Y-11586502D01*
X13450502Y-11556502D02*
X13420502Y-11586502D01*
X13485000Y-11485000D02*
X13515000Y-11515000D01*
X13515000Y-11485000D02*
X13485000Y-11515000D01*
X13505000Y-12135000D02*
X13535000Y-12165000D01*
X13535000Y-12135000D02*
X13505000Y-12165000D01*
X13555000Y-12985000D02*
X13585000Y-13015000D01*
X13585000Y-12985000D02*
X13555000Y-13015000D01*
X13555000Y-13085000D02*
X13585000Y-13115000D01*
X13585000Y-13085000D02*
X13555000Y-13115000D01*
X13685000Y-13735000D02*
X13715000Y-13765000D01*
X13715000Y-13735000D02*
X13685000Y-13765000D01*
X13685000Y-15035000D02*
X13715000Y-15065000D01*
X13715000Y-15035000D02*
X13685000Y-15065000D01*
X13865000Y-7735000D02*
X13895000Y-7765000D01*
X13895000Y-7735000D02*
X13865000Y-7765000D01*
X14005000Y-7735000D02*
X14035000Y-7765000D01*
X14035000Y-7735000D02*
X14005000Y-7765000D01*
X14035000Y-15535000D02*
X14065000Y-15565000D01*
X14065000Y-15535000D02*
X14035000Y-15565000D01*
X14105000Y-14185000D02*
X14135000Y-14215000D01*
X14135000Y-14185000D02*
X14105000Y-14215000D01*
X14175000Y-13585000D02*
X14205000Y-13615000D01*
X14205000Y-13585000D02*
X14175000Y-13615000D01*
X8621906Y-9208094D02*
G75*
G02*
X8561906Y-9208094I-30000J0D01*
G01*
X8561906Y-9208094D02*
G75*
G02*
X8621906Y-9208094I30000J0D01*
G01*
X8630000Y-9400000D02*
G75*
G02*
X8570000Y-9400000I-30000J0D01*
G01*
X8570000Y-9400000D02*
G75*
G02*
X8630000Y-9400000I30000J0D01*
G01*
X8830000Y-12750000D02*
G75*
G02*
X8770000Y-12750000I-30000J0D01*
G01*
X8770000Y-12750000D02*
G75*
G02*
X8830000Y-12750000I30000J0D01*
G01*
X8830000Y-13000000D02*
G75*
G02*
X8770000Y-13000000I-30000J0D01*
G01*
X8770000Y-13000000D02*
G75*
G02*
X8830000Y-13000000I30000J0D01*
G01*
X9830000Y-7600000D02*
G75*
G02*
X9770000Y-7600000I-30000J0D01*
G01*
X9770000Y-7600000D02*
G75*
G02*
X9830000Y-7600000I30000J0D01*
G01*
X10130000Y-7600000D02*
G75*
G02*
X10070000Y-7600000I-30000J0D01*
G01*
X10070000Y-7600000D02*
G75*
G02*
X10130000Y-7600000I30000J0D01*
G01*
X10680000Y-8900000D02*
G75*
G02*
X10620000Y-8900000I-30000J0D01*
G01*
X10620000Y-8900000D02*
G75*
G02*
X10680000Y-8900000I30000J0D01*
G01*
X10680000Y-9060000D02*
G75*
G02*
X10620000Y-9060000I-30000J0D01*
G01*
X10620000Y-9060000D02*
G75*
G02*
X10680000Y-9060000I30000J0D01*
G01*
X10993000Y-8900000D02*
G75*
G02*
X10933000Y-8900000I-30000J0D01*
G01*
X10933000Y-8900000D02*
G75*
G02*
X10993000Y-8900000I30000J0D01*
G01*
X11280000Y-11400000D02*
G75*
G02*
X11220000Y-11400000I-30000J0D01*
G01*
X11220000Y-11400000D02*
G75*
G02*
X11280000Y-11400000I30000J0D01*
G01*
X11480000Y-11600000D02*
G75*
G02*
X11420000Y-11600000I-30000J0D01*
G01*
X11420000Y-11600000D02*
G75*
G02*
X11480000Y-11600000I30000J0D01*
G01*
X12680000Y-7700000D02*
G75*
G02*
X12620000Y-7700000I-30000J0D01*
G01*
X12620000Y-7700000D02*
G75*
G02*
X12680000Y-7700000I30000J0D01*
G01*
X12680000Y-11700000D02*
G75*
G02*
X12620000Y-11700000I-30000J0D01*
G01*
X12620000Y-11700000D02*
G75*
G02*
X12680000Y-11700000I30000J0D01*
G01*
X13130000Y-9650000D02*
G75*
G02*
X13070000Y-9650000I-30000J0D01*
G01*
X13070000Y-9650000D02*
G75*
G02*
X13130000Y-9650000I30000J0D01*
G01*
X13280000Y-8400000D02*
G75*
G02*
X13220000Y-8400000I-30000J0D01*
G01*
X13220000Y-8400000D02*
G75*
G02*
X13280000Y-8400000I30000J0D01*
G01*
X13362541Y-9032541D02*
G75*
G02*
X13302541Y-9032541I-30000J0D01*
G01*
X13302541Y-9032541D02*
G75*
G02*
X13362541Y-9032541I30000J0D01*
G01*
X13430000Y-5650000D02*
G75*
G02*
X13370000Y-5650000I-30000J0D01*
G01*
X13370000Y-5650000D02*
G75*
G02*
X13430000Y-5650000I30000J0D01*
G01*
X13630000Y-5650000D02*
G75*
G02*
X13570000Y-5650000I-30000J0D01*
G01*
X13570000Y-5650000D02*
G75*
G02*
X13630000Y-5650000I30000J0D01*
G01*
X13630000Y-7300000D02*
G75*
G02*
X13570000Y-7300000I-30000J0D01*
G01*
X13570000Y-7300000D02*
G75*
G02*
X13630000Y-7300000I30000J0D01*
G01*
X14230000Y-7300000D02*
G75*
G02*
X14170000Y-7300000I-30000J0D01*
G01*
X14170000Y-7300000D02*
G75*
G02*
X14230000Y-7300000I30000J0D01*
G01*
X14430000Y-9650000D02*
G75*
G02*
X14370000Y-9650000I-30000J0D01*
G01*
X14370000Y-9650000D02*
G75*
G02*
X14430000Y-9650000I30000J0D01*
G01*
X14480000Y-9050000D02*
G75*
G02*
X14420000Y-9050000I-30000J0D01*
G01*
X14420000Y-9050000D02*
G75*
G02*
X14480000Y-9050000I30000J0D01*
G01*
X14580000Y-5800000D02*
G75*
G02*
X14520000Y-5800000I-30000J0D01*
G01*
X14520000Y-5800000D02*
G75*
G02*
X14580000Y-5800000I30000J0D01*
G01*
X10950000Y-6260000D02*
X10950000Y-6340000D01*
X10910000Y-6300000D02*
X10990000Y-6300000D01*
X10950000Y-6460000D02*
X10950000Y-6540000D01*
X10910000Y-6500000D02*
X10990000Y-6500000D01*
X10950000Y-6660000D02*
X10950000Y-6740000D01*
X10910000Y-6700000D02*
X10990000Y-6700000D01*
X10950000Y-6860000D02*
X10950000Y-6940000D01*
X10910000Y-6900000D02*
X10990000Y-6900000D01*
X10950000Y-7060000D02*
X10950000Y-7140000D01*
X10910000Y-7100000D02*
X10990000Y-7100000D01*
X10950000Y-7260000D02*
X10950000Y-7340000D01*
X10910000Y-7300000D02*
X10990000Y-7300000D01*
X10950000Y-7460000D02*
X10950000Y-7540000D01*
X10910000Y-7500000D02*
X10990000Y-7500000D01*
X10950000Y-7660000D02*
X10950000Y-7740000D01*
X10910000Y-7700000D02*
X10990000Y-7700000D01*
X10950000Y-7860000D02*
X10950000Y-7940000D01*
X10910000Y-7900000D02*
X10990000Y-7900000D01*
X10950000Y-8060000D02*
X10950000Y-8140000D01*
X10910000Y-8100000D02*
X10990000Y-8100000D01*
X13050000Y-6260000D02*
X13050000Y-6340000D01*
X13010000Y-6300000D02*
X13090000Y-6300000D01*
X13050000Y-6460000D02*
X13050000Y-6540000D01*
X13010000Y-6500000D02*
X13090000Y-6500000D01*
X13050000Y-6660000D02*
X13050000Y-6740000D01*
X13010000Y-6700000D02*
X13090000Y-6700000D01*
X13050000Y-6860000D02*
X13050000Y-6940000D01*
X13010000Y-6900000D02*
X13090000Y-6900000D01*
X13050000Y-7060000D02*
X13050000Y-7140000D01*
X13010000Y-7100000D02*
X13090000Y-7100000D01*
X13050000Y-7260000D02*
X13050000Y-7340000D01*
X13010000Y-7300000D02*
X13090000Y-7300000D01*
X13050000Y-7460000D02*
X13050000Y-7540000D01*
X13010000Y-7500000D02*
X13090000Y-7500000D01*
X13050000Y-7660000D02*
X13050000Y-7740000D01*
X13010000Y-7700000D02*
X13090000Y-7700000D01*
X13050000Y-7860000D02*
X13050000Y-7940000D01*
X13010000Y-7900000D02*
X13090000Y-7900000D01*
X13050000Y-8060000D02*
X13050000Y-8140000D01*
X13010000Y-8100000D02*
X13090000Y-8100000D01*
X8901356Y-6664956D02*
X8901356Y-6594244D01*
X8830644Y-6594244D01*
X8830644Y-6664956D01*
X8901356Y-6664956D01*
X8901356Y-6942256D02*
X8901356Y-6871544D01*
X8830644Y-6871544D01*
X8830644Y-6942256D01*
X8901356Y-6942256D01*
X8901356Y-7219456D02*
X8901356Y-7148744D01*
X8830644Y-7148744D01*
X8830644Y-7219456D01*
X8901356Y-7219456D01*
X8901356Y-7496756D02*
X8901356Y-7426044D01*
X8830644Y-7426044D01*
X8830644Y-7496756D01*
X8901356Y-7496756D01*
X9135356Y-10567356D02*
X9135356Y-10496644D01*
X9064644Y-10496644D01*
X9064644Y-10567356D01*
X9135356Y-10567356D01*
X9135356Y-10843356D02*
X9135356Y-10772644D01*
X9064644Y-10772644D01*
X9064644Y-10843356D01*
X9135356Y-10843356D01*
X9135356Y-11119356D02*
X9135356Y-11048644D01*
X9064644Y-11048644D01*
X9064644Y-11119356D01*
X9135356Y-11119356D01*
X9135356Y-11395356D02*
X9135356Y-11324644D01*
X9064644Y-11324644D01*
X9064644Y-11395356D01*
X9135356Y-11395356D01*
X9135356Y-11671356D02*
X9135356Y-11600644D01*
X9064644Y-11600644D01*
X9064644Y-11671356D01*
X9135356Y-11671356D01*
X9135356Y-11947356D02*
X9135356Y-11876644D01*
X9064644Y-11876644D01*
X9064644Y-11947356D01*
X9135356Y-11947356D01*
X9135356Y-12223356D02*
X9135356Y-12152644D01*
X9064644Y-12152644D01*
X9064644Y-12223356D01*
X9135356Y-12223356D01*
X9135356Y-12499356D02*
X9135356Y-12428644D01*
X9064644Y-12428644D01*
X9064644Y-12499356D01*
X9135356Y-12499356D01*
X9135356Y-12775356D02*
X9135356Y-12704644D01*
X9064644Y-12704644D01*
X9064644Y-12775356D01*
X9135356Y-12775356D01*
X9135356Y-13051356D02*
X9135356Y-12980644D01*
X9064644Y-12980644D01*
X9064644Y-13051356D01*
X9135356Y-13051356D01*
X9135356Y-13327356D02*
X9135356Y-13256644D01*
X9064644Y-13256644D01*
X9064644Y-13327356D01*
X9135356Y-13327356D01*
X9135356Y-13603356D02*
X9135356Y-13532644D01*
X9064644Y-13532644D01*
X9064644Y-13603356D01*
X9135356Y-13603356D01*
X9185356Y-6526356D02*
X9185356Y-6455644D01*
X9114644Y-6455644D01*
X9114644Y-6526356D01*
X9185356Y-6526356D01*
X9185356Y-6803656D02*
X9185356Y-6732944D01*
X9114644Y-6732944D01*
X9114644Y-6803656D01*
X9185356Y-6803656D01*
X9185356Y-7080856D02*
X9185356Y-7010144D01*
X9114644Y-7010144D01*
X9114644Y-7080856D01*
X9185356Y-7080856D01*
X9185356Y-7358156D02*
X9185356Y-7287444D01*
X9114644Y-7287444D01*
X9114644Y-7358156D01*
X9185356Y-7358156D01*
X9185356Y-7635356D02*
X9185356Y-7564644D01*
X9114644Y-7564644D01*
X9114644Y-7635356D01*
X9185356Y-7635356D01*
X9419356Y-10429356D02*
X9419356Y-10358644D01*
X9348644Y-10358644D01*
X9348644Y-10429356D01*
X9419356Y-10429356D01*
X9419356Y-10705356D02*
X9419356Y-10634644D01*
X9348644Y-10634644D01*
X9348644Y-10705356D01*
X9419356Y-10705356D01*
X9419356Y-10981356D02*
X9419356Y-10910644D01*
X9348644Y-10910644D01*
X9348644Y-10981356D01*
X9419356Y-10981356D01*
X9419356Y-11257356D02*
X9419356Y-11186644D01*
X9348644Y-11186644D01*
X9348644Y-11257356D01*
X9419356Y-11257356D01*
X9419356Y-11533356D02*
X9419356Y-11462644D01*
X9348644Y-11462644D01*
X9348644Y-11533356D01*
X9419356Y-11533356D01*
X9419356Y-11809356D02*
X9419356Y-11738644D01*
X9348644Y-11738644D01*
X9348644Y-11809356D01*
X9419356Y-11809356D01*
X9419356Y-12085356D02*
X9419356Y-12014644D01*
X9348644Y-12014644D01*
X9348644Y-12085356D01*
X9419356Y-12085356D01*
X9419356Y-12361356D02*
X9419356Y-12290644D01*
X9348644Y-12290644D01*
X9348644Y-12361356D01*
X9419356Y-12361356D01*
X9419356Y-12637356D02*
X9419356Y-12566644D01*
X9348644Y-12566644D01*
X9348644Y-12637356D01*
X9419356Y-12637356D01*
X9419356Y-12913356D02*
X9419356Y-12842644D01*
X9348644Y-12842644D01*
X9348644Y-12913356D01*
X9419356Y-12913356D01*
X9419356Y-13189356D02*
X9419356Y-13118644D01*
X9348644Y-13118644D01*
X9348644Y-13189356D01*
X9419356Y-13189356D01*
X9419356Y-13465356D02*
X9419356Y-13394644D01*
X9348644Y-13394644D01*
X9348644Y-13465356D01*
X9419356Y-13465356D01*
X9419356Y-13741356D02*
X9419356Y-13670644D01*
X9348644Y-13670644D01*
X9348644Y-13741356D01*
X9419356Y-13741356D01*
X10599356Y-11177356D02*
X10599356Y-11106644D01*
X10528644Y-11106644D01*
X10528644Y-11177356D01*
X10599356Y-11177356D01*
X10853356Y-11177356D02*
X10853356Y-11106644D01*
X10782644Y-11106644D01*
X10782644Y-11177356D01*
X10853356Y-11177356D01*
X11107356Y-11177356D02*
X11107356Y-11106644D01*
X11036644Y-11106644D01*
X11036644Y-11177356D01*
X11107356Y-11177356D01*
X11174356Y-12880356D02*
X11174356Y-12809644D01*
X11103644Y-12809644D01*
X11103644Y-12880356D01*
X11174356Y-12880356D01*
X11174356Y-13134356D02*
X11174356Y-13063644D01*
X11103644Y-13063644D01*
X11103644Y-13134356D01*
X11174356Y-13134356D01*
X11174356Y-13388356D02*
X11174356Y-13317644D01*
X11103644Y-13317644D01*
X11103644Y-13388356D01*
X11174356Y-13388356D01*
X11174356Y-13642356D02*
X11174356Y-13571644D01*
X11103644Y-13571644D01*
X11103644Y-13642356D01*
X11174356Y-13642356D01*
X11174356Y-13896356D02*
X11174356Y-13825644D01*
X11103644Y-13825644D01*
X11103644Y-13896356D01*
X11174356Y-13896356D01*
X11174356Y-14150356D02*
X11174356Y-14079644D01*
X11103644Y-14079644D01*
X11103644Y-14150356D01*
X11174356Y-14150356D01*
X11174356Y-14404356D02*
X11174356Y-14333644D01*
X11103644Y-14333644D01*
X11103644Y-14404356D01*
X11174356Y-14404356D01*
X11174356Y-14658356D02*
X11174356Y-14587644D01*
X11103644Y-14587644D01*
X11103644Y-14658356D01*
X11174356Y-14658356D01*
X11174356Y-14912356D02*
X11174356Y-14841644D01*
X11103644Y-14841644D01*
X11103644Y-14912356D01*
X11174356Y-14912356D01*
X11174356Y-15166356D02*
X11174356Y-15095644D01*
X11103644Y-15095644D01*
X11103644Y-15166356D01*
X11174356Y-15166356D01*
X11174356Y-15420356D02*
X11174356Y-15349644D01*
X11103644Y-15349644D01*
X11103644Y-15420356D01*
X11174356Y-15420356D01*
X11174356Y-15674356D02*
X11174356Y-15603644D01*
X11103644Y-15603644D01*
X11103644Y-15674356D01*
X11174356Y-15674356D01*
X11174356Y-15928356D02*
X11174356Y-15857644D01*
X11103644Y-15857644D01*
X11103644Y-15928356D01*
X11174356Y-15928356D01*
X11174356Y-16182356D02*
X11174356Y-16111644D01*
X11103644Y-16111644D01*
X11103644Y-16182356D01*
X11174356Y-16182356D01*
X11174356Y-16436356D02*
X11174356Y-16365644D01*
X11103644Y-16365644D01*
X11103644Y-16436356D01*
X11174356Y-16436356D01*
X11361356Y-11177356D02*
X11361356Y-11106644D01*
X11290644Y-11106644D01*
X11290644Y-11177356D01*
X11361356Y-11177356D01*
X12698356Y-12880356D02*
X12698356Y-12809644D01*
X12627644Y-12809644D01*
X12627644Y-12880356D01*
X12698356Y-12880356D01*
X12698356Y-13134356D02*
X12698356Y-13063644D01*
X12627644Y-13063644D01*
X12627644Y-13134356D01*
X12698356Y-13134356D01*
X12698356Y-13388356D02*
X12698356Y-13317644D01*
X12627644Y-13317644D01*
X12627644Y-13388356D01*
X12698356Y-13388356D01*
X12698356Y-13642356D02*
X12698356Y-13571644D01*
X12627644Y-13571644D01*
X12627644Y-13642356D01*
X12698356Y-13642356D01*
X12698356Y-13896356D02*
X12698356Y-13825644D01*
X12627644Y-13825644D01*
X12627644Y-13896356D01*
X12698356Y-13896356D01*
X12698356Y-14150356D02*
X12698356Y-14079644D01*
X12627644Y-14079644D01*
X12627644Y-14150356D01*
X12698356Y-14150356D01*
X12698356Y-14404356D02*
X12698356Y-14333644D01*
X12627644Y-14333644D01*
X12627644Y-14404356D01*
X12698356Y-14404356D01*
X12698356Y-14658356D02*
X12698356Y-14587644D01*
X12627644Y-14587644D01*
X12627644Y-14658356D01*
X12698356Y-14658356D01*
X12698356Y-14912356D02*
X12698356Y-14841644D01*
X12627644Y-14841644D01*
X12627644Y-14912356D01*
X12698356Y-14912356D01*
X12698356Y-15166356D02*
X12698356Y-15095644D01*
X12627644Y-15095644D01*
X12627644Y-15166356D01*
X12698356Y-15166356D01*
X12698356Y-15420356D02*
X12698356Y-15349644D01*
X12627644Y-15349644D01*
X12627644Y-15420356D01*
X12698356Y-15420356D01*
X12698356Y-15674356D02*
X12698356Y-15603644D01*
X12627644Y-15603644D01*
X12627644Y-15674356D01*
X12698356Y-15674356D01*
X12698356Y-15928356D02*
X12698356Y-15857644D01*
X12627644Y-15857644D01*
X12627644Y-15928356D01*
X12698356Y-15928356D01*
X12698356Y-16182356D02*
X12698356Y-16111644D01*
X12627644Y-16111644D01*
X12627644Y-16182356D01*
X12698356Y-16182356D01*
X12698356Y-16436356D02*
X12698356Y-16365644D01*
X12627644Y-16365644D01*
X12627644Y-16436356D01*
X12698356Y-16436356D01*
D13*
X9242000Y-9855000D02*
X9397000Y-9700000D01*
X9242000Y-9545000D01*
X9087000Y-9700000D01*
X9242000Y-9855000D01*
X9242000Y-14555000D02*
X9397000Y-14400000D01*
X9242000Y-14245000D01*
X9087000Y-14400000D01*
X9242000Y-14555000D01*
D14*
X8390000Y-4640000D02*
X8710000Y-4960000D01*
X8710000Y-4640000D02*
X8390000Y-4960000D01*
X8710000Y-4800000D02*
G75*
G02*
X8390000Y-4800000I-160000J0D01*
G01*
X8390000Y-4800000D02*
G75*
G02*
X8710000Y-4800000I160000J0D01*
G01*
X8390000Y-17090000D02*
X8710000Y-17410000D01*
X8710000Y-17090000D02*
X8390000Y-17410000D01*
X8710000Y-17250000D02*
G75*
G02*
X8390000Y-17250000I-160000J0D01*
G01*
X8390000Y-17250000D02*
G75*
G02*
X8710000Y-17250000I160000J0D01*
G01*
X8848000Y-5636000D02*
X9168000Y-5956000D01*
X9168000Y-5636000D02*
X8848000Y-5956000D01*
X9168000Y-5796000D02*
G75*
G02*
X8848000Y-5796000I-160000J0D01*
G01*
X8848000Y-5796000D02*
G75*
G02*
X9168000Y-5796000I160000J0D01*
G01*
X8848000Y-8135000D02*
X9168000Y-8455000D01*
X9168000Y-8135000D02*
X8848000Y-8455000D01*
X9168000Y-8295000D02*
G75*
G02*
X8848000Y-8295000I-160000J0D01*
G01*
X8848000Y-8295000D02*
G75*
G02*
X9168000Y-8295000I160000J0D01*
G01*
X14240000Y-4640000D02*
X14560000Y-4960000D01*
X14560000Y-4640000D02*
X14240000Y-4960000D01*
X14560000Y-4800000D02*
G75*
G02*
X14240000Y-4800000I-160000J0D01*
G01*
X14240000Y-4800000D02*
G75*
G02*
X14560000Y-4800000I160000J0D01*
G01*
X14240000Y-17090000D02*
X14560000Y-17410000D01*
X14560000Y-17090000D02*
X14240000Y-17410000D01*
X14560000Y-17250000D02*
G75*
G02*
X14240000Y-17250000I-160000J0D01*
G01*
X14240000Y-17250000D02*
G75*
G02*
X14560000Y-17250000I160000J0D01*
G01*
D11*
X8308277Y-18013984D02*
X8308277Y-17813984D01*
X8308277Y-17813984D02*
X8355896Y-17813984D01*
X8355896Y-17813984D02*
X8384467Y-17823508D01*
X8384467Y-17823508D02*
X8403515Y-17842555D01*
X8403515Y-17842555D02*
X8413039Y-17861603D01*
X8413039Y-17861603D02*
X8422563Y-17899698D01*
X8422563Y-17899698D02*
X8422563Y-17928270D01*
X8422563Y-17928270D02*
X8413039Y-17966365D01*
X8413039Y-17966365D02*
X8403515Y-17985412D01*
X8403515Y-17985412D02*
X8384467Y-18004460D01*
X8384467Y-18004460D02*
X8355896Y-18013984D01*
X8355896Y-18013984D02*
X8308277Y-18013984D01*
X8508277Y-18013984D02*
X8508277Y-17880650D01*
X8508277Y-17918746D02*
X8517801Y-17899698D01*
X8517801Y-17899698D02*
X8527324Y-17890174D01*
X8527324Y-17890174D02*
X8546372Y-17880650D01*
X8546372Y-17880650D02*
X8565420Y-17880650D01*
X8632086Y-18013984D02*
X8632086Y-17880650D01*
X8632086Y-17813984D02*
X8622563Y-17823508D01*
X8622563Y-17823508D02*
X8632086Y-17833031D01*
X8632086Y-17833031D02*
X8641610Y-17823508D01*
X8641610Y-17823508D02*
X8632086Y-17813984D01*
X8632086Y-17813984D02*
X8632086Y-17833031D01*
X8755896Y-18013984D02*
X8736848Y-18004460D01*
X8736848Y-18004460D02*
X8727324Y-17985412D01*
X8727324Y-17985412D02*
X8727324Y-17813984D01*
X8860658Y-18013984D02*
X8841610Y-18004460D01*
X8841610Y-18004460D02*
X8832086Y-17985412D01*
X8832086Y-17985412D02*
X8832086Y-17813984D01*
X9089229Y-18013984D02*
X9089229Y-17813984D01*
X9089229Y-17813984D02*
X9155896Y-17956841D01*
X9155896Y-17956841D02*
X9222563Y-17813984D01*
X9222563Y-17813984D02*
X9222563Y-18013984D01*
X9403515Y-18013984D02*
X9403515Y-17909222D01*
X9403515Y-17909222D02*
X9393991Y-17890174D01*
X9393991Y-17890174D02*
X9374944Y-17880650D01*
X9374944Y-17880650D02*
X9336848Y-17880650D01*
X9336848Y-17880650D02*
X9317801Y-17890174D01*
X9403515Y-18004460D02*
X9384467Y-18013984D01*
X9384467Y-18013984D02*
X9336848Y-18013984D01*
X9336848Y-18013984D02*
X9317801Y-18004460D01*
X9317801Y-18004460D02*
X9308277Y-17985412D01*
X9308277Y-17985412D02*
X9308277Y-17966365D01*
X9308277Y-17966365D02*
X9317801Y-17947317D01*
X9317801Y-17947317D02*
X9336848Y-17937793D01*
X9336848Y-17937793D02*
X9384467Y-17937793D01*
X9384467Y-17937793D02*
X9403515Y-17928270D01*
X9498753Y-17880650D02*
X9498753Y-18080650D01*
X9498753Y-17890174D02*
X9517801Y-17880650D01*
X9517801Y-17880650D02*
X9555896Y-17880650D01*
X9555896Y-17880650D02*
X9574944Y-17890174D01*
X9574944Y-17890174D02*
X9584467Y-17899698D01*
X9584467Y-17899698D02*
X9593991Y-17918746D01*
X9593991Y-17918746D02*
X9593991Y-17975889D01*
X9593991Y-17975889D02*
X9584467Y-17994936D01*
X9584467Y-17994936D02*
X9574944Y-18004460D01*
X9574944Y-18004460D02*
X9555896Y-18013984D01*
X9555896Y-18013984D02*
X9517801Y-18013984D01*
X9517801Y-18013984D02*
X9498753Y-18004460D01*
X9679705Y-17994936D02*
X9689229Y-18004460D01*
X9689229Y-18004460D02*
X9679705Y-18013984D01*
X9679705Y-18013984D02*
X9670182Y-18004460D01*
X9670182Y-18004460D02*
X9679705Y-17994936D01*
X9679705Y-17994936D02*
X9679705Y-18013984D01*
X9679705Y-17890174D02*
X9689229Y-17899698D01*
X9689229Y-17899698D02*
X9679705Y-17909222D01*
X9679705Y-17909222D02*
X9670182Y-17899698D01*
X9670182Y-17899698D02*
X9679705Y-17890174D01*
X9679705Y-17890174D02*
X9679705Y-17909222D01*
D12*
X8017500Y-18327500D02*
X8047500Y-18357500D01*
X8047500Y-18327500D02*
X8017500Y-18357500D01*
D11*
X8346372Y-18233984D02*
X8365420Y-18233984D01*
X8365420Y-18233984D02*
X8384467Y-18243508D01*
X8384467Y-18243508D02*
X8393991Y-18253031D01*
X8393991Y-18253031D02*
X8403515Y-18272079D01*
X8403515Y-18272079D02*
X8413039Y-18310174D01*
X8413039Y-18310174D02*
X8413039Y-18357793D01*
X8413039Y-18357793D02*
X8403515Y-18395889D01*
X8403515Y-18395889D02*
X8393991Y-18414936D01*
X8393991Y-18414936D02*
X8384467Y-18424460D01*
X8384467Y-18424460D02*
X8365420Y-18433984D01*
X8365420Y-18433984D02*
X8346372Y-18433984D01*
X8346372Y-18433984D02*
X8327324Y-18424460D01*
X8327324Y-18424460D02*
X8317801Y-18414936D01*
X8317801Y-18414936D02*
X8308277Y-18395889D01*
X8308277Y-18395889D02*
X8298753Y-18357793D01*
X8298753Y-18357793D02*
X8298753Y-18310174D01*
X8298753Y-18310174D02*
X8308277Y-18272079D01*
X8308277Y-18272079D02*
X8317801Y-18253031D01*
X8317801Y-18253031D02*
X8327324Y-18243508D01*
X8327324Y-18243508D02*
X8346372Y-18233984D01*
X8498753Y-18414936D02*
X8508277Y-18424460D01*
X8508277Y-18424460D02*
X8498753Y-18433984D01*
X8498753Y-18433984D02*
X8489229Y-18424460D01*
X8489229Y-18424460D02*
X8498753Y-18414936D01*
X8498753Y-18414936D02*
X8498753Y-18433984D01*
X8574944Y-18233984D02*
X8698753Y-18233984D01*
X8698753Y-18233984D02*
X8632086Y-18310174D01*
X8632086Y-18310174D02*
X8660658Y-18310174D01*
X8660658Y-18310174D02*
X8679705Y-18319698D01*
X8679705Y-18319698D02*
X8689229Y-18329222D01*
X8689229Y-18329222D02*
X8698753Y-18348270D01*
X8698753Y-18348270D02*
X8698753Y-18395889D01*
X8698753Y-18395889D02*
X8689229Y-18414936D01*
X8689229Y-18414936D02*
X8679705Y-18424460D01*
X8679705Y-18424460D02*
X8660658Y-18433984D01*
X8660658Y-18433984D02*
X8603515Y-18433984D01*
X8603515Y-18433984D02*
X8584467Y-18424460D01*
X8584467Y-18424460D02*
X8574944Y-18414936D01*
X8822563Y-18233984D02*
X8841610Y-18233984D01*
X8841610Y-18233984D02*
X8860658Y-18243508D01*
X8860658Y-18243508D02*
X8870182Y-18253031D01*
X8870182Y-18253031D02*
X8879705Y-18272079D01*
X8879705Y-18272079D02*
X8889229Y-18310174D01*
X8889229Y-18310174D02*
X8889229Y-18357793D01*
X8889229Y-18357793D02*
X8879705Y-18395889D01*
X8879705Y-18395889D02*
X8870182Y-18414936D01*
X8870182Y-18414936D02*
X8860658Y-18424460D01*
X8860658Y-18424460D02*
X8841610Y-18433984D01*
X8841610Y-18433984D02*
X8822563Y-18433984D01*
X8822563Y-18433984D02*
X8803515Y-18424460D01*
X8803515Y-18424460D02*
X8793991Y-18414936D01*
X8793991Y-18414936D02*
X8784467Y-18395889D01*
X8784467Y-18395889D02*
X8774944Y-18357793D01*
X8774944Y-18357793D02*
X8774944Y-18310174D01*
X8774944Y-18310174D02*
X8784467Y-18272079D01*
X8784467Y-18272079D02*
X8793991Y-18253031D01*
X8793991Y-18253031D02*
X8803515Y-18243508D01*
X8803515Y-18243508D02*
X8822563Y-18233984D01*
X9013039Y-18233984D02*
X9032086Y-18233984D01*
X9032086Y-18233984D02*
X9051134Y-18243508D01*
X9051134Y-18243508D02*
X9060658Y-18253031D01*
X9060658Y-18253031D02*
X9070182Y-18272079D01*
X9070182Y-18272079D02*
X9079705Y-18310174D01*
X9079705Y-18310174D02*
X9079705Y-18357793D01*
X9079705Y-18357793D02*
X9070182Y-18395889D01*
X9070182Y-18395889D02*
X9060658Y-18414936D01*
X9060658Y-18414936D02*
X9051134Y-18424460D01*
X9051134Y-18424460D02*
X9032086Y-18433984D01*
X9032086Y-18433984D02*
X9013039Y-18433984D01*
X9013039Y-18433984D02*
X8993991Y-18424460D01*
X8993991Y-18424460D02*
X8984467Y-18414936D01*
X8984467Y-18414936D02*
X8974944Y-18395889D01*
X8974944Y-18395889D02*
X8965420Y-18357793D01*
X8965420Y-18357793D02*
X8965420Y-18310174D01*
X8965420Y-18310174D02*
X8974944Y-18272079D01*
X8974944Y-18272079D02*
X8984467Y-18253031D01*
X8984467Y-18253031D02*
X8993991Y-18243508D01*
X8993991Y-18243508D02*
X9013039Y-18233984D01*
X9165420Y-18433984D02*
X9165420Y-18300650D01*
X9165420Y-18319698D02*
X9174944Y-18310174D01*
X9174944Y-18310174D02*
X9193991Y-18300650D01*
X9193991Y-18300650D02*
X9222563Y-18300650D01*
X9222563Y-18300650D02*
X9241610Y-18310174D01*
X9241610Y-18310174D02*
X9251134Y-18329222D01*
X9251134Y-18329222D02*
X9251134Y-18433984D01*
X9251134Y-18329222D02*
X9260658Y-18310174D01*
X9260658Y-18310174D02*
X9279705Y-18300650D01*
X9279705Y-18300650D02*
X9308277Y-18300650D01*
X9308277Y-18300650D02*
X9327325Y-18310174D01*
X9327325Y-18310174D02*
X9336848Y-18329222D01*
X9336848Y-18329222D02*
X9336848Y-18433984D01*
X9432086Y-18433984D02*
X9432086Y-18300650D01*
X9432086Y-18319698D02*
X9441610Y-18310174D01*
X9441610Y-18310174D02*
X9460658Y-18300650D01*
X9460658Y-18300650D02*
X9489229Y-18300650D01*
X9489229Y-18300650D02*
X9508277Y-18310174D01*
X9508277Y-18310174D02*
X9517801Y-18329222D01*
X9517801Y-18329222D02*
X9517801Y-18433984D01*
X9517801Y-18329222D02*
X9527325Y-18310174D01*
X9527325Y-18310174D02*
X9546372Y-18300650D01*
X9546372Y-18300650D02*
X9574944Y-18300650D01*
X9574944Y-18300650D02*
X9593991Y-18310174D01*
X9593991Y-18310174D02*
X9603515Y-18329222D01*
X9603515Y-18329222D02*
X9603515Y-18433984D01*
X9993991Y-18224460D02*
X9822563Y-18481603D01*
X10251134Y-18233984D02*
X10270182Y-18233984D01*
X10270182Y-18233984D02*
X10289229Y-18243508D01*
X10289229Y-18243508D02*
X10298753Y-18253031D01*
X10298753Y-18253031D02*
X10308277Y-18272079D01*
X10308277Y-18272079D02*
X10317801Y-18310174D01*
X10317801Y-18310174D02*
X10317801Y-18357793D01*
X10317801Y-18357793D02*
X10308277Y-18395889D01*
X10308277Y-18395889D02*
X10298753Y-18414936D01*
X10298753Y-18414936D02*
X10289229Y-18424460D01*
X10289229Y-18424460D02*
X10270182Y-18433984D01*
X10270182Y-18433984D02*
X10251134Y-18433984D01*
X10251134Y-18433984D02*
X10232087Y-18424460D01*
X10232087Y-18424460D02*
X10222563Y-18414936D01*
X10222563Y-18414936D02*
X10213039Y-18395889D01*
X10213039Y-18395889D02*
X10203515Y-18357793D01*
X10203515Y-18357793D02*
X10203515Y-18310174D01*
X10203515Y-18310174D02*
X10213039Y-18272079D01*
X10213039Y-18272079D02*
X10222563Y-18253031D01*
X10222563Y-18253031D02*
X10232087Y-18243508D01*
X10232087Y-18243508D02*
X10251134Y-18233984D01*
X10403515Y-18414936D02*
X10413039Y-18424460D01*
X10413039Y-18424460D02*
X10403515Y-18433984D01*
X10403515Y-18433984D02*
X10393991Y-18424460D01*
X10393991Y-18424460D02*
X10403515Y-18414936D01*
X10403515Y-18414936D02*
X10403515Y-18433984D01*
X10536848Y-18233984D02*
X10555896Y-18233984D01*
X10555896Y-18233984D02*
X10574944Y-18243508D01*
X10574944Y-18243508D02*
X10584468Y-18253031D01*
X10584468Y-18253031D02*
X10593991Y-18272079D01*
X10593991Y-18272079D02*
X10603515Y-18310174D01*
X10603515Y-18310174D02*
X10603515Y-18357793D01*
X10603515Y-18357793D02*
X10593991Y-18395889D01*
X10593991Y-18395889D02*
X10584468Y-18414936D01*
X10584468Y-18414936D02*
X10574944Y-18424460D01*
X10574944Y-18424460D02*
X10555896Y-18433984D01*
X10555896Y-18433984D02*
X10536848Y-18433984D01*
X10536848Y-18433984D02*
X10517801Y-18424460D01*
X10517801Y-18424460D02*
X10508277Y-18414936D01*
X10508277Y-18414936D02*
X10498753Y-18395889D01*
X10498753Y-18395889D02*
X10489229Y-18357793D01*
X10489229Y-18357793D02*
X10489229Y-18310174D01*
X10489229Y-18310174D02*
X10498753Y-18272079D01*
X10498753Y-18272079D02*
X10508277Y-18253031D01*
X10508277Y-18253031D02*
X10517801Y-18243508D01*
X10517801Y-18243508D02*
X10536848Y-18233984D01*
X10793991Y-18433984D02*
X10679706Y-18433984D01*
X10736848Y-18433984D02*
X10736848Y-18233984D01*
X10736848Y-18233984D02*
X10717801Y-18262555D01*
X10717801Y-18262555D02*
X10698753Y-18281603D01*
X10698753Y-18281603D02*
X10679706Y-18291127D01*
X10984468Y-18433984D02*
X10870182Y-18433984D01*
X10927325Y-18433984D02*
X10927325Y-18233984D01*
X10927325Y-18233984D02*
X10908277Y-18262555D01*
X10908277Y-18262555D02*
X10889229Y-18281603D01*
X10889229Y-18281603D02*
X10870182Y-18291127D01*
X11098753Y-18319698D02*
X11079706Y-18310174D01*
X11079706Y-18310174D02*
X11070182Y-18300650D01*
X11070182Y-18300650D02*
X11060658Y-18281603D01*
X11060658Y-18281603D02*
X11060658Y-18272079D01*
X11060658Y-18272079D02*
X11070182Y-18253031D01*
X11070182Y-18253031D02*
X11079706Y-18243508D01*
X11079706Y-18243508D02*
X11098753Y-18233984D01*
X11098753Y-18233984D02*
X11136849Y-18233984D01*
X11136849Y-18233984D02*
X11155896Y-18243508D01*
X11155896Y-18243508D02*
X11165420Y-18253031D01*
X11165420Y-18253031D02*
X11174944Y-18272079D01*
X11174944Y-18272079D02*
X11174944Y-18281603D01*
X11174944Y-18281603D02*
X11165420Y-18300650D01*
X11165420Y-18300650D02*
X11155896Y-18310174D01*
X11155896Y-18310174D02*
X11136849Y-18319698D01*
X11136849Y-18319698D02*
X11098753Y-18319698D01*
X11098753Y-18319698D02*
X11079706Y-18329222D01*
X11079706Y-18329222D02*
X11070182Y-18338746D01*
X11070182Y-18338746D02*
X11060658Y-18357793D01*
X11060658Y-18357793D02*
X11060658Y-18395889D01*
X11060658Y-18395889D02*
X11070182Y-18414936D01*
X11070182Y-18414936D02*
X11079706Y-18424460D01*
X11079706Y-18424460D02*
X11098753Y-18433984D01*
X11098753Y-18433984D02*
X11136849Y-18433984D01*
X11136849Y-18433984D02*
X11155896Y-18424460D01*
X11155896Y-18424460D02*
X11165420Y-18414936D01*
X11165420Y-18414936D02*
X11174944Y-18395889D01*
X11174944Y-18395889D02*
X11174944Y-18357793D01*
X11174944Y-18357793D02*
X11165420Y-18338746D01*
X11165420Y-18338746D02*
X11155896Y-18329222D01*
X11155896Y-18329222D02*
X11136849Y-18319698D01*
X11251134Y-18233984D02*
X11251134Y-18272079D01*
X11327325Y-18233984D02*
X11327325Y-18272079D01*
X11622563Y-18510174D02*
X11613039Y-18500650D01*
X11613039Y-18500650D02*
X11593991Y-18472079D01*
X11593991Y-18472079D02*
X11584468Y-18453031D01*
X11584468Y-18453031D02*
X11574944Y-18424460D01*
X11574944Y-18424460D02*
X11565420Y-18376841D01*
X11565420Y-18376841D02*
X11565420Y-18338746D01*
X11565420Y-18338746D02*
X11574944Y-18291127D01*
X11574944Y-18291127D02*
X11584468Y-18262555D01*
X11584468Y-18262555D02*
X11593991Y-18243508D01*
X11593991Y-18243508D02*
X11613039Y-18214936D01*
X11613039Y-18214936D02*
X11622563Y-18205412D01*
X11784468Y-18233984D02*
X11746372Y-18233984D01*
X11746372Y-18233984D02*
X11727325Y-18243508D01*
X11727325Y-18243508D02*
X11717801Y-18253031D01*
X11717801Y-18253031D02*
X11698753Y-18281603D01*
X11698753Y-18281603D02*
X11689229Y-18319698D01*
X11689229Y-18319698D02*
X11689229Y-18395889D01*
X11689229Y-18395889D02*
X11698753Y-18414936D01*
X11698753Y-18414936D02*
X11708277Y-18424460D01*
X11708277Y-18424460D02*
X11727325Y-18433984D01*
X11727325Y-18433984D02*
X11765420Y-18433984D01*
X11765420Y-18433984D02*
X11784468Y-18424460D01*
X11784468Y-18424460D02*
X11793991Y-18414936D01*
X11793991Y-18414936D02*
X11803515Y-18395889D01*
X11803515Y-18395889D02*
X11803515Y-18348270D01*
X11803515Y-18348270D02*
X11793991Y-18329222D01*
X11793991Y-18329222D02*
X11784468Y-18319698D01*
X11784468Y-18319698D02*
X11765420Y-18310174D01*
X11765420Y-18310174D02*
X11727325Y-18310174D01*
X11727325Y-18310174D02*
X11708277Y-18319698D01*
X11708277Y-18319698D02*
X11698753Y-18329222D01*
X11698753Y-18329222D02*
X11689229Y-18348270D01*
X11974944Y-18233984D02*
X11936848Y-18233984D01*
X11936848Y-18233984D02*
X11917801Y-18243508D01*
X11917801Y-18243508D02*
X11908277Y-18253031D01*
X11908277Y-18253031D02*
X11889229Y-18281603D01*
X11889229Y-18281603D02*
X11879706Y-18319698D01*
X11879706Y-18319698D02*
X11879706Y-18395889D01*
X11879706Y-18395889D02*
X11889229Y-18414936D01*
X11889229Y-18414936D02*
X11898753Y-18424460D01*
X11898753Y-18424460D02*
X11917801Y-18433984D01*
X11917801Y-18433984D02*
X11955896Y-18433984D01*
X11955896Y-18433984D02*
X11974944Y-18424460D01*
X11974944Y-18424460D02*
X11984468Y-18414936D01*
X11984468Y-18414936D02*
X11993991Y-18395889D01*
X11993991Y-18395889D02*
X11993991Y-18348270D01*
X11993991Y-18348270D02*
X11984468Y-18329222D01*
X11984468Y-18329222D02*
X11974944Y-18319698D01*
X11974944Y-18319698D02*
X11955896Y-18310174D01*
X11955896Y-18310174D02*
X11917801Y-18310174D01*
X11917801Y-18310174D02*
X11898753Y-18319698D01*
X11898753Y-18319698D02*
X11889229Y-18329222D01*
X11889229Y-18329222D02*
X11879706Y-18348270D01*
X12232087Y-18433984D02*
X12232087Y-18233984D01*
X12317801Y-18433984D02*
X12317801Y-18329222D01*
X12317801Y-18329222D02*
X12308277Y-18310174D01*
X12308277Y-18310174D02*
X12289230Y-18300650D01*
X12289230Y-18300650D02*
X12260658Y-18300650D01*
X12260658Y-18300650D02*
X12241610Y-18310174D01*
X12241610Y-18310174D02*
X12232087Y-18319698D01*
X12441610Y-18433984D02*
X12422563Y-18424460D01*
X12422563Y-18424460D02*
X12413039Y-18414936D01*
X12413039Y-18414936D02*
X12403515Y-18395889D01*
X12403515Y-18395889D02*
X12403515Y-18338746D01*
X12403515Y-18338746D02*
X12413039Y-18319698D01*
X12413039Y-18319698D02*
X12422563Y-18310174D01*
X12422563Y-18310174D02*
X12441610Y-18300650D01*
X12441610Y-18300650D02*
X12470182Y-18300650D01*
X12470182Y-18300650D02*
X12489230Y-18310174D01*
X12489230Y-18310174D02*
X12498753Y-18319698D01*
X12498753Y-18319698D02*
X12508277Y-18338746D01*
X12508277Y-18338746D02*
X12508277Y-18395889D01*
X12508277Y-18395889D02*
X12498753Y-18414936D01*
X12498753Y-18414936D02*
X12489230Y-18424460D01*
X12489230Y-18424460D02*
X12470182Y-18433984D01*
X12470182Y-18433984D02*
X12441610Y-18433984D01*
X12622563Y-18433984D02*
X12603515Y-18424460D01*
X12603515Y-18424460D02*
X12593991Y-18405412D01*
X12593991Y-18405412D02*
X12593991Y-18233984D01*
X12774944Y-18424460D02*
X12755896Y-18433984D01*
X12755896Y-18433984D02*
X12717801Y-18433984D01*
X12717801Y-18433984D02*
X12698753Y-18424460D01*
X12698753Y-18424460D02*
X12689230Y-18405412D01*
X12689230Y-18405412D02*
X12689230Y-18329222D01*
X12689230Y-18329222D02*
X12698753Y-18310174D01*
X12698753Y-18310174D02*
X12717801Y-18300650D01*
X12717801Y-18300650D02*
X12755896Y-18300650D01*
X12755896Y-18300650D02*
X12774944Y-18310174D01*
X12774944Y-18310174D02*
X12784468Y-18329222D01*
X12784468Y-18329222D02*
X12784468Y-18348270D01*
X12784468Y-18348270D02*
X12689230Y-18367317D01*
X12860658Y-18424460D02*
X12879706Y-18433984D01*
X12879706Y-18433984D02*
X12917801Y-18433984D01*
X12917801Y-18433984D02*
X12936849Y-18424460D01*
X12936849Y-18424460D02*
X12946372Y-18405412D01*
X12946372Y-18405412D02*
X12946372Y-18395889D01*
X12946372Y-18395889D02*
X12936849Y-18376841D01*
X12936849Y-18376841D02*
X12917801Y-18367317D01*
X12917801Y-18367317D02*
X12889230Y-18367317D01*
X12889230Y-18367317D02*
X12870182Y-18357793D01*
X12870182Y-18357793D02*
X12860658Y-18338746D01*
X12860658Y-18338746D02*
X12860658Y-18329222D01*
X12860658Y-18329222D02*
X12870182Y-18310174D01*
X12870182Y-18310174D02*
X12889230Y-18300650D01*
X12889230Y-18300650D02*
X12917801Y-18300650D01*
X12917801Y-18300650D02*
X12936849Y-18310174D01*
X13013039Y-18510174D02*
X13022563Y-18500650D01*
X13022563Y-18500650D02*
X13041611Y-18472079D01*
X13041611Y-18472079D02*
X13051134Y-18453031D01*
X13051134Y-18453031D02*
X13060658Y-18424460D01*
X13060658Y-18424460D02*
X13070182Y-18376841D01*
X13070182Y-18376841D02*
X13070182Y-18338746D01*
X13070182Y-18338746D02*
X13060658Y-18291127D01*
X13060658Y-18291127D02*
X13051134Y-18262555D01*
X13051134Y-18262555D02*
X13041611Y-18243508D01*
X13041611Y-18243508D02*
X13022563Y-18214936D01*
X13022563Y-18214936D02*
X13013039Y-18205412D01*
D12*
X8047500Y-18606500D02*
G75*
G02*
X7987500Y-18606500I-30000J0D01*
G01*
X7987500Y-18606500D02*
G75*
G02*
X8047500Y-18606500I30000J0D01*
G01*
D11*
X8346372Y-18497984D02*
X8365420Y-18497984D01*
X8365420Y-18497984D02*
X8384467Y-18507508D01*
X8384467Y-18507508D02*
X8393991Y-18517031D01*
X8393991Y-18517031D02*
X8403515Y-18536079D01*
X8403515Y-18536079D02*
X8413039Y-18574174D01*
X8413039Y-18574174D02*
X8413039Y-18621793D01*
X8413039Y-18621793D02*
X8403515Y-18659889D01*
X8403515Y-18659889D02*
X8393991Y-18678936D01*
X8393991Y-18678936D02*
X8384467Y-18688460D01*
X8384467Y-18688460D02*
X8365420Y-18697984D01*
X8365420Y-18697984D02*
X8346372Y-18697984D01*
X8346372Y-18697984D02*
X8327324Y-18688460D01*
X8327324Y-18688460D02*
X8317801Y-18678936D01*
X8317801Y-18678936D02*
X8308277Y-18659889D01*
X8308277Y-18659889D02*
X8298753Y-18621793D01*
X8298753Y-18621793D02*
X8298753Y-18574174D01*
X8298753Y-18574174D02*
X8308277Y-18536079D01*
X8308277Y-18536079D02*
X8317801Y-18517031D01*
X8317801Y-18517031D02*
X8327324Y-18507508D01*
X8327324Y-18507508D02*
X8346372Y-18497984D01*
X8498753Y-18678936D02*
X8508277Y-18688460D01*
X8508277Y-18688460D02*
X8498753Y-18697984D01*
X8498753Y-18697984D02*
X8489229Y-18688460D01*
X8489229Y-18688460D02*
X8498753Y-18678936D01*
X8498753Y-18678936D02*
X8498753Y-18697984D01*
X8679705Y-18497984D02*
X8641610Y-18497984D01*
X8641610Y-18497984D02*
X8622563Y-18507508D01*
X8622563Y-18507508D02*
X8613039Y-18517031D01*
X8613039Y-18517031D02*
X8593991Y-18545603D01*
X8593991Y-18545603D02*
X8584467Y-18583698D01*
X8584467Y-18583698D02*
X8584467Y-18659889D01*
X8584467Y-18659889D02*
X8593991Y-18678936D01*
X8593991Y-18678936D02*
X8603515Y-18688460D01*
X8603515Y-18688460D02*
X8622563Y-18697984D01*
X8622563Y-18697984D02*
X8660658Y-18697984D01*
X8660658Y-18697984D02*
X8679705Y-18688460D01*
X8679705Y-18688460D02*
X8689229Y-18678936D01*
X8689229Y-18678936D02*
X8698753Y-18659889D01*
X8698753Y-18659889D02*
X8698753Y-18612270D01*
X8698753Y-18612270D02*
X8689229Y-18593222D01*
X8689229Y-18593222D02*
X8679705Y-18583698D01*
X8679705Y-18583698D02*
X8660658Y-18574174D01*
X8660658Y-18574174D02*
X8622563Y-18574174D01*
X8622563Y-18574174D02*
X8603515Y-18583698D01*
X8603515Y-18583698D02*
X8593991Y-18593222D01*
X8593991Y-18593222D02*
X8584467Y-18612270D01*
X8822563Y-18497984D02*
X8841610Y-18497984D01*
X8841610Y-18497984D02*
X8860658Y-18507508D01*
X8860658Y-18507508D02*
X8870182Y-18517031D01*
X8870182Y-18517031D02*
X8879705Y-18536079D01*
X8879705Y-18536079D02*
X8889229Y-18574174D01*
X8889229Y-18574174D02*
X8889229Y-18621793D01*
X8889229Y-18621793D02*
X8879705Y-18659889D01*
X8879705Y-18659889D02*
X8870182Y-18678936D01*
X8870182Y-18678936D02*
X8860658Y-18688460D01*
X8860658Y-18688460D02*
X8841610Y-18697984D01*
X8841610Y-18697984D02*
X8822563Y-18697984D01*
X8822563Y-18697984D02*
X8803515Y-18688460D01*
X8803515Y-18688460D02*
X8793991Y-18678936D01*
X8793991Y-18678936D02*
X8784467Y-18659889D01*
X8784467Y-18659889D02*
X8774944Y-18621793D01*
X8774944Y-18621793D02*
X8774944Y-18574174D01*
X8774944Y-18574174D02*
X8784467Y-18536079D01*
X8784467Y-18536079D02*
X8793991Y-18517031D01*
X8793991Y-18517031D02*
X8803515Y-18507508D01*
X8803515Y-18507508D02*
X8822563Y-18497984D01*
X9013039Y-18497984D02*
X9032086Y-18497984D01*
X9032086Y-18497984D02*
X9051134Y-18507508D01*
X9051134Y-18507508D02*
X9060658Y-18517031D01*
X9060658Y-18517031D02*
X9070182Y-18536079D01*
X9070182Y-18536079D02*
X9079705Y-18574174D01*
X9079705Y-18574174D02*
X9079705Y-18621793D01*
X9079705Y-18621793D02*
X9070182Y-18659889D01*
X9070182Y-18659889D02*
X9060658Y-18678936D01*
X9060658Y-18678936D02*
X9051134Y-18688460D01*
X9051134Y-18688460D02*
X9032086Y-18697984D01*
X9032086Y-18697984D02*
X9013039Y-18697984D01*
X9013039Y-18697984D02*
X8993991Y-18688460D01*
X8993991Y-18688460D02*
X8984467Y-18678936D01*
X8984467Y-18678936D02*
X8974944Y-18659889D01*
X8974944Y-18659889D02*
X8965420Y-18621793D01*
X8965420Y-18621793D02*
X8965420Y-18574174D01*
X8965420Y-18574174D02*
X8974944Y-18536079D01*
X8974944Y-18536079D02*
X8984467Y-18517031D01*
X8984467Y-18517031D02*
X8993991Y-18507508D01*
X8993991Y-18507508D02*
X9013039Y-18497984D01*
X9165420Y-18697984D02*
X9165420Y-18564650D01*
X9165420Y-18583698D02*
X9174944Y-18574174D01*
X9174944Y-18574174D02*
X9193991Y-18564650D01*
X9193991Y-18564650D02*
X9222563Y-18564650D01*
X9222563Y-18564650D02*
X9241610Y-18574174D01*
X9241610Y-18574174D02*
X9251134Y-18593222D01*
X9251134Y-18593222D02*
X9251134Y-18697984D01*
X9251134Y-18593222D02*
X9260658Y-18574174D01*
X9260658Y-18574174D02*
X9279705Y-18564650D01*
X9279705Y-18564650D02*
X9308277Y-18564650D01*
X9308277Y-18564650D02*
X9327325Y-18574174D01*
X9327325Y-18574174D02*
X9336848Y-18593222D01*
X9336848Y-18593222D02*
X9336848Y-18697984D01*
X9432086Y-18697984D02*
X9432086Y-18564650D01*
X9432086Y-18583698D02*
X9441610Y-18574174D01*
X9441610Y-18574174D02*
X9460658Y-18564650D01*
X9460658Y-18564650D02*
X9489229Y-18564650D01*
X9489229Y-18564650D02*
X9508277Y-18574174D01*
X9508277Y-18574174D02*
X9517801Y-18593222D01*
X9517801Y-18593222D02*
X9517801Y-18697984D01*
X9517801Y-18593222D02*
X9527325Y-18574174D01*
X9527325Y-18574174D02*
X9546372Y-18564650D01*
X9546372Y-18564650D02*
X9574944Y-18564650D01*
X9574944Y-18564650D02*
X9593991Y-18574174D01*
X9593991Y-18574174D02*
X9603515Y-18593222D01*
X9603515Y-18593222D02*
X9603515Y-18697984D01*
X9993991Y-18488460D02*
X9822563Y-18745603D01*
X10251134Y-18497984D02*
X10270182Y-18497984D01*
X10270182Y-18497984D02*
X10289229Y-18507508D01*
X10289229Y-18507508D02*
X10298753Y-18517031D01*
X10298753Y-18517031D02*
X10308277Y-18536079D01*
X10308277Y-18536079D02*
X10317801Y-18574174D01*
X10317801Y-18574174D02*
X10317801Y-18621793D01*
X10317801Y-18621793D02*
X10308277Y-18659889D01*
X10308277Y-18659889D02*
X10298753Y-18678936D01*
X10298753Y-18678936D02*
X10289229Y-18688460D01*
X10289229Y-18688460D02*
X10270182Y-18697984D01*
X10270182Y-18697984D02*
X10251134Y-18697984D01*
X10251134Y-18697984D02*
X10232087Y-18688460D01*
X10232087Y-18688460D02*
X10222563Y-18678936D01*
X10222563Y-18678936D02*
X10213039Y-18659889D01*
X10213039Y-18659889D02*
X10203515Y-18621793D01*
X10203515Y-18621793D02*
X10203515Y-18574174D01*
X10203515Y-18574174D02*
X10213039Y-18536079D01*
X10213039Y-18536079D02*
X10222563Y-18517031D01*
X10222563Y-18517031D02*
X10232087Y-18507508D01*
X10232087Y-18507508D02*
X10251134Y-18497984D01*
X10403515Y-18678936D02*
X10413039Y-18688460D01*
X10413039Y-18688460D02*
X10403515Y-18697984D01*
X10403515Y-18697984D02*
X10393991Y-18688460D01*
X10393991Y-18688460D02*
X10403515Y-18678936D01*
X10403515Y-18678936D02*
X10403515Y-18697984D01*
X10536848Y-18497984D02*
X10555896Y-18497984D01*
X10555896Y-18497984D02*
X10574944Y-18507508D01*
X10574944Y-18507508D02*
X10584468Y-18517031D01*
X10584468Y-18517031D02*
X10593991Y-18536079D01*
X10593991Y-18536079D02*
X10603515Y-18574174D01*
X10603515Y-18574174D02*
X10603515Y-18621793D01*
X10603515Y-18621793D02*
X10593991Y-18659889D01*
X10593991Y-18659889D02*
X10584468Y-18678936D01*
X10584468Y-18678936D02*
X10574944Y-18688460D01*
X10574944Y-18688460D02*
X10555896Y-18697984D01*
X10555896Y-18697984D02*
X10536848Y-18697984D01*
X10536848Y-18697984D02*
X10517801Y-18688460D01*
X10517801Y-18688460D02*
X10508277Y-18678936D01*
X10508277Y-18678936D02*
X10498753Y-18659889D01*
X10498753Y-18659889D02*
X10489229Y-18621793D01*
X10489229Y-18621793D02*
X10489229Y-18574174D01*
X10489229Y-18574174D02*
X10498753Y-18536079D01*
X10498753Y-18536079D02*
X10508277Y-18517031D01*
X10508277Y-18517031D02*
X10517801Y-18507508D01*
X10517801Y-18507508D02*
X10536848Y-18497984D01*
X10679706Y-18517031D02*
X10689229Y-18507508D01*
X10689229Y-18507508D02*
X10708277Y-18497984D01*
X10708277Y-18497984D02*
X10755896Y-18497984D01*
X10755896Y-18497984D02*
X10774944Y-18507508D01*
X10774944Y-18507508D02*
X10784468Y-18517031D01*
X10784468Y-18517031D02*
X10793991Y-18536079D01*
X10793991Y-18536079D02*
X10793991Y-18555127D01*
X10793991Y-18555127D02*
X10784468Y-18583698D01*
X10784468Y-18583698D02*
X10670182Y-18697984D01*
X10670182Y-18697984D02*
X10793991Y-18697984D01*
X10860658Y-18497984D02*
X10984468Y-18497984D01*
X10984468Y-18497984D02*
X10917801Y-18574174D01*
X10917801Y-18574174D02*
X10946372Y-18574174D01*
X10946372Y-18574174D02*
X10965420Y-18583698D01*
X10965420Y-18583698D02*
X10974944Y-18593222D01*
X10974944Y-18593222D02*
X10984468Y-18612270D01*
X10984468Y-18612270D02*
X10984468Y-18659889D01*
X10984468Y-18659889D02*
X10974944Y-18678936D01*
X10974944Y-18678936D02*
X10965420Y-18688460D01*
X10965420Y-18688460D02*
X10946372Y-18697984D01*
X10946372Y-18697984D02*
X10889229Y-18697984D01*
X10889229Y-18697984D02*
X10870182Y-18688460D01*
X10870182Y-18688460D02*
X10860658Y-18678936D01*
X11155896Y-18497984D02*
X11117801Y-18497984D01*
X11117801Y-18497984D02*
X11098753Y-18507508D01*
X11098753Y-18507508D02*
X11089229Y-18517031D01*
X11089229Y-18517031D02*
X11070182Y-18545603D01*
X11070182Y-18545603D02*
X11060658Y-18583698D01*
X11060658Y-18583698D02*
X11060658Y-18659889D01*
X11060658Y-18659889D02*
X11070182Y-18678936D01*
X11070182Y-18678936D02*
X11079706Y-18688460D01*
X11079706Y-18688460D02*
X11098753Y-18697984D01*
X11098753Y-18697984D02*
X11136849Y-18697984D01*
X11136849Y-18697984D02*
X11155896Y-18688460D01*
X11155896Y-18688460D02*
X11165420Y-18678936D01*
X11165420Y-18678936D02*
X11174944Y-18659889D01*
X11174944Y-18659889D02*
X11174944Y-18612270D01*
X11174944Y-18612270D02*
X11165420Y-18593222D01*
X11165420Y-18593222D02*
X11155896Y-18583698D01*
X11155896Y-18583698D02*
X11136849Y-18574174D01*
X11136849Y-18574174D02*
X11098753Y-18574174D01*
X11098753Y-18574174D02*
X11079706Y-18583698D01*
X11079706Y-18583698D02*
X11070182Y-18593222D01*
X11070182Y-18593222D02*
X11060658Y-18612270D01*
X11251134Y-18497984D02*
X11251134Y-18536079D01*
X11327325Y-18497984D02*
X11327325Y-18536079D01*
X11622563Y-18774174D02*
X11613039Y-18764650D01*
X11613039Y-18764650D02*
X11593991Y-18736079D01*
X11593991Y-18736079D02*
X11584468Y-18717031D01*
X11584468Y-18717031D02*
X11574944Y-18688460D01*
X11574944Y-18688460D02*
X11565420Y-18640841D01*
X11565420Y-18640841D02*
X11565420Y-18602746D01*
X11565420Y-18602746D02*
X11574944Y-18555127D01*
X11574944Y-18555127D02*
X11584468Y-18526555D01*
X11584468Y-18526555D02*
X11593991Y-18507508D01*
X11593991Y-18507508D02*
X11613039Y-18478936D01*
X11613039Y-18478936D02*
X11622563Y-18469412D01*
X11689229Y-18517031D02*
X11698753Y-18507508D01*
X11698753Y-18507508D02*
X11717801Y-18497984D01*
X11717801Y-18497984D02*
X11765420Y-18497984D01*
X11765420Y-18497984D02*
X11784468Y-18507508D01*
X11784468Y-18507508D02*
X11793991Y-18517031D01*
X11793991Y-18517031D02*
X11803515Y-18536079D01*
X11803515Y-18536079D02*
X11803515Y-18555127D01*
X11803515Y-18555127D02*
X11793991Y-18583698D01*
X11793991Y-18583698D02*
X11679706Y-18697984D01*
X11679706Y-18697984D02*
X11803515Y-18697984D01*
X11870182Y-18497984D02*
X11993991Y-18497984D01*
X11993991Y-18497984D02*
X11927325Y-18574174D01*
X11927325Y-18574174D02*
X11955896Y-18574174D01*
X11955896Y-18574174D02*
X11974944Y-18583698D01*
X11974944Y-18583698D02*
X11984468Y-18593222D01*
X11984468Y-18593222D02*
X11993991Y-18612270D01*
X11993991Y-18612270D02*
X11993991Y-18659889D01*
X11993991Y-18659889D02*
X11984468Y-18678936D01*
X11984468Y-18678936D02*
X11974944Y-18688460D01*
X11974944Y-18688460D02*
X11955896Y-18697984D01*
X11955896Y-18697984D02*
X11898753Y-18697984D01*
X11898753Y-18697984D02*
X11879706Y-18688460D01*
X11879706Y-18688460D02*
X11870182Y-18678936D01*
X12232087Y-18697984D02*
X12232087Y-18497984D01*
X12317801Y-18697984D02*
X12317801Y-18593222D01*
X12317801Y-18593222D02*
X12308277Y-18574174D01*
X12308277Y-18574174D02*
X12289230Y-18564650D01*
X12289230Y-18564650D02*
X12260658Y-18564650D01*
X12260658Y-18564650D02*
X12241610Y-18574174D01*
X12241610Y-18574174D02*
X12232087Y-18583698D01*
X12441610Y-18697984D02*
X12422563Y-18688460D01*
X12422563Y-18688460D02*
X12413039Y-18678936D01*
X12413039Y-18678936D02*
X12403515Y-18659889D01*
X12403515Y-18659889D02*
X12403515Y-18602746D01*
X12403515Y-18602746D02*
X12413039Y-18583698D01*
X12413039Y-18583698D02*
X12422563Y-18574174D01*
X12422563Y-18574174D02*
X12441610Y-18564650D01*
X12441610Y-18564650D02*
X12470182Y-18564650D01*
X12470182Y-18564650D02*
X12489230Y-18574174D01*
X12489230Y-18574174D02*
X12498753Y-18583698D01*
X12498753Y-18583698D02*
X12508277Y-18602746D01*
X12508277Y-18602746D02*
X12508277Y-18659889D01*
X12508277Y-18659889D02*
X12498753Y-18678936D01*
X12498753Y-18678936D02*
X12489230Y-18688460D01*
X12489230Y-18688460D02*
X12470182Y-18697984D01*
X12470182Y-18697984D02*
X12441610Y-18697984D01*
X12622563Y-18697984D02*
X12603515Y-18688460D01*
X12603515Y-18688460D02*
X12593991Y-18669412D01*
X12593991Y-18669412D02*
X12593991Y-18497984D01*
X12774944Y-18688460D02*
X12755896Y-18697984D01*
X12755896Y-18697984D02*
X12717801Y-18697984D01*
X12717801Y-18697984D02*
X12698753Y-18688460D01*
X12698753Y-18688460D02*
X12689230Y-18669412D01*
X12689230Y-18669412D02*
X12689230Y-18593222D01*
X12689230Y-18593222D02*
X12698753Y-18574174D01*
X12698753Y-18574174D02*
X12717801Y-18564650D01*
X12717801Y-18564650D02*
X12755896Y-18564650D01*
X12755896Y-18564650D02*
X12774944Y-18574174D01*
X12774944Y-18574174D02*
X12784468Y-18593222D01*
X12784468Y-18593222D02*
X12784468Y-18612270D01*
X12784468Y-18612270D02*
X12689230Y-18631317D01*
X12860658Y-18688460D02*
X12879706Y-18697984D01*
X12879706Y-18697984D02*
X12917801Y-18697984D01*
X12917801Y-18697984D02*
X12936849Y-18688460D01*
X12936849Y-18688460D02*
X12946372Y-18669412D01*
X12946372Y-18669412D02*
X12946372Y-18659889D01*
X12946372Y-18659889D02*
X12936849Y-18640841D01*
X12936849Y-18640841D02*
X12917801Y-18631317D01*
X12917801Y-18631317D02*
X12889230Y-18631317D01*
X12889230Y-18631317D02*
X12870182Y-18621793D01*
X12870182Y-18621793D02*
X12860658Y-18602746D01*
X12860658Y-18602746D02*
X12860658Y-18593222D01*
X12860658Y-18593222D02*
X12870182Y-18574174D01*
X12870182Y-18574174D02*
X12889230Y-18564650D01*
X12889230Y-18564650D02*
X12917801Y-18564650D01*
X12917801Y-18564650D02*
X12936849Y-18574174D01*
X13013039Y-18774174D02*
X13022563Y-18764650D01*
X13022563Y-18764650D02*
X13041611Y-18736079D01*
X13041611Y-18736079D02*
X13051134Y-18717031D01*
X13051134Y-18717031D02*
X13060658Y-18688460D01*
X13060658Y-18688460D02*
X13070182Y-18640841D01*
X13070182Y-18640841D02*
X13070182Y-18602746D01*
X13070182Y-18602746D02*
X13060658Y-18555127D01*
X13060658Y-18555127D02*
X13051134Y-18526555D01*
X13051134Y-18526555D02*
X13041611Y-18507508D01*
X13041611Y-18507508D02*
X13022563Y-18478936D01*
X13022563Y-18478936D02*
X13013039Y-18469412D01*
D12*
X8007500Y-18830500D02*
X8007500Y-18910500D01*
X7967500Y-18870500D02*
X8047500Y-18870500D01*
D11*
X8346372Y-18761984D02*
X8365420Y-18761984D01*
X8365420Y-18761984D02*
X8384467Y-18771508D01*
X8384467Y-18771508D02*
X8393991Y-18781031D01*
X8393991Y-18781031D02*
X8403515Y-18800079D01*
X8403515Y-18800079D02*
X8413039Y-18838174D01*
X8413039Y-18838174D02*
X8413039Y-18885793D01*
X8413039Y-18885793D02*
X8403515Y-18923889D01*
X8403515Y-18923889D02*
X8393991Y-18942936D01*
X8393991Y-18942936D02*
X8384467Y-18952460D01*
X8384467Y-18952460D02*
X8365420Y-18961984D01*
X8365420Y-18961984D02*
X8346372Y-18961984D01*
X8346372Y-18961984D02*
X8327324Y-18952460D01*
X8327324Y-18952460D02*
X8317801Y-18942936D01*
X8317801Y-18942936D02*
X8308277Y-18923889D01*
X8308277Y-18923889D02*
X8298753Y-18885793D01*
X8298753Y-18885793D02*
X8298753Y-18838174D01*
X8298753Y-18838174D02*
X8308277Y-18800079D01*
X8308277Y-18800079D02*
X8317801Y-18781031D01*
X8317801Y-18781031D02*
X8327324Y-18771508D01*
X8327324Y-18771508D02*
X8346372Y-18761984D01*
X8498753Y-18942936D02*
X8508277Y-18952460D01*
X8508277Y-18952460D02*
X8498753Y-18961984D01*
X8498753Y-18961984D02*
X8489229Y-18952460D01*
X8489229Y-18952460D02*
X8498753Y-18942936D01*
X8498753Y-18942936D02*
X8498753Y-18961984D01*
X8622563Y-18847698D02*
X8603515Y-18838174D01*
X8603515Y-18838174D02*
X8593991Y-18828650D01*
X8593991Y-18828650D02*
X8584467Y-18809603D01*
X8584467Y-18809603D02*
X8584467Y-18800079D01*
X8584467Y-18800079D02*
X8593991Y-18781031D01*
X8593991Y-18781031D02*
X8603515Y-18771508D01*
X8603515Y-18771508D02*
X8622563Y-18761984D01*
X8622563Y-18761984D02*
X8660658Y-18761984D01*
X8660658Y-18761984D02*
X8679705Y-18771508D01*
X8679705Y-18771508D02*
X8689229Y-18781031D01*
X8689229Y-18781031D02*
X8698753Y-18800079D01*
X8698753Y-18800079D02*
X8698753Y-18809603D01*
X8698753Y-18809603D02*
X8689229Y-18828650D01*
X8689229Y-18828650D02*
X8679705Y-18838174D01*
X8679705Y-18838174D02*
X8660658Y-18847698D01*
X8660658Y-18847698D02*
X8622563Y-18847698D01*
X8622563Y-18847698D02*
X8603515Y-18857222D01*
X8603515Y-18857222D02*
X8593991Y-18866746D01*
X8593991Y-18866746D02*
X8584467Y-18885793D01*
X8584467Y-18885793D02*
X8584467Y-18923889D01*
X8584467Y-18923889D02*
X8593991Y-18942936D01*
X8593991Y-18942936D02*
X8603515Y-18952460D01*
X8603515Y-18952460D02*
X8622563Y-18961984D01*
X8622563Y-18961984D02*
X8660658Y-18961984D01*
X8660658Y-18961984D02*
X8679705Y-18952460D01*
X8679705Y-18952460D02*
X8689229Y-18942936D01*
X8689229Y-18942936D02*
X8698753Y-18923889D01*
X8698753Y-18923889D02*
X8698753Y-18885793D01*
X8698753Y-18885793D02*
X8689229Y-18866746D01*
X8689229Y-18866746D02*
X8679705Y-18857222D01*
X8679705Y-18857222D02*
X8660658Y-18847698D01*
X8822563Y-18761984D02*
X8841610Y-18761984D01*
X8841610Y-18761984D02*
X8860658Y-18771508D01*
X8860658Y-18771508D02*
X8870182Y-18781031D01*
X8870182Y-18781031D02*
X8879705Y-18800079D01*
X8879705Y-18800079D02*
X8889229Y-18838174D01*
X8889229Y-18838174D02*
X8889229Y-18885793D01*
X8889229Y-18885793D02*
X8879705Y-18923889D01*
X8879705Y-18923889D02*
X8870182Y-18942936D01*
X8870182Y-18942936D02*
X8860658Y-18952460D01*
X8860658Y-18952460D02*
X8841610Y-18961984D01*
X8841610Y-18961984D02*
X8822563Y-18961984D01*
X8822563Y-18961984D02*
X8803515Y-18952460D01*
X8803515Y-18952460D02*
X8793991Y-18942936D01*
X8793991Y-18942936D02*
X8784467Y-18923889D01*
X8784467Y-18923889D02*
X8774944Y-18885793D01*
X8774944Y-18885793D02*
X8774944Y-18838174D01*
X8774944Y-18838174D02*
X8784467Y-18800079D01*
X8784467Y-18800079D02*
X8793991Y-18781031D01*
X8793991Y-18781031D02*
X8803515Y-18771508D01*
X8803515Y-18771508D02*
X8822563Y-18761984D01*
X9013039Y-18761984D02*
X9032086Y-18761984D01*
X9032086Y-18761984D02*
X9051134Y-18771508D01*
X9051134Y-18771508D02*
X9060658Y-18781031D01*
X9060658Y-18781031D02*
X9070182Y-18800079D01*
X9070182Y-18800079D02*
X9079705Y-18838174D01*
X9079705Y-18838174D02*
X9079705Y-18885793D01*
X9079705Y-18885793D02*
X9070182Y-18923889D01*
X9070182Y-18923889D02*
X9060658Y-18942936D01*
X9060658Y-18942936D02*
X9051134Y-18952460D01*
X9051134Y-18952460D02*
X9032086Y-18961984D01*
X9032086Y-18961984D02*
X9013039Y-18961984D01*
X9013039Y-18961984D02*
X8993991Y-18952460D01*
X8993991Y-18952460D02*
X8984467Y-18942936D01*
X8984467Y-18942936D02*
X8974944Y-18923889D01*
X8974944Y-18923889D02*
X8965420Y-18885793D01*
X8965420Y-18885793D02*
X8965420Y-18838174D01*
X8965420Y-18838174D02*
X8974944Y-18800079D01*
X8974944Y-18800079D02*
X8984467Y-18781031D01*
X8984467Y-18781031D02*
X8993991Y-18771508D01*
X8993991Y-18771508D02*
X9013039Y-18761984D01*
X9165420Y-18961984D02*
X9165420Y-18828650D01*
X9165420Y-18847698D02*
X9174944Y-18838174D01*
X9174944Y-18838174D02*
X9193991Y-18828650D01*
X9193991Y-18828650D02*
X9222563Y-18828650D01*
X9222563Y-18828650D02*
X9241610Y-18838174D01*
X9241610Y-18838174D02*
X9251134Y-18857222D01*
X9251134Y-18857222D02*
X9251134Y-18961984D01*
X9251134Y-18857222D02*
X9260658Y-18838174D01*
X9260658Y-18838174D02*
X9279705Y-18828650D01*
X9279705Y-18828650D02*
X9308277Y-18828650D01*
X9308277Y-18828650D02*
X9327325Y-18838174D01*
X9327325Y-18838174D02*
X9336848Y-18857222D01*
X9336848Y-18857222D02*
X9336848Y-18961984D01*
X9432086Y-18961984D02*
X9432086Y-18828650D01*
X9432086Y-18847698D02*
X9441610Y-18838174D01*
X9441610Y-18838174D02*
X9460658Y-18828650D01*
X9460658Y-18828650D02*
X9489229Y-18828650D01*
X9489229Y-18828650D02*
X9508277Y-18838174D01*
X9508277Y-18838174D02*
X9517801Y-18857222D01*
X9517801Y-18857222D02*
X9517801Y-18961984D01*
X9517801Y-18857222D02*
X9527325Y-18838174D01*
X9527325Y-18838174D02*
X9546372Y-18828650D01*
X9546372Y-18828650D02*
X9574944Y-18828650D01*
X9574944Y-18828650D02*
X9593991Y-18838174D01*
X9593991Y-18838174D02*
X9603515Y-18857222D01*
X9603515Y-18857222D02*
X9603515Y-18961984D01*
X9993991Y-18752460D02*
X9822563Y-19009603D01*
X10251134Y-18761984D02*
X10270182Y-18761984D01*
X10270182Y-18761984D02*
X10289229Y-18771508D01*
X10289229Y-18771508D02*
X10298753Y-18781031D01*
X10298753Y-18781031D02*
X10308277Y-18800079D01*
X10308277Y-18800079D02*
X10317801Y-18838174D01*
X10317801Y-18838174D02*
X10317801Y-18885793D01*
X10317801Y-18885793D02*
X10308277Y-18923889D01*
X10308277Y-18923889D02*
X10298753Y-18942936D01*
X10298753Y-18942936D02*
X10289229Y-18952460D01*
X10289229Y-18952460D02*
X10270182Y-18961984D01*
X10270182Y-18961984D02*
X10251134Y-18961984D01*
X10251134Y-18961984D02*
X10232087Y-18952460D01*
X10232087Y-18952460D02*
X10222563Y-18942936D01*
X10222563Y-18942936D02*
X10213039Y-18923889D01*
X10213039Y-18923889D02*
X10203515Y-18885793D01*
X10203515Y-18885793D02*
X10203515Y-18838174D01*
X10203515Y-18838174D02*
X10213039Y-18800079D01*
X10213039Y-18800079D02*
X10222563Y-18781031D01*
X10222563Y-18781031D02*
X10232087Y-18771508D01*
X10232087Y-18771508D02*
X10251134Y-18761984D01*
X10403515Y-18942936D02*
X10413039Y-18952460D01*
X10413039Y-18952460D02*
X10403515Y-18961984D01*
X10403515Y-18961984D02*
X10393991Y-18952460D01*
X10393991Y-18952460D02*
X10403515Y-18942936D01*
X10403515Y-18942936D02*
X10403515Y-18961984D01*
X10536848Y-18761984D02*
X10555896Y-18761984D01*
X10555896Y-18761984D02*
X10574944Y-18771508D01*
X10574944Y-18771508D02*
X10584468Y-18781031D01*
X10584468Y-18781031D02*
X10593991Y-18800079D01*
X10593991Y-18800079D02*
X10603515Y-18838174D01*
X10603515Y-18838174D02*
X10603515Y-18885793D01*
X10603515Y-18885793D02*
X10593991Y-18923889D01*
X10593991Y-18923889D02*
X10584468Y-18942936D01*
X10584468Y-18942936D02*
X10574944Y-18952460D01*
X10574944Y-18952460D02*
X10555896Y-18961984D01*
X10555896Y-18961984D02*
X10536848Y-18961984D01*
X10536848Y-18961984D02*
X10517801Y-18952460D01*
X10517801Y-18952460D02*
X10508277Y-18942936D01*
X10508277Y-18942936D02*
X10498753Y-18923889D01*
X10498753Y-18923889D02*
X10489229Y-18885793D01*
X10489229Y-18885793D02*
X10489229Y-18838174D01*
X10489229Y-18838174D02*
X10498753Y-18800079D01*
X10498753Y-18800079D02*
X10508277Y-18781031D01*
X10508277Y-18781031D02*
X10517801Y-18771508D01*
X10517801Y-18771508D02*
X10536848Y-18761984D01*
X10670182Y-18761984D02*
X10793991Y-18761984D01*
X10793991Y-18761984D02*
X10727325Y-18838174D01*
X10727325Y-18838174D02*
X10755896Y-18838174D01*
X10755896Y-18838174D02*
X10774944Y-18847698D01*
X10774944Y-18847698D02*
X10784468Y-18857222D01*
X10784468Y-18857222D02*
X10793991Y-18876270D01*
X10793991Y-18876270D02*
X10793991Y-18923889D01*
X10793991Y-18923889D02*
X10784468Y-18942936D01*
X10784468Y-18942936D02*
X10774944Y-18952460D01*
X10774944Y-18952460D02*
X10755896Y-18961984D01*
X10755896Y-18961984D02*
X10698753Y-18961984D01*
X10698753Y-18961984D02*
X10679706Y-18952460D01*
X10679706Y-18952460D02*
X10670182Y-18942936D01*
X10984468Y-18961984D02*
X10870182Y-18961984D01*
X10927325Y-18961984D02*
X10927325Y-18761984D01*
X10927325Y-18761984D02*
X10908277Y-18790555D01*
X10908277Y-18790555D02*
X10889229Y-18809603D01*
X10889229Y-18809603D02*
X10870182Y-18819127D01*
X11165420Y-18761984D02*
X11070182Y-18761984D01*
X11070182Y-18761984D02*
X11060658Y-18857222D01*
X11060658Y-18857222D02*
X11070182Y-18847698D01*
X11070182Y-18847698D02*
X11089229Y-18838174D01*
X11089229Y-18838174D02*
X11136849Y-18838174D01*
X11136849Y-18838174D02*
X11155896Y-18847698D01*
X11155896Y-18847698D02*
X11165420Y-18857222D01*
X11165420Y-18857222D02*
X11174944Y-18876270D01*
X11174944Y-18876270D02*
X11174944Y-18923889D01*
X11174944Y-18923889D02*
X11165420Y-18942936D01*
X11165420Y-18942936D02*
X11155896Y-18952460D01*
X11155896Y-18952460D02*
X11136849Y-18961984D01*
X11136849Y-18961984D02*
X11089229Y-18961984D01*
X11089229Y-18961984D02*
X11070182Y-18952460D01*
X11070182Y-18952460D02*
X11060658Y-18942936D01*
X11251134Y-18761984D02*
X11251134Y-18800079D01*
X11327325Y-18761984D02*
X11327325Y-18800079D01*
X11622563Y-19038174D02*
X11613039Y-19028650D01*
X11613039Y-19028650D02*
X11593991Y-19000079D01*
X11593991Y-19000079D02*
X11584468Y-18981031D01*
X11584468Y-18981031D02*
X11574944Y-18952460D01*
X11574944Y-18952460D02*
X11565420Y-18904841D01*
X11565420Y-18904841D02*
X11565420Y-18866746D01*
X11565420Y-18866746D02*
X11574944Y-18819127D01*
X11574944Y-18819127D02*
X11584468Y-18790555D01*
X11584468Y-18790555D02*
X11593991Y-18771508D01*
X11593991Y-18771508D02*
X11613039Y-18742936D01*
X11613039Y-18742936D02*
X11622563Y-18733412D01*
X11689229Y-18781031D02*
X11698753Y-18771508D01*
X11698753Y-18771508D02*
X11717801Y-18761984D01*
X11717801Y-18761984D02*
X11765420Y-18761984D01*
X11765420Y-18761984D02*
X11784468Y-18771508D01*
X11784468Y-18771508D02*
X11793991Y-18781031D01*
X11793991Y-18781031D02*
X11803515Y-18800079D01*
X11803515Y-18800079D02*
X11803515Y-18819127D01*
X11803515Y-18819127D02*
X11793991Y-18847698D01*
X11793991Y-18847698D02*
X11679706Y-18961984D01*
X11679706Y-18961984D02*
X11803515Y-18961984D01*
X11927325Y-18761984D02*
X11946372Y-18761984D01*
X11946372Y-18761984D02*
X11965420Y-18771508D01*
X11965420Y-18771508D02*
X11974944Y-18781031D01*
X11974944Y-18781031D02*
X11984468Y-18800079D01*
X11984468Y-18800079D02*
X11993991Y-18838174D01*
X11993991Y-18838174D02*
X11993991Y-18885793D01*
X11993991Y-18885793D02*
X11984468Y-18923889D01*
X11984468Y-18923889D02*
X11974944Y-18942936D01*
X11974944Y-18942936D02*
X11965420Y-18952460D01*
X11965420Y-18952460D02*
X11946372Y-18961984D01*
X11946372Y-18961984D02*
X11927325Y-18961984D01*
X11927325Y-18961984D02*
X11908277Y-18952460D01*
X11908277Y-18952460D02*
X11898753Y-18942936D01*
X11898753Y-18942936D02*
X11889229Y-18923889D01*
X11889229Y-18923889D02*
X11879706Y-18885793D01*
X11879706Y-18885793D02*
X11879706Y-18838174D01*
X11879706Y-18838174D02*
X11889229Y-18800079D01*
X11889229Y-18800079D02*
X11898753Y-18781031D01*
X11898753Y-18781031D02*
X11908277Y-18771508D01*
X11908277Y-18771508D02*
X11927325Y-18761984D01*
X12232087Y-18961984D02*
X12232087Y-18761984D01*
X12317801Y-18961984D02*
X12317801Y-18857222D01*
X12317801Y-18857222D02*
X12308277Y-18838174D01*
X12308277Y-18838174D02*
X12289230Y-18828650D01*
X12289230Y-18828650D02*
X12260658Y-18828650D01*
X12260658Y-18828650D02*
X12241610Y-18838174D01*
X12241610Y-18838174D02*
X12232087Y-18847698D01*
X12441610Y-18961984D02*
X12422563Y-18952460D01*
X12422563Y-18952460D02*
X12413039Y-18942936D01*
X12413039Y-18942936D02*
X12403515Y-18923889D01*
X12403515Y-18923889D02*
X12403515Y-18866746D01*
X12403515Y-18866746D02*
X12413039Y-18847698D01*
X12413039Y-18847698D02*
X12422563Y-18838174D01*
X12422563Y-18838174D02*
X12441610Y-18828650D01*
X12441610Y-18828650D02*
X12470182Y-18828650D01*
X12470182Y-18828650D02*
X12489230Y-18838174D01*
X12489230Y-18838174D02*
X12498753Y-18847698D01*
X12498753Y-18847698D02*
X12508277Y-18866746D01*
X12508277Y-18866746D02*
X12508277Y-18923889D01*
X12508277Y-18923889D02*
X12498753Y-18942936D01*
X12498753Y-18942936D02*
X12489230Y-18952460D01*
X12489230Y-18952460D02*
X12470182Y-18961984D01*
X12470182Y-18961984D02*
X12441610Y-18961984D01*
X12622563Y-18961984D02*
X12603515Y-18952460D01*
X12603515Y-18952460D02*
X12593991Y-18933412D01*
X12593991Y-18933412D02*
X12593991Y-18761984D01*
X12774944Y-18952460D02*
X12755896Y-18961984D01*
X12755896Y-18961984D02*
X12717801Y-18961984D01*
X12717801Y-18961984D02*
X12698753Y-18952460D01*
X12698753Y-18952460D02*
X12689230Y-18933412D01*
X12689230Y-18933412D02*
X12689230Y-18857222D01*
X12689230Y-18857222D02*
X12698753Y-18838174D01*
X12698753Y-18838174D02*
X12717801Y-18828650D01*
X12717801Y-18828650D02*
X12755896Y-18828650D01*
X12755896Y-18828650D02*
X12774944Y-18838174D01*
X12774944Y-18838174D02*
X12784468Y-18857222D01*
X12784468Y-18857222D02*
X12784468Y-18876270D01*
X12784468Y-18876270D02*
X12689230Y-18895317D01*
X12860658Y-18952460D02*
X12879706Y-18961984D01*
X12879706Y-18961984D02*
X12917801Y-18961984D01*
X12917801Y-18961984D02*
X12936849Y-18952460D01*
X12936849Y-18952460D02*
X12946372Y-18933412D01*
X12946372Y-18933412D02*
X12946372Y-18923889D01*
X12946372Y-18923889D02*
X12936849Y-18904841D01*
X12936849Y-18904841D02*
X12917801Y-18895317D01*
X12917801Y-18895317D02*
X12889230Y-18895317D01*
X12889230Y-18895317D02*
X12870182Y-18885793D01*
X12870182Y-18885793D02*
X12860658Y-18866746D01*
X12860658Y-18866746D02*
X12860658Y-18857222D01*
X12860658Y-18857222D02*
X12870182Y-18838174D01*
X12870182Y-18838174D02*
X12889230Y-18828650D01*
X12889230Y-18828650D02*
X12917801Y-18828650D01*
X12917801Y-18828650D02*
X12936849Y-18838174D01*
X13013039Y-19038174D02*
X13022563Y-19028650D01*
X13022563Y-19028650D02*
X13041611Y-19000079D01*
X13041611Y-19000079D02*
X13051134Y-18981031D01*
X13051134Y-18981031D02*
X13060658Y-18952460D01*
X13060658Y-18952460D02*
X13070182Y-18904841D01*
X13070182Y-18904841D02*
X13070182Y-18866746D01*
X13070182Y-18866746D02*
X13060658Y-18819127D01*
X13060658Y-18819127D02*
X13051134Y-18790555D01*
X13051134Y-18790555D02*
X13041611Y-18771508D01*
X13041611Y-18771508D02*
X13022563Y-18742936D01*
X13022563Y-18742936D02*
X13013039Y-18733412D01*
D12*
X8032856Y-19169856D02*
X8032856Y-19099144D01*
X7962144Y-19099144D01*
X7962144Y-19169856D01*
X8032856Y-19169856D01*
D11*
X8413039Y-19225984D02*
X8298753Y-19225984D01*
X8355896Y-19225984D02*
X8355896Y-19025984D01*
X8355896Y-19025984D02*
X8336848Y-19054555D01*
X8336848Y-19054555D02*
X8317801Y-19073603D01*
X8317801Y-19073603D02*
X8298753Y-19083127D01*
X8498753Y-19206936D02*
X8508277Y-19216460D01*
X8508277Y-19216460D02*
X8498753Y-19225984D01*
X8498753Y-19225984D02*
X8489229Y-19216460D01*
X8489229Y-19216460D02*
X8498753Y-19206936D01*
X8498753Y-19206936D02*
X8498753Y-19225984D01*
X8632086Y-19025984D02*
X8651134Y-19025984D01*
X8651134Y-19025984D02*
X8670182Y-19035508D01*
X8670182Y-19035508D02*
X8679705Y-19045031D01*
X8679705Y-19045031D02*
X8689229Y-19064079D01*
X8689229Y-19064079D02*
X8698753Y-19102174D01*
X8698753Y-19102174D02*
X8698753Y-19149793D01*
X8698753Y-19149793D02*
X8689229Y-19187889D01*
X8689229Y-19187889D02*
X8679705Y-19206936D01*
X8679705Y-19206936D02*
X8670182Y-19216460D01*
X8670182Y-19216460D02*
X8651134Y-19225984D01*
X8651134Y-19225984D02*
X8632086Y-19225984D01*
X8632086Y-19225984D02*
X8613039Y-19216460D01*
X8613039Y-19216460D02*
X8603515Y-19206936D01*
X8603515Y-19206936D02*
X8593991Y-19187889D01*
X8593991Y-19187889D02*
X8584467Y-19149793D01*
X8584467Y-19149793D02*
X8584467Y-19102174D01*
X8584467Y-19102174D02*
X8593991Y-19064079D01*
X8593991Y-19064079D02*
X8603515Y-19045031D01*
X8603515Y-19045031D02*
X8613039Y-19035508D01*
X8613039Y-19035508D02*
X8632086Y-19025984D01*
X8822563Y-19025984D02*
X8841610Y-19025984D01*
X8841610Y-19025984D02*
X8860658Y-19035508D01*
X8860658Y-19035508D02*
X8870182Y-19045031D01*
X8870182Y-19045031D02*
X8879705Y-19064079D01*
X8879705Y-19064079D02*
X8889229Y-19102174D01*
X8889229Y-19102174D02*
X8889229Y-19149793D01*
X8889229Y-19149793D02*
X8879705Y-19187889D01*
X8879705Y-19187889D02*
X8870182Y-19206936D01*
X8870182Y-19206936D02*
X8860658Y-19216460D01*
X8860658Y-19216460D02*
X8841610Y-19225984D01*
X8841610Y-19225984D02*
X8822563Y-19225984D01*
X8822563Y-19225984D02*
X8803515Y-19216460D01*
X8803515Y-19216460D02*
X8793991Y-19206936D01*
X8793991Y-19206936D02*
X8784467Y-19187889D01*
X8784467Y-19187889D02*
X8774944Y-19149793D01*
X8774944Y-19149793D02*
X8774944Y-19102174D01*
X8774944Y-19102174D02*
X8784467Y-19064079D01*
X8784467Y-19064079D02*
X8793991Y-19045031D01*
X8793991Y-19045031D02*
X8803515Y-19035508D01*
X8803515Y-19035508D02*
X8822563Y-19025984D01*
X9013039Y-19025984D02*
X9032086Y-19025984D01*
X9032086Y-19025984D02*
X9051134Y-19035508D01*
X9051134Y-19035508D02*
X9060658Y-19045031D01*
X9060658Y-19045031D02*
X9070182Y-19064079D01*
X9070182Y-19064079D02*
X9079705Y-19102174D01*
X9079705Y-19102174D02*
X9079705Y-19149793D01*
X9079705Y-19149793D02*
X9070182Y-19187889D01*
X9070182Y-19187889D02*
X9060658Y-19206936D01*
X9060658Y-19206936D02*
X9051134Y-19216460D01*
X9051134Y-19216460D02*
X9032086Y-19225984D01*
X9032086Y-19225984D02*
X9013039Y-19225984D01*
X9013039Y-19225984D02*
X8993991Y-19216460D01*
X8993991Y-19216460D02*
X8984467Y-19206936D01*
X8984467Y-19206936D02*
X8974944Y-19187889D01*
X8974944Y-19187889D02*
X8965420Y-19149793D01*
X8965420Y-19149793D02*
X8965420Y-19102174D01*
X8965420Y-19102174D02*
X8974944Y-19064079D01*
X8974944Y-19064079D02*
X8984467Y-19045031D01*
X8984467Y-19045031D02*
X8993991Y-19035508D01*
X8993991Y-19035508D02*
X9013039Y-19025984D01*
X9165420Y-19225984D02*
X9165420Y-19092650D01*
X9165420Y-19111698D02*
X9174944Y-19102174D01*
X9174944Y-19102174D02*
X9193991Y-19092650D01*
X9193991Y-19092650D02*
X9222563Y-19092650D01*
X9222563Y-19092650D02*
X9241610Y-19102174D01*
X9241610Y-19102174D02*
X9251134Y-19121222D01*
X9251134Y-19121222D02*
X9251134Y-19225984D01*
X9251134Y-19121222D02*
X9260658Y-19102174D01*
X9260658Y-19102174D02*
X9279705Y-19092650D01*
X9279705Y-19092650D02*
X9308277Y-19092650D01*
X9308277Y-19092650D02*
X9327325Y-19102174D01*
X9327325Y-19102174D02*
X9336848Y-19121222D01*
X9336848Y-19121222D02*
X9336848Y-19225984D01*
X9432086Y-19225984D02*
X9432086Y-19092650D01*
X9432086Y-19111698D02*
X9441610Y-19102174D01*
X9441610Y-19102174D02*
X9460658Y-19092650D01*
X9460658Y-19092650D02*
X9489229Y-19092650D01*
X9489229Y-19092650D02*
X9508277Y-19102174D01*
X9508277Y-19102174D02*
X9517801Y-19121222D01*
X9517801Y-19121222D02*
X9517801Y-19225984D01*
X9517801Y-19121222D02*
X9527325Y-19102174D01*
X9527325Y-19102174D02*
X9546372Y-19092650D01*
X9546372Y-19092650D02*
X9574944Y-19092650D01*
X9574944Y-19092650D02*
X9593991Y-19102174D01*
X9593991Y-19102174D02*
X9603515Y-19121222D01*
X9603515Y-19121222D02*
X9603515Y-19225984D01*
X9993991Y-19016460D02*
X9822563Y-19273603D01*
X10251134Y-19025984D02*
X10270182Y-19025984D01*
X10270182Y-19025984D02*
X10289229Y-19035508D01*
X10289229Y-19035508D02*
X10298753Y-19045031D01*
X10298753Y-19045031D02*
X10308277Y-19064079D01*
X10308277Y-19064079D02*
X10317801Y-19102174D01*
X10317801Y-19102174D02*
X10317801Y-19149793D01*
X10317801Y-19149793D02*
X10308277Y-19187889D01*
X10308277Y-19187889D02*
X10298753Y-19206936D01*
X10298753Y-19206936D02*
X10289229Y-19216460D01*
X10289229Y-19216460D02*
X10270182Y-19225984D01*
X10270182Y-19225984D02*
X10251134Y-19225984D01*
X10251134Y-19225984D02*
X10232087Y-19216460D01*
X10232087Y-19216460D02*
X10222563Y-19206936D01*
X10222563Y-19206936D02*
X10213039Y-19187889D01*
X10213039Y-19187889D02*
X10203515Y-19149793D01*
X10203515Y-19149793D02*
X10203515Y-19102174D01*
X10203515Y-19102174D02*
X10213039Y-19064079D01*
X10213039Y-19064079D02*
X10222563Y-19045031D01*
X10222563Y-19045031D02*
X10232087Y-19035508D01*
X10232087Y-19035508D02*
X10251134Y-19025984D01*
X10403515Y-19206936D02*
X10413039Y-19216460D01*
X10413039Y-19216460D02*
X10403515Y-19225984D01*
X10403515Y-19225984D02*
X10393991Y-19216460D01*
X10393991Y-19216460D02*
X10403515Y-19206936D01*
X10403515Y-19206936D02*
X10403515Y-19225984D01*
X10536848Y-19025984D02*
X10555896Y-19025984D01*
X10555896Y-19025984D02*
X10574944Y-19035508D01*
X10574944Y-19035508D02*
X10584468Y-19045031D01*
X10584468Y-19045031D02*
X10593991Y-19064079D01*
X10593991Y-19064079D02*
X10603515Y-19102174D01*
X10603515Y-19102174D02*
X10603515Y-19149793D01*
X10603515Y-19149793D02*
X10593991Y-19187889D01*
X10593991Y-19187889D02*
X10584468Y-19206936D01*
X10584468Y-19206936D02*
X10574944Y-19216460D01*
X10574944Y-19216460D02*
X10555896Y-19225984D01*
X10555896Y-19225984D02*
X10536848Y-19225984D01*
X10536848Y-19225984D02*
X10517801Y-19216460D01*
X10517801Y-19216460D02*
X10508277Y-19206936D01*
X10508277Y-19206936D02*
X10498753Y-19187889D01*
X10498753Y-19187889D02*
X10489229Y-19149793D01*
X10489229Y-19149793D02*
X10489229Y-19102174D01*
X10489229Y-19102174D02*
X10498753Y-19064079D01*
X10498753Y-19064079D02*
X10508277Y-19045031D01*
X10508277Y-19045031D02*
X10517801Y-19035508D01*
X10517801Y-19035508D02*
X10536848Y-19025984D01*
X10670182Y-19025984D02*
X10793991Y-19025984D01*
X10793991Y-19025984D02*
X10727325Y-19102174D01*
X10727325Y-19102174D02*
X10755896Y-19102174D01*
X10755896Y-19102174D02*
X10774944Y-19111698D01*
X10774944Y-19111698D02*
X10784468Y-19121222D01*
X10784468Y-19121222D02*
X10793991Y-19140270D01*
X10793991Y-19140270D02*
X10793991Y-19187889D01*
X10793991Y-19187889D02*
X10784468Y-19206936D01*
X10784468Y-19206936D02*
X10774944Y-19216460D01*
X10774944Y-19216460D02*
X10755896Y-19225984D01*
X10755896Y-19225984D02*
X10698753Y-19225984D01*
X10698753Y-19225984D02*
X10679706Y-19216460D01*
X10679706Y-19216460D02*
X10670182Y-19206936D01*
X10889229Y-19225984D02*
X10927325Y-19225984D01*
X10927325Y-19225984D02*
X10946372Y-19216460D01*
X10946372Y-19216460D02*
X10955896Y-19206936D01*
X10955896Y-19206936D02*
X10974944Y-19178365D01*
X10974944Y-19178365D02*
X10984468Y-19140270D01*
X10984468Y-19140270D02*
X10984468Y-19064079D01*
X10984468Y-19064079D02*
X10974944Y-19045031D01*
X10974944Y-19045031D02*
X10965420Y-19035508D01*
X10965420Y-19035508D02*
X10946372Y-19025984D01*
X10946372Y-19025984D02*
X10908277Y-19025984D01*
X10908277Y-19025984D02*
X10889229Y-19035508D01*
X10889229Y-19035508D02*
X10879706Y-19045031D01*
X10879706Y-19045031D02*
X10870182Y-19064079D01*
X10870182Y-19064079D02*
X10870182Y-19111698D01*
X10870182Y-19111698D02*
X10879706Y-19130746D01*
X10879706Y-19130746D02*
X10889229Y-19140270D01*
X10889229Y-19140270D02*
X10908277Y-19149793D01*
X10908277Y-19149793D02*
X10946372Y-19149793D01*
X10946372Y-19149793D02*
X10965420Y-19140270D01*
X10965420Y-19140270D02*
X10974944Y-19130746D01*
X10974944Y-19130746D02*
X10984468Y-19111698D01*
X11155896Y-19092650D02*
X11155896Y-19225984D01*
X11108277Y-19016460D02*
X11060658Y-19159317D01*
X11060658Y-19159317D02*
X11184468Y-19159317D01*
X11251134Y-19025984D02*
X11251134Y-19064079D01*
X11327325Y-19025984D02*
X11327325Y-19064079D01*
X11622563Y-19302174D02*
X11613039Y-19292650D01*
X11613039Y-19292650D02*
X11593991Y-19264079D01*
X11593991Y-19264079D02*
X11584468Y-19245031D01*
X11584468Y-19245031D02*
X11574944Y-19216460D01*
X11574944Y-19216460D02*
X11565420Y-19168841D01*
X11565420Y-19168841D02*
X11565420Y-19130746D01*
X11565420Y-19130746D02*
X11574944Y-19083127D01*
X11574944Y-19083127D02*
X11584468Y-19054555D01*
X11584468Y-19054555D02*
X11593991Y-19035508D01*
X11593991Y-19035508D02*
X11613039Y-19006936D01*
X11613039Y-19006936D02*
X11622563Y-18997412D01*
X11784468Y-19025984D02*
X11746372Y-19025984D01*
X11746372Y-19025984D02*
X11727325Y-19035508D01*
X11727325Y-19035508D02*
X11717801Y-19045031D01*
X11717801Y-19045031D02*
X11698753Y-19073603D01*
X11698753Y-19073603D02*
X11689229Y-19111698D01*
X11689229Y-19111698D02*
X11689229Y-19187889D01*
X11689229Y-19187889D02*
X11698753Y-19206936D01*
X11698753Y-19206936D02*
X11708277Y-19216460D01*
X11708277Y-19216460D02*
X11727325Y-19225984D01*
X11727325Y-19225984D02*
X11765420Y-19225984D01*
X11765420Y-19225984D02*
X11784468Y-19216460D01*
X11784468Y-19216460D02*
X11793991Y-19206936D01*
X11793991Y-19206936D02*
X11803515Y-19187889D01*
X11803515Y-19187889D02*
X11803515Y-19140270D01*
X11803515Y-19140270D02*
X11793991Y-19121222D01*
X11793991Y-19121222D02*
X11784468Y-19111698D01*
X11784468Y-19111698D02*
X11765420Y-19102174D01*
X11765420Y-19102174D02*
X11727325Y-19102174D01*
X11727325Y-19102174D02*
X11708277Y-19111698D01*
X11708277Y-19111698D02*
X11698753Y-19121222D01*
X11698753Y-19121222D02*
X11689229Y-19140270D01*
X11917801Y-19111698D02*
X11898753Y-19102174D01*
X11898753Y-19102174D02*
X11889229Y-19092650D01*
X11889229Y-19092650D02*
X11879706Y-19073603D01*
X11879706Y-19073603D02*
X11879706Y-19064079D01*
X11879706Y-19064079D02*
X11889229Y-19045031D01*
X11889229Y-19045031D02*
X11898753Y-19035508D01*
X11898753Y-19035508D02*
X11917801Y-19025984D01*
X11917801Y-19025984D02*
X11955896Y-19025984D01*
X11955896Y-19025984D02*
X11974944Y-19035508D01*
X11974944Y-19035508D02*
X11984468Y-19045031D01*
X11984468Y-19045031D02*
X11993991Y-19064079D01*
X11993991Y-19064079D02*
X11993991Y-19073603D01*
X11993991Y-19073603D02*
X11984468Y-19092650D01*
X11984468Y-19092650D02*
X11974944Y-19102174D01*
X11974944Y-19102174D02*
X11955896Y-19111698D01*
X11955896Y-19111698D02*
X11917801Y-19111698D01*
X11917801Y-19111698D02*
X11898753Y-19121222D01*
X11898753Y-19121222D02*
X11889229Y-19130746D01*
X11889229Y-19130746D02*
X11879706Y-19149793D01*
X11879706Y-19149793D02*
X11879706Y-19187889D01*
X11879706Y-19187889D02*
X11889229Y-19206936D01*
X11889229Y-19206936D02*
X11898753Y-19216460D01*
X11898753Y-19216460D02*
X11917801Y-19225984D01*
X11917801Y-19225984D02*
X11955896Y-19225984D01*
X11955896Y-19225984D02*
X11974944Y-19216460D01*
X11974944Y-19216460D02*
X11984468Y-19206936D01*
X11984468Y-19206936D02*
X11993991Y-19187889D01*
X11993991Y-19187889D02*
X11993991Y-19149793D01*
X11993991Y-19149793D02*
X11984468Y-19130746D01*
X11984468Y-19130746D02*
X11974944Y-19121222D01*
X11974944Y-19121222D02*
X11955896Y-19111698D01*
X12232087Y-19225984D02*
X12232087Y-19025984D01*
X12317801Y-19225984D02*
X12317801Y-19121222D01*
X12317801Y-19121222D02*
X12308277Y-19102174D01*
X12308277Y-19102174D02*
X12289230Y-19092650D01*
X12289230Y-19092650D02*
X12260658Y-19092650D01*
X12260658Y-19092650D02*
X12241610Y-19102174D01*
X12241610Y-19102174D02*
X12232087Y-19111698D01*
X12441610Y-19225984D02*
X12422563Y-19216460D01*
X12422563Y-19216460D02*
X12413039Y-19206936D01*
X12413039Y-19206936D02*
X12403515Y-19187889D01*
X12403515Y-19187889D02*
X12403515Y-19130746D01*
X12403515Y-19130746D02*
X12413039Y-19111698D01*
X12413039Y-19111698D02*
X12422563Y-19102174D01*
X12422563Y-19102174D02*
X12441610Y-19092650D01*
X12441610Y-19092650D02*
X12470182Y-19092650D01*
X12470182Y-19092650D02*
X12489230Y-19102174D01*
X12489230Y-19102174D02*
X12498753Y-19111698D01*
X12498753Y-19111698D02*
X12508277Y-19130746D01*
X12508277Y-19130746D02*
X12508277Y-19187889D01*
X12508277Y-19187889D02*
X12498753Y-19206936D01*
X12498753Y-19206936D02*
X12489230Y-19216460D01*
X12489230Y-19216460D02*
X12470182Y-19225984D01*
X12470182Y-19225984D02*
X12441610Y-19225984D01*
X12622563Y-19225984D02*
X12603515Y-19216460D01*
X12603515Y-19216460D02*
X12593991Y-19197412D01*
X12593991Y-19197412D02*
X12593991Y-19025984D01*
X12774944Y-19216460D02*
X12755896Y-19225984D01*
X12755896Y-19225984D02*
X12717801Y-19225984D01*
X12717801Y-19225984D02*
X12698753Y-19216460D01*
X12698753Y-19216460D02*
X12689230Y-19197412D01*
X12689230Y-19197412D02*
X12689230Y-19121222D01*
X12689230Y-19121222D02*
X12698753Y-19102174D01*
X12698753Y-19102174D02*
X12717801Y-19092650D01*
X12717801Y-19092650D02*
X12755896Y-19092650D01*
X12755896Y-19092650D02*
X12774944Y-19102174D01*
X12774944Y-19102174D02*
X12784468Y-19121222D01*
X12784468Y-19121222D02*
X12784468Y-19140270D01*
X12784468Y-19140270D02*
X12689230Y-19159317D01*
X12860658Y-19216460D02*
X12879706Y-19225984D01*
X12879706Y-19225984D02*
X12917801Y-19225984D01*
X12917801Y-19225984D02*
X12936849Y-19216460D01*
X12936849Y-19216460D02*
X12946372Y-19197412D01*
X12946372Y-19197412D02*
X12946372Y-19187889D01*
X12946372Y-19187889D02*
X12936849Y-19168841D01*
X12936849Y-19168841D02*
X12917801Y-19159317D01*
X12917801Y-19159317D02*
X12889230Y-19159317D01*
X12889230Y-19159317D02*
X12870182Y-19149793D01*
X12870182Y-19149793D02*
X12860658Y-19130746D01*
X12860658Y-19130746D02*
X12860658Y-19121222D01*
X12860658Y-19121222D02*
X12870182Y-19102174D01*
X12870182Y-19102174D02*
X12889230Y-19092650D01*
X12889230Y-19092650D02*
X12917801Y-19092650D01*
X12917801Y-19092650D02*
X12936849Y-19102174D01*
X13013039Y-19302174D02*
X13022563Y-19292650D01*
X13022563Y-19292650D02*
X13041611Y-19264079D01*
X13041611Y-19264079D02*
X13051134Y-19245031D01*
X13051134Y-19245031D02*
X13060658Y-19216460D01*
X13060658Y-19216460D02*
X13070182Y-19168841D01*
X13070182Y-19168841D02*
X13070182Y-19130746D01*
X13070182Y-19130746D02*
X13060658Y-19083127D01*
X13060658Y-19083127D02*
X13051134Y-19054555D01*
X13051134Y-19054555D02*
X13041611Y-19035508D01*
X13041611Y-19035508D02*
X13022563Y-19006936D01*
X13022563Y-19006936D02*
X13013039Y-18997412D01*
X7947500Y-19498500D02*
X8047500Y-19398500D01*
X7947500Y-19298500D01*
X7847500Y-19398500D01*
X7947500Y-19498500D01*
X8289229Y-19289984D02*
X8413039Y-19289984D01*
X8413039Y-19289984D02*
X8346372Y-19366174D01*
X8346372Y-19366174D02*
X8374943Y-19366174D01*
X8374943Y-19366174D02*
X8393991Y-19375698D01*
X8393991Y-19375698D02*
X8403515Y-19385222D01*
X8403515Y-19385222D02*
X8413039Y-19404270D01*
X8413039Y-19404270D02*
X8413039Y-19451889D01*
X8413039Y-19451889D02*
X8403515Y-19470936D01*
X8403515Y-19470936D02*
X8393991Y-19480460D01*
X8393991Y-19480460D02*
X8374943Y-19489984D01*
X8374943Y-19489984D02*
X8317801Y-19489984D01*
X8317801Y-19489984D02*
X8298753Y-19480460D01*
X8298753Y-19480460D02*
X8289229Y-19470936D01*
X8498753Y-19470936D02*
X8508277Y-19480460D01*
X8508277Y-19480460D02*
X8498753Y-19489984D01*
X8498753Y-19489984D02*
X8489229Y-19480460D01*
X8489229Y-19480460D02*
X8498753Y-19470936D01*
X8498753Y-19470936D02*
X8498753Y-19489984D01*
X8698753Y-19489984D02*
X8584467Y-19489984D01*
X8641610Y-19489984D02*
X8641610Y-19289984D01*
X8641610Y-19289984D02*
X8622563Y-19318555D01*
X8622563Y-19318555D02*
X8603515Y-19337603D01*
X8603515Y-19337603D02*
X8584467Y-19347127D01*
X8822563Y-19289984D02*
X8841610Y-19289984D01*
X8841610Y-19289984D02*
X8860658Y-19299508D01*
X8860658Y-19299508D02*
X8870182Y-19309031D01*
X8870182Y-19309031D02*
X8879705Y-19328079D01*
X8879705Y-19328079D02*
X8889229Y-19366174D01*
X8889229Y-19366174D02*
X8889229Y-19413793D01*
X8889229Y-19413793D02*
X8879705Y-19451889D01*
X8879705Y-19451889D02*
X8870182Y-19470936D01*
X8870182Y-19470936D02*
X8860658Y-19480460D01*
X8860658Y-19480460D02*
X8841610Y-19489984D01*
X8841610Y-19489984D02*
X8822563Y-19489984D01*
X8822563Y-19489984D02*
X8803515Y-19480460D01*
X8803515Y-19480460D02*
X8793991Y-19470936D01*
X8793991Y-19470936D02*
X8784467Y-19451889D01*
X8784467Y-19451889D02*
X8774944Y-19413793D01*
X8774944Y-19413793D02*
X8774944Y-19366174D01*
X8774944Y-19366174D02*
X8784467Y-19328079D01*
X8784467Y-19328079D02*
X8793991Y-19309031D01*
X8793991Y-19309031D02*
X8803515Y-19299508D01*
X8803515Y-19299508D02*
X8822563Y-19289984D01*
X9013039Y-19289984D02*
X9032086Y-19289984D01*
X9032086Y-19289984D02*
X9051134Y-19299508D01*
X9051134Y-19299508D02*
X9060658Y-19309031D01*
X9060658Y-19309031D02*
X9070182Y-19328079D01*
X9070182Y-19328079D02*
X9079705Y-19366174D01*
X9079705Y-19366174D02*
X9079705Y-19413793D01*
X9079705Y-19413793D02*
X9070182Y-19451889D01*
X9070182Y-19451889D02*
X9060658Y-19470936D01*
X9060658Y-19470936D02*
X9051134Y-19480460D01*
X9051134Y-19480460D02*
X9032086Y-19489984D01*
X9032086Y-19489984D02*
X9013039Y-19489984D01*
X9013039Y-19489984D02*
X8993991Y-19480460D01*
X8993991Y-19480460D02*
X8984467Y-19470936D01*
X8984467Y-19470936D02*
X8974944Y-19451889D01*
X8974944Y-19451889D02*
X8965420Y-19413793D01*
X8965420Y-19413793D02*
X8965420Y-19366174D01*
X8965420Y-19366174D02*
X8974944Y-19328079D01*
X8974944Y-19328079D02*
X8984467Y-19309031D01*
X8984467Y-19309031D02*
X8993991Y-19299508D01*
X8993991Y-19299508D02*
X9013039Y-19289984D01*
X9165420Y-19489984D02*
X9165420Y-19356650D01*
X9165420Y-19375698D02*
X9174944Y-19366174D01*
X9174944Y-19366174D02*
X9193991Y-19356650D01*
X9193991Y-19356650D02*
X9222563Y-19356650D01*
X9222563Y-19356650D02*
X9241610Y-19366174D01*
X9241610Y-19366174D02*
X9251134Y-19385222D01*
X9251134Y-19385222D02*
X9251134Y-19489984D01*
X9251134Y-19385222D02*
X9260658Y-19366174D01*
X9260658Y-19366174D02*
X9279705Y-19356650D01*
X9279705Y-19356650D02*
X9308277Y-19356650D01*
X9308277Y-19356650D02*
X9327325Y-19366174D01*
X9327325Y-19366174D02*
X9336848Y-19385222D01*
X9336848Y-19385222D02*
X9336848Y-19489984D01*
X9432086Y-19489984D02*
X9432086Y-19356650D01*
X9432086Y-19375698D02*
X9441610Y-19366174D01*
X9441610Y-19366174D02*
X9460658Y-19356650D01*
X9460658Y-19356650D02*
X9489229Y-19356650D01*
X9489229Y-19356650D02*
X9508277Y-19366174D01*
X9508277Y-19366174D02*
X9517801Y-19385222D01*
X9517801Y-19385222D02*
X9517801Y-19489984D01*
X9517801Y-19385222D02*
X9527325Y-19366174D01*
X9527325Y-19366174D02*
X9546372Y-19356650D01*
X9546372Y-19356650D02*
X9574944Y-19356650D01*
X9574944Y-19356650D02*
X9593991Y-19366174D01*
X9593991Y-19366174D02*
X9603515Y-19385222D01*
X9603515Y-19385222D02*
X9603515Y-19489984D01*
X9993991Y-19280460D02*
X9822563Y-19537603D01*
X10251134Y-19289984D02*
X10270182Y-19289984D01*
X10270182Y-19289984D02*
X10289229Y-19299508D01*
X10289229Y-19299508D02*
X10298753Y-19309031D01*
X10298753Y-19309031D02*
X10308277Y-19328079D01*
X10308277Y-19328079D02*
X10317801Y-19366174D01*
X10317801Y-19366174D02*
X10317801Y-19413793D01*
X10317801Y-19413793D02*
X10308277Y-19451889D01*
X10308277Y-19451889D02*
X10298753Y-19470936D01*
X10298753Y-19470936D02*
X10289229Y-19480460D01*
X10289229Y-19480460D02*
X10270182Y-19489984D01*
X10270182Y-19489984D02*
X10251134Y-19489984D01*
X10251134Y-19489984D02*
X10232087Y-19480460D01*
X10232087Y-19480460D02*
X10222563Y-19470936D01*
X10222563Y-19470936D02*
X10213039Y-19451889D01*
X10213039Y-19451889D02*
X10203515Y-19413793D01*
X10203515Y-19413793D02*
X10203515Y-19366174D01*
X10203515Y-19366174D02*
X10213039Y-19328079D01*
X10213039Y-19328079D02*
X10222563Y-19309031D01*
X10222563Y-19309031D02*
X10232087Y-19299508D01*
X10232087Y-19299508D02*
X10251134Y-19289984D01*
X10403515Y-19470936D02*
X10413039Y-19480460D01*
X10413039Y-19480460D02*
X10403515Y-19489984D01*
X10403515Y-19489984D02*
X10393991Y-19480460D01*
X10393991Y-19480460D02*
X10403515Y-19470936D01*
X10403515Y-19470936D02*
X10403515Y-19489984D01*
X10603515Y-19489984D02*
X10489229Y-19489984D01*
X10546372Y-19489984D02*
X10546372Y-19289984D01*
X10546372Y-19289984D02*
X10527325Y-19318555D01*
X10527325Y-19318555D02*
X10508277Y-19337603D01*
X10508277Y-19337603D02*
X10489229Y-19347127D01*
X10679706Y-19309031D02*
X10689229Y-19299508D01*
X10689229Y-19299508D02*
X10708277Y-19289984D01*
X10708277Y-19289984D02*
X10755896Y-19289984D01*
X10755896Y-19289984D02*
X10774944Y-19299508D01*
X10774944Y-19299508D02*
X10784468Y-19309031D01*
X10784468Y-19309031D02*
X10793991Y-19328079D01*
X10793991Y-19328079D02*
X10793991Y-19347127D01*
X10793991Y-19347127D02*
X10784468Y-19375698D01*
X10784468Y-19375698D02*
X10670182Y-19489984D01*
X10670182Y-19489984D02*
X10793991Y-19489984D01*
X10870182Y-19309031D02*
X10879706Y-19299508D01*
X10879706Y-19299508D02*
X10898753Y-19289984D01*
X10898753Y-19289984D02*
X10946372Y-19289984D01*
X10946372Y-19289984D02*
X10965420Y-19299508D01*
X10965420Y-19299508D02*
X10974944Y-19309031D01*
X10974944Y-19309031D02*
X10984468Y-19328079D01*
X10984468Y-19328079D02*
X10984468Y-19347127D01*
X10984468Y-19347127D02*
X10974944Y-19375698D01*
X10974944Y-19375698D02*
X10860658Y-19489984D01*
X10860658Y-19489984D02*
X10984468Y-19489984D01*
X11108277Y-19289984D02*
X11127325Y-19289984D01*
X11127325Y-19289984D02*
X11146372Y-19299508D01*
X11146372Y-19299508D02*
X11155896Y-19309031D01*
X11155896Y-19309031D02*
X11165420Y-19328079D01*
X11165420Y-19328079D02*
X11174944Y-19366174D01*
X11174944Y-19366174D02*
X11174944Y-19413793D01*
X11174944Y-19413793D02*
X11165420Y-19451889D01*
X11165420Y-19451889D02*
X11155896Y-19470936D01*
X11155896Y-19470936D02*
X11146372Y-19480460D01*
X11146372Y-19480460D02*
X11127325Y-19489984D01*
X11127325Y-19489984D02*
X11108277Y-19489984D01*
X11108277Y-19489984D02*
X11089229Y-19480460D01*
X11089229Y-19480460D02*
X11079706Y-19470936D01*
X11079706Y-19470936D02*
X11070182Y-19451889D01*
X11070182Y-19451889D02*
X11060658Y-19413793D01*
X11060658Y-19413793D02*
X11060658Y-19366174D01*
X11060658Y-19366174D02*
X11070182Y-19328079D01*
X11070182Y-19328079D02*
X11079706Y-19309031D01*
X11079706Y-19309031D02*
X11089229Y-19299508D01*
X11089229Y-19299508D02*
X11108277Y-19289984D01*
X11251134Y-19289984D02*
X11251134Y-19328079D01*
X11327325Y-19289984D02*
X11327325Y-19328079D01*
X11622563Y-19566174D02*
X11613039Y-19556650D01*
X11613039Y-19556650D02*
X11593991Y-19528079D01*
X11593991Y-19528079D02*
X11584468Y-19509031D01*
X11584468Y-19509031D02*
X11574944Y-19480460D01*
X11574944Y-19480460D02*
X11565420Y-19432841D01*
X11565420Y-19432841D02*
X11565420Y-19394746D01*
X11565420Y-19394746D02*
X11574944Y-19347127D01*
X11574944Y-19347127D02*
X11584468Y-19318555D01*
X11584468Y-19318555D02*
X11593991Y-19299508D01*
X11593991Y-19299508D02*
X11613039Y-19270936D01*
X11613039Y-19270936D02*
X11622563Y-19261412D01*
X11689229Y-19309031D02*
X11698753Y-19299508D01*
X11698753Y-19299508D02*
X11717801Y-19289984D01*
X11717801Y-19289984D02*
X11765420Y-19289984D01*
X11765420Y-19289984D02*
X11784468Y-19299508D01*
X11784468Y-19299508D02*
X11793991Y-19309031D01*
X11793991Y-19309031D02*
X11803515Y-19328079D01*
X11803515Y-19328079D02*
X11803515Y-19347127D01*
X11803515Y-19347127D02*
X11793991Y-19375698D01*
X11793991Y-19375698D02*
X11679706Y-19489984D01*
X11679706Y-19489984D02*
X11803515Y-19489984D01*
X12041610Y-19489984D02*
X12041610Y-19289984D01*
X12127325Y-19489984D02*
X12127325Y-19385222D01*
X12127325Y-19385222D02*
X12117801Y-19366174D01*
X12117801Y-19366174D02*
X12098753Y-19356650D01*
X12098753Y-19356650D02*
X12070182Y-19356650D01*
X12070182Y-19356650D02*
X12051134Y-19366174D01*
X12051134Y-19366174D02*
X12041610Y-19375698D01*
X12251134Y-19489984D02*
X12232087Y-19480460D01*
X12232087Y-19480460D02*
X12222563Y-19470936D01*
X12222563Y-19470936D02*
X12213039Y-19451889D01*
X12213039Y-19451889D02*
X12213039Y-19394746D01*
X12213039Y-19394746D02*
X12222563Y-19375698D01*
X12222563Y-19375698D02*
X12232087Y-19366174D01*
X12232087Y-19366174D02*
X12251134Y-19356650D01*
X12251134Y-19356650D02*
X12279706Y-19356650D01*
X12279706Y-19356650D02*
X12298753Y-19366174D01*
X12298753Y-19366174D02*
X12308277Y-19375698D01*
X12308277Y-19375698D02*
X12317801Y-19394746D01*
X12317801Y-19394746D02*
X12317801Y-19451889D01*
X12317801Y-19451889D02*
X12308277Y-19470936D01*
X12308277Y-19470936D02*
X12298753Y-19480460D01*
X12298753Y-19480460D02*
X12279706Y-19489984D01*
X12279706Y-19489984D02*
X12251134Y-19489984D01*
X12432087Y-19489984D02*
X12413039Y-19480460D01*
X12413039Y-19480460D02*
X12403515Y-19461412D01*
X12403515Y-19461412D02*
X12403515Y-19289984D01*
X12584468Y-19480460D02*
X12565420Y-19489984D01*
X12565420Y-19489984D02*
X12527325Y-19489984D01*
X12527325Y-19489984D02*
X12508277Y-19480460D01*
X12508277Y-19480460D02*
X12498753Y-19461412D01*
X12498753Y-19461412D02*
X12498753Y-19385222D01*
X12498753Y-19385222D02*
X12508277Y-19366174D01*
X12508277Y-19366174D02*
X12527325Y-19356650D01*
X12527325Y-19356650D02*
X12565420Y-19356650D01*
X12565420Y-19356650D02*
X12584468Y-19366174D01*
X12584468Y-19366174D02*
X12593991Y-19385222D01*
X12593991Y-19385222D02*
X12593991Y-19404270D01*
X12593991Y-19404270D02*
X12498753Y-19423317D01*
X12670182Y-19480460D02*
X12689230Y-19489984D01*
X12689230Y-19489984D02*
X12727325Y-19489984D01*
X12727325Y-19489984D02*
X12746372Y-19480460D01*
X12746372Y-19480460D02*
X12755896Y-19461412D01*
X12755896Y-19461412D02*
X12755896Y-19451889D01*
X12755896Y-19451889D02*
X12746372Y-19432841D01*
X12746372Y-19432841D02*
X12727325Y-19423317D01*
X12727325Y-19423317D02*
X12698753Y-19423317D01*
X12698753Y-19423317D02*
X12679706Y-19413793D01*
X12679706Y-19413793D02*
X12670182Y-19394746D01*
X12670182Y-19394746D02*
X12670182Y-19385222D01*
X12670182Y-19385222D02*
X12679706Y-19366174D01*
X12679706Y-19366174D02*
X12698753Y-19356650D01*
X12698753Y-19356650D02*
X12727325Y-19356650D01*
X12727325Y-19356650D02*
X12746372Y-19366174D01*
X12822563Y-19566174D02*
X12832087Y-19556650D01*
X12832087Y-19556650D02*
X12851134Y-19528079D01*
X12851134Y-19528079D02*
X12860658Y-19509031D01*
X12860658Y-19509031D02*
X12870182Y-19480460D01*
X12870182Y-19480460D02*
X12879706Y-19432841D01*
X12879706Y-19432841D02*
X12879706Y-19394746D01*
X12879706Y-19394746D02*
X12870182Y-19347127D01*
X12870182Y-19347127D02*
X12860658Y-19318555D01*
X12860658Y-19318555D02*
X12851134Y-19299508D01*
X12851134Y-19299508D02*
X12832087Y-19270936D01*
X12832087Y-19270936D02*
X12822563Y-19261412D01*
X7847500Y-19618500D02*
X8047500Y-19818500D01*
X8047500Y-19618500D02*
X7847500Y-19818500D01*
X8047500Y-19718500D02*
G75*
G02*
X7847500Y-19718500I-100000J0D01*
G01*
X7847500Y-19718500D02*
G75*
G02*
X8047500Y-19718500I100000J0D01*
G01*
X8289229Y-19609984D02*
X8413039Y-19609984D01*
X8413039Y-19609984D02*
X8346372Y-19686174D01*
X8346372Y-19686174D02*
X8374943Y-19686174D01*
X8374943Y-19686174D02*
X8393991Y-19695698D01*
X8393991Y-19695698D02*
X8403515Y-19705222D01*
X8403515Y-19705222D02*
X8413039Y-19724270D01*
X8413039Y-19724270D02*
X8413039Y-19771889D01*
X8413039Y-19771889D02*
X8403515Y-19790936D01*
X8403515Y-19790936D02*
X8393991Y-19800460D01*
X8393991Y-19800460D02*
X8374943Y-19809984D01*
X8374943Y-19809984D02*
X8317801Y-19809984D01*
X8317801Y-19809984D02*
X8298753Y-19800460D01*
X8298753Y-19800460D02*
X8289229Y-19790936D01*
X8498753Y-19790936D02*
X8508277Y-19800460D01*
X8508277Y-19800460D02*
X8498753Y-19809984D01*
X8498753Y-19809984D02*
X8489229Y-19800460D01*
X8489229Y-19800460D02*
X8498753Y-19790936D01*
X8498753Y-19790936D02*
X8498753Y-19809984D01*
X8584467Y-19629031D02*
X8593991Y-19619508D01*
X8593991Y-19619508D02*
X8613039Y-19609984D01*
X8613039Y-19609984D02*
X8660658Y-19609984D01*
X8660658Y-19609984D02*
X8679705Y-19619508D01*
X8679705Y-19619508D02*
X8689229Y-19629031D01*
X8689229Y-19629031D02*
X8698753Y-19648079D01*
X8698753Y-19648079D02*
X8698753Y-19667127D01*
X8698753Y-19667127D02*
X8689229Y-19695698D01*
X8689229Y-19695698D02*
X8574944Y-19809984D01*
X8574944Y-19809984D02*
X8698753Y-19809984D01*
X8822563Y-19609984D02*
X8841610Y-19609984D01*
X8841610Y-19609984D02*
X8860658Y-19619508D01*
X8860658Y-19619508D02*
X8870182Y-19629031D01*
X8870182Y-19629031D02*
X8879705Y-19648079D01*
X8879705Y-19648079D02*
X8889229Y-19686174D01*
X8889229Y-19686174D02*
X8889229Y-19733793D01*
X8889229Y-19733793D02*
X8879705Y-19771889D01*
X8879705Y-19771889D02*
X8870182Y-19790936D01*
X8870182Y-19790936D02*
X8860658Y-19800460D01*
X8860658Y-19800460D02*
X8841610Y-19809984D01*
X8841610Y-19809984D02*
X8822563Y-19809984D01*
X8822563Y-19809984D02*
X8803515Y-19800460D01*
X8803515Y-19800460D02*
X8793991Y-19790936D01*
X8793991Y-19790936D02*
X8784467Y-19771889D01*
X8784467Y-19771889D02*
X8774944Y-19733793D01*
X8774944Y-19733793D02*
X8774944Y-19686174D01*
X8774944Y-19686174D02*
X8784467Y-19648079D01*
X8784467Y-19648079D02*
X8793991Y-19629031D01*
X8793991Y-19629031D02*
X8803515Y-19619508D01*
X8803515Y-19619508D02*
X8822563Y-19609984D01*
X9013039Y-19609984D02*
X9032086Y-19609984D01*
X9032086Y-19609984D02*
X9051134Y-19619508D01*
X9051134Y-19619508D02*
X9060658Y-19629031D01*
X9060658Y-19629031D02*
X9070182Y-19648079D01*
X9070182Y-19648079D02*
X9079705Y-19686174D01*
X9079705Y-19686174D02*
X9079705Y-19733793D01*
X9079705Y-19733793D02*
X9070182Y-19771889D01*
X9070182Y-19771889D02*
X9060658Y-19790936D01*
X9060658Y-19790936D02*
X9051134Y-19800460D01*
X9051134Y-19800460D02*
X9032086Y-19809984D01*
X9032086Y-19809984D02*
X9013039Y-19809984D01*
X9013039Y-19809984D02*
X8993991Y-19800460D01*
X8993991Y-19800460D02*
X8984467Y-19790936D01*
X8984467Y-19790936D02*
X8974944Y-19771889D01*
X8974944Y-19771889D02*
X8965420Y-19733793D01*
X8965420Y-19733793D02*
X8965420Y-19686174D01*
X8965420Y-19686174D02*
X8974944Y-19648079D01*
X8974944Y-19648079D02*
X8984467Y-19629031D01*
X8984467Y-19629031D02*
X8993991Y-19619508D01*
X8993991Y-19619508D02*
X9013039Y-19609984D01*
X9165420Y-19809984D02*
X9165420Y-19676650D01*
X9165420Y-19695698D02*
X9174944Y-19686174D01*
X9174944Y-19686174D02*
X9193991Y-19676650D01*
X9193991Y-19676650D02*
X9222563Y-19676650D01*
X9222563Y-19676650D02*
X9241610Y-19686174D01*
X9241610Y-19686174D02*
X9251134Y-19705222D01*
X9251134Y-19705222D02*
X9251134Y-19809984D01*
X9251134Y-19705222D02*
X9260658Y-19686174D01*
X9260658Y-19686174D02*
X9279705Y-19676650D01*
X9279705Y-19676650D02*
X9308277Y-19676650D01*
X9308277Y-19676650D02*
X9327325Y-19686174D01*
X9327325Y-19686174D02*
X9336848Y-19705222D01*
X9336848Y-19705222D02*
X9336848Y-19809984D01*
X9432086Y-19809984D02*
X9432086Y-19676650D01*
X9432086Y-19695698D02*
X9441610Y-19686174D01*
X9441610Y-19686174D02*
X9460658Y-19676650D01*
X9460658Y-19676650D02*
X9489229Y-19676650D01*
X9489229Y-19676650D02*
X9508277Y-19686174D01*
X9508277Y-19686174D02*
X9517801Y-19705222D01*
X9517801Y-19705222D02*
X9517801Y-19809984D01*
X9517801Y-19705222D02*
X9527325Y-19686174D01*
X9527325Y-19686174D02*
X9546372Y-19676650D01*
X9546372Y-19676650D02*
X9574944Y-19676650D01*
X9574944Y-19676650D02*
X9593991Y-19686174D01*
X9593991Y-19686174D02*
X9603515Y-19705222D01*
X9603515Y-19705222D02*
X9603515Y-19809984D01*
X9993991Y-19600460D02*
X9822563Y-19857603D01*
X10251134Y-19609984D02*
X10270182Y-19609984D01*
X10270182Y-19609984D02*
X10289229Y-19619508D01*
X10289229Y-19619508D02*
X10298753Y-19629031D01*
X10298753Y-19629031D02*
X10308277Y-19648079D01*
X10308277Y-19648079D02*
X10317801Y-19686174D01*
X10317801Y-19686174D02*
X10317801Y-19733793D01*
X10317801Y-19733793D02*
X10308277Y-19771889D01*
X10308277Y-19771889D02*
X10298753Y-19790936D01*
X10298753Y-19790936D02*
X10289229Y-19800460D01*
X10289229Y-19800460D02*
X10270182Y-19809984D01*
X10270182Y-19809984D02*
X10251134Y-19809984D01*
X10251134Y-19809984D02*
X10232087Y-19800460D01*
X10232087Y-19800460D02*
X10222563Y-19790936D01*
X10222563Y-19790936D02*
X10213039Y-19771889D01*
X10213039Y-19771889D02*
X10203515Y-19733793D01*
X10203515Y-19733793D02*
X10203515Y-19686174D01*
X10203515Y-19686174D02*
X10213039Y-19648079D01*
X10213039Y-19648079D02*
X10222563Y-19629031D01*
X10222563Y-19629031D02*
X10232087Y-19619508D01*
X10232087Y-19619508D02*
X10251134Y-19609984D01*
X10403515Y-19790936D02*
X10413039Y-19800460D01*
X10413039Y-19800460D02*
X10403515Y-19809984D01*
X10403515Y-19809984D02*
X10393991Y-19800460D01*
X10393991Y-19800460D02*
X10403515Y-19790936D01*
X10403515Y-19790936D02*
X10403515Y-19809984D01*
X10603515Y-19809984D02*
X10489229Y-19809984D01*
X10546372Y-19809984D02*
X10546372Y-19609984D01*
X10546372Y-19609984D02*
X10527325Y-19638555D01*
X10527325Y-19638555D02*
X10508277Y-19657603D01*
X10508277Y-19657603D02*
X10489229Y-19667127D01*
X10679706Y-19629031D02*
X10689229Y-19619508D01*
X10689229Y-19619508D02*
X10708277Y-19609984D01*
X10708277Y-19609984D02*
X10755896Y-19609984D01*
X10755896Y-19609984D02*
X10774944Y-19619508D01*
X10774944Y-19619508D02*
X10784468Y-19629031D01*
X10784468Y-19629031D02*
X10793991Y-19648079D01*
X10793991Y-19648079D02*
X10793991Y-19667127D01*
X10793991Y-19667127D02*
X10784468Y-19695698D01*
X10784468Y-19695698D02*
X10670182Y-19809984D01*
X10670182Y-19809984D02*
X10793991Y-19809984D01*
X10965420Y-19609984D02*
X10927325Y-19609984D01*
X10927325Y-19609984D02*
X10908277Y-19619508D01*
X10908277Y-19619508D02*
X10898753Y-19629031D01*
X10898753Y-19629031D02*
X10879706Y-19657603D01*
X10879706Y-19657603D02*
X10870182Y-19695698D01*
X10870182Y-19695698D02*
X10870182Y-19771889D01*
X10870182Y-19771889D02*
X10879706Y-19790936D01*
X10879706Y-19790936D02*
X10889229Y-19800460D01*
X10889229Y-19800460D02*
X10908277Y-19809984D01*
X10908277Y-19809984D02*
X10946372Y-19809984D01*
X10946372Y-19809984D02*
X10965420Y-19800460D01*
X10965420Y-19800460D02*
X10974944Y-19790936D01*
X10974944Y-19790936D02*
X10984468Y-19771889D01*
X10984468Y-19771889D02*
X10984468Y-19724270D01*
X10984468Y-19724270D02*
X10974944Y-19705222D01*
X10974944Y-19705222D02*
X10965420Y-19695698D01*
X10965420Y-19695698D02*
X10946372Y-19686174D01*
X10946372Y-19686174D02*
X10908277Y-19686174D01*
X10908277Y-19686174D02*
X10889229Y-19695698D01*
X10889229Y-19695698D02*
X10879706Y-19705222D01*
X10879706Y-19705222D02*
X10870182Y-19724270D01*
X11108277Y-19609984D02*
X11127325Y-19609984D01*
X11127325Y-19609984D02*
X11146372Y-19619508D01*
X11146372Y-19619508D02*
X11155896Y-19629031D01*
X11155896Y-19629031D02*
X11165420Y-19648079D01*
X11165420Y-19648079D02*
X11174944Y-19686174D01*
X11174944Y-19686174D02*
X11174944Y-19733793D01*
X11174944Y-19733793D02*
X11165420Y-19771889D01*
X11165420Y-19771889D02*
X11155896Y-19790936D01*
X11155896Y-19790936D02*
X11146372Y-19800460D01*
X11146372Y-19800460D02*
X11127325Y-19809984D01*
X11127325Y-19809984D02*
X11108277Y-19809984D01*
X11108277Y-19809984D02*
X11089229Y-19800460D01*
X11089229Y-19800460D02*
X11079706Y-19790936D01*
X11079706Y-19790936D02*
X11070182Y-19771889D01*
X11070182Y-19771889D02*
X11060658Y-19733793D01*
X11060658Y-19733793D02*
X11060658Y-19686174D01*
X11060658Y-19686174D02*
X11070182Y-19648079D01*
X11070182Y-19648079D02*
X11079706Y-19629031D01*
X11079706Y-19629031D02*
X11089229Y-19619508D01*
X11089229Y-19619508D02*
X11108277Y-19609984D01*
X11251134Y-19609984D02*
X11251134Y-19648079D01*
X11327325Y-19609984D02*
X11327325Y-19648079D01*
X11622563Y-19886174D02*
X11613039Y-19876650D01*
X11613039Y-19876650D02*
X11593991Y-19848079D01*
X11593991Y-19848079D02*
X11584468Y-19829031D01*
X11584468Y-19829031D02*
X11574944Y-19800460D01*
X11574944Y-19800460D02*
X11565420Y-19752841D01*
X11565420Y-19752841D02*
X11565420Y-19714746D01*
X11565420Y-19714746D02*
X11574944Y-19667127D01*
X11574944Y-19667127D02*
X11584468Y-19638555D01*
X11584468Y-19638555D02*
X11593991Y-19619508D01*
X11593991Y-19619508D02*
X11613039Y-19590936D01*
X11613039Y-19590936D02*
X11622563Y-19581412D01*
X11784468Y-19609984D02*
X11746372Y-19609984D01*
X11746372Y-19609984D02*
X11727325Y-19619508D01*
X11727325Y-19619508D02*
X11717801Y-19629031D01*
X11717801Y-19629031D02*
X11698753Y-19657603D01*
X11698753Y-19657603D02*
X11689229Y-19695698D01*
X11689229Y-19695698D02*
X11689229Y-19771889D01*
X11689229Y-19771889D02*
X11698753Y-19790936D01*
X11698753Y-19790936D02*
X11708277Y-19800460D01*
X11708277Y-19800460D02*
X11727325Y-19809984D01*
X11727325Y-19809984D02*
X11765420Y-19809984D01*
X11765420Y-19809984D02*
X11784468Y-19800460D01*
X11784468Y-19800460D02*
X11793991Y-19790936D01*
X11793991Y-19790936D02*
X11803515Y-19771889D01*
X11803515Y-19771889D02*
X11803515Y-19724270D01*
X11803515Y-19724270D02*
X11793991Y-19705222D01*
X11793991Y-19705222D02*
X11784468Y-19695698D01*
X11784468Y-19695698D02*
X11765420Y-19686174D01*
X11765420Y-19686174D02*
X11727325Y-19686174D01*
X11727325Y-19686174D02*
X11708277Y-19695698D01*
X11708277Y-19695698D02*
X11698753Y-19705222D01*
X11698753Y-19705222D02*
X11689229Y-19724270D01*
X12041610Y-19809984D02*
X12041610Y-19609984D01*
X12127325Y-19809984D02*
X12127325Y-19705222D01*
X12127325Y-19705222D02*
X12117801Y-19686174D01*
X12117801Y-19686174D02*
X12098753Y-19676650D01*
X12098753Y-19676650D02*
X12070182Y-19676650D01*
X12070182Y-19676650D02*
X12051134Y-19686174D01*
X12051134Y-19686174D02*
X12041610Y-19695698D01*
X12251134Y-19809984D02*
X12232087Y-19800460D01*
X12232087Y-19800460D02*
X12222563Y-19790936D01*
X12222563Y-19790936D02*
X12213039Y-19771889D01*
X12213039Y-19771889D02*
X12213039Y-19714746D01*
X12213039Y-19714746D02*
X12222563Y-19695698D01*
X12222563Y-19695698D02*
X12232087Y-19686174D01*
X12232087Y-19686174D02*
X12251134Y-19676650D01*
X12251134Y-19676650D02*
X12279706Y-19676650D01*
X12279706Y-19676650D02*
X12298753Y-19686174D01*
X12298753Y-19686174D02*
X12308277Y-19695698D01*
X12308277Y-19695698D02*
X12317801Y-19714746D01*
X12317801Y-19714746D02*
X12317801Y-19771889D01*
X12317801Y-19771889D02*
X12308277Y-19790936D01*
X12308277Y-19790936D02*
X12298753Y-19800460D01*
X12298753Y-19800460D02*
X12279706Y-19809984D01*
X12279706Y-19809984D02*
X12251134Y-19809984D01*
X12432087Y-19809984D02*
X12413039Y-19800460D01*
X12413039Y-19800460D02*
X12403515Y-19781412D01*
X12403515Y-19781412D02*
X12403515Y-19609984D01*
X12584468Y-19800460D02*
X12565420Y-19809984D01*
X12565420Y-19809984D02*
X12527325Y-19809984D01*
X12527325Y-19809984D02*
X12508277Y-19800460D01*
X12508277Y-19800460D02*
X12498753Y-19781412D01*
X12498753Y-19781412D02*
X12498753Y-19705222D01*
X12498753Y-19705222D02*
X12508277Y-19686174D01*
X12508277Y-19686174D02*
X12527325Y-19676650D01*
X12527325Y-19676650D02*
X12565420Y-19676650D01*
X12565420Y-19676650D02*
X12584468Y-19686174D01*
X12584468Y-19686174D02*
X12593991Y-19705222D01*
X12593991Y-19705222D02*
X12593991Y-19724270D01*
X12593991Y-19724270D02*
X12498753Y-19743317D01*
X12670182Y-19800460D02*
X12689230Y-19809984D01*
X12689230Y-19809984D02*
X12727325Y-19809984D01*
X12727325Y-19809984D02*
X12746372Y-19800460D01*
X12746372Y-19800460D02*
X12755896Y-19781412D01*
X12755896Y-19781412D02*
X12755896Y-19771889D01*
X12755896Y-19771889D02*
X12746372Y-19752841D01*
X12746372Y-19752841D02*
X12727325Y-19743317D01*
X12727325Y-19743317D02*
X12698753Y-19743317D01*
X12698753Y-19743317D02*
X12679706Y-19733793D01*
X12679706Y-19733793D02*
X12670182Y-19714746D01*
X12670182Y-19714746D02*
X12670182Y-19705222D01*
X12670182Y-19705222D02*
X12679706Y-19686174D01*
X12679706Y-19686174D02*
X12698753Y-19676650D01*
X12698753Y-19676650D02*
X12727325Y-19676650D01*
X12727325Y-19676650D02*
X12746372Y-19686174D01*
X12822563Y-19886174D02*
X12832087Y-19876650D01*
X12832087Y-19876650D02*
X12851134Y-19848079D01*
X12851134Y-19848079D02*
X12860658Y-19829031D01*
X12860658Y-19829031D02*
X12870182Y-19800460D01*
X12870182Y-19800460D02*
X12879706Y-19752841D01*
X12879706Y-19752841D02*
X12879706Y-19714746D01*
X12879706Y-19714746D02*
X12870182Y-19667127D01*
X12870182Y-19667127D02*
X12860658Y-19638555D01*
X12860658Y-19638555D02*
X12851134Y-19619508D01*
X12851134Y-19619508D02*
X12832087Y-19590936D01*
X12832087Y-19590936D02*
X12822563Y-19581412D01*
M02*
