%TF.GenerationSoftware,KiCad,Pcbnew,8.0.0*%
%TF.CreationDate,2024-03-27T19:15:27-07:00*%
%TF.ProjectId,honda radio,686f6e64-6120-4726-9164-696f2e6b6963,rev?*%
%TF.SameCoordinates,Original*%
%TF.FileFunction,Soldermask,Top*%
%TF.FilePolarity,Negative*%
%FSLAX46Y46*%
G04 Gerber Fmt 4.6, Leading zero omitted, Abs format (unit mm)*
G04 Created by KiCad (PCBNEW 8.0.0) date 2024-03-27 19:15:27*
%MOMM*%
%LPD*%
G01*
G04 APERTURE LIST*
%ADD10C,1.600000*%
%ADD11O,1.600000X1.600000*%
%ADD12R,2.200000X2.200000*%
%ADD13O,2.200000X2.200000*%
%ADD14C,1.493000*%
%ADD15R,0.800000X2.660000*%
%ADD16C,4.800000*%
%ADD17C,4.650000*%
%ADD18R,1.500000X1.500000*%
%ADD19C,1.500000*%
%ADD20R,1.350000X1.350000*%
%ADD21O,1.350000X1.350000*%
%ADD22C,1.950000*%
%ADD23C,1.700000*%
%ADD24R,2.200000X2.800000*%
%ADD25R,2.800000X2.600000*%
%ADD26R,1.700000X1.700000*%
%ADD27O,1.700000X1.700000*%
%ADD28R,1.600000X1.600000*%
%ADD29C,4.890000*%
%ADD30R,3.750000X3.750000*%
%ADD31C,1.800000*%
%ADD32C,3.750000*%
G04 APERTURE END LIST*
D10*
%TO.C,R6*%
X155000000Y-98500000D03*
D11*
X144840000Y-98500000D03*
%TD*%
D12*
%TO.C,D7*%
X139420000Y-109080000D03*
D13*
X139420000Y-98920000D03*
%TD*%
D14*
%TO.C,Q10*%
X119835000Y-141300000D03*
X119835000Y-143900000D03*
X119835000Y-146500000D03*
%TD*%
D10*
%TO.C,R16*%
X175085000Y-74500000D03*
D11*
X164925000Y-74500000D03*
%TD*%
D10*
%TO.C,R23*%
X116000000Y-124000000D03*
D11*
X105840000Y-124000000D03*
%TD*%
D10*
%TO.C,R31*%
X116000000Y-146500000D03*
D11*
X105840000Y-146500000D03*
%TD*%
D15*
%TO.C,K8*%
X131690000Y-74630000D03*
X126610000Y-74630000D03*
X126610000Y-81370000D03*
X134230000Y-81370000D03*
%TD*%
D14*
%TO.C,Q5*%
X183835000Y-69300000D03*
X183835000Y-71900000D03*
X183835000Y-74500000D03*
%TD*%
D15*
%TO.C,K7*%
X131690000Y-102130000D03*
X126610000Y-102130000D03*
X126610000Y-108870000D03*
X134230000Y-108870000D03*
%TD*%
D10*
%TO.C,R30*%
X116000000Y-86500000D03*
D11*
X105840000Y-86500000D03*
%TD*%
D10*
%TO.C,R17*%
X135500000Y-141500000D03*
D11*
X125340000Y-141500000D03*
%TD*%
D16*
%TO.C,REF\u002A\u002A*%
X88500000Y-39500000D03*
%TD*%
D17*
%TO.C,J3*%
X95260000Y-48180000D03*
D18*
X96680000Y-88240000D03*
D19*
X96680000Y-85480000D03*
X96680000Y-82720000D03*
X96680000Y-79960000D03*
X96680000Y-77200000D03*
X96680000Y-74440000D03*
X96680000Y-71680000D03*
X96680000Y-68920000D03*
X96680000Y-66160000D03*
X96680000Y-63400000D03*
X96680000Y-60640000D03*
X96680000Y-57880000D03*
X96680000Y-55120000D03*
X93840000Y-86860000D03*
X93840000Y-84100000D03*
X93840000Y-81340000D03*
X93840000Y-78580000D03*
X93840000Y-75820000D03*
X93840000Y-73060000D03*
X93840000Y-70300000D03*
X93840000Y-67540000D03*
X93840000Y-64780000D03*
X93840000Y-62020000D03*
X93840000Y-59260000D03*
X93840000Y-56500000D03*
D17*
X95260000Y-95180000D03*
%TD*%
D16*
%TO.C,REF\u002A\u002A*%
X88420000Y-152500000D03*
%TD*%
D10*
%TO.C,R28*%
X116000000Y-141500000D03*
D11*
X105840000Y-141500000D03*
%TD*%
D16*
%TO.C,J1*%
X198420000Y-72995000D03*
D18*
X197000000Y-54955000D03*
D19*
X197000000Y-57727000D03*
X197000000Y-60500000D03*
X197000000Y-63272000D03*
X197000000Y-66045000D03*
X199840000Y-56341000D03*
X199840000Y-59114000D03*
X199840000Y-61886000D03*
X199840000Y-64659000D03*
D16*
X198420000Y-48005000D03*
%TD*%
D10*
%TO.C,R11*%
X135500000Y-96500000D03*
D11*
X125340000Y-96500000D03*
%TD*%
D20*
%TO.C,J8*%
X193920000Y-88500000D03*
D21*
X191920000Y-88500000D03*
X189920000Y-88500000D03*
X187920000Y-88500000D03*
X185920000Y-88500000D03*
D20*
X183920000Y-88500000D03*
D21*
X181920000Y-88500000D03*
X179920000Y-88500000D03*
X177920000Y-88500000D03*
X175920000Y-88500000D03*
X175920000Y-109500000D03*
X177920000Y-109500000D03*
X179920000Y-109500000D03*
X181920000Y-109500000D03*
X183920000Y-109500000D03*
D20*
X185920000Y-109500000D03*
D21*
X187920000Y-109500000D03*
X189920000Y-109500000D03*
X191920000Y-109500000D03*
X193920000Y-109500000D03*
%TD*%
D12*
%TO.C,D9*%
X139840000Y-51500000D03*
D13*
X150000000Y-51500000D03*
%TD*%
D10*
%TO.C,R29*%
X116000000Y-114000000D03*
D11*
X105840000Y-114000000D03*
%TD*%
D12*
%TO.C,D5*%
X178920000Y-74580000D03*
D13*
X178920000Y-64420000D03*
%TD*%
D10*
%TO.C,R27*%
X163000000Y-47000000D03*
D11*
X152840000Y-47000000D03*
%TD*%
D14*
%TO.C,Q2*%
X158835000Y-117300000D03*
X158835000Y-119900000D03*
X158835000Y-122500000D03*
%TD*%
D22*
%TO.C,K9*%
X108220000Y-58750000D03*
X128220000Y-58750000D03*
X133220000Y-58750000D03*
X133220000Y-51250000D03*
X128220000Y-51250000D03*
X108220000Y-51250000D03*
%TD*%
D12*
%TO.C,D2*%
X158920000Y-112580000D03*
D13*
X158920000Y-102420000D03*
%TD*%
D12*
%TO.C,D4*%
X158920000Y-64580000D03*
D13*
X158920000Y-54420000D03*
%TD*%
D10*
%TO.C,R7*%
X191920000Y-81000000D03*
D11*
X202080000Y-81000000D03*
%TD*%
D15*
%TO.C,K6*%
X131690000Y-129630000D03*
X126610000Y-129630000D03*
X126610000Y-136370000D03*
X134230000Y-136370000D03*
%TD*%
D10*
%TO.C,R5*%
X155000000Y-122500000D03*
D11*
X144840000Y-122500000D03*
%TD*%
D15*
%TO.C,K1*%
X151190000Y-129630000D03*
X146110000Y-129630000D03*
X146110000Y-136370000D03*
X153730000Y-136370000D03*
%TD*%
D10*
%TO.C,R32*%
X116000000Y-119000000D03*
D11*
X105840000Y-119000000D03*
%TD*%
D10*
%TO.C,R25*%
X116000000Y-69000000D03*
D11*
X105840000Y-69000000D03*
%TD*%
D23*
%TO.C,J5*%
X86420000Y-108500000D03*
X93420000Y-108500000D03*
D24*
X85320000Y-112200000D03*
D25*
X94720000Y-112300000D03*
D24*
X87320000Y-104800000D03*
%TD*%
D12*
%TO.C,D3*%
X158920000Y-88580000D03*
D13*
X158920000Y-78420000D03*
%TD*%
D14*
%TO.C,Q7*%
X139335000Y-113800000D03*
X139335000Y-116400000D03*
X139335000Y-119000000D03*
%TD*%
D16*
%TO.C,*%
X203000000Y-39500000D03*
%TD*%
%TO.C,*%
X202920000Y-152500000D03*
%TD*%
D15*
%TO.C,K3*%
X151190000Y-81630000D03*
X146110000Y-81630000D03*
X146110000Y-88370000D03*
X153730000Y-88370000D03*
%TD*%
D10*
%TO.C,R13*%
X155000000Y-69500000D03*
D11*
X144840000Y-69500000D03*
%TD*%
D14*
%TO.C,Q9*%
X171620000Y-46915000D03*
X169020000Y-46915000D03*
X166420000Y-46915000D03*
%TD*%
D15*
%TO.C,K12*%
X112190000Y-74630000D03*
X107110000Y-74630000D03*
X107110000Y-81370000D03*
X114730000Y-81370000D03*
%TD*%
D14*
%TO.C,Q12*%
X119835000Y-86300000D03*
X119835000Y-88900000D03*
X119835000Y-91500000D03*
%TD*%
D10*
%TO.C,R26*%
X139840000Y-47000000D03*
D11*
X150000000Y-47000000D03*
%TD*%
D14*
%TO.C,Q3*%
X158835000Y-93300000D03*
X158835000Y-95900000D03*
X158835000Y-98500000D03*
%TD*%
D10*
%TO.C,R21*%
X135500000Y-119000000D03*
D11*
X125340000Y-119000000D03*
%TD*%
D14*
%TO.C,Q1*%
X158835000Y-141300000D03*
X158835000Y-143900000D03*
X158835000Y-146500000D03*
%TD*%
D12*
%TO.C,D11*%
X119920000Y-109080000D03*
D13*
X119920000Y-98920000D03*
%TD*%
D10*
%TO.C,R33*%
X116000000Y-91500000D03*
D11*
X105840000Y-91500000D03*
%TD*%
D12*
%TO.C,D12*%
X119920000Y-81580000D03*
D13*
X119920000Y-71420000D03*
%TD*%
D10*
%TO.C,R22*%
X135500000Y-91500000D03*
D11*
X125340000Y-91500000D03*
%TD*%
D12*
%TO.C,D10*%
X119920000Y-136580000D03*
D13*
X119920000Y-126420000D03*
%TD*%
D14*
%TO.C,Q6*%
X139335000Y-141300000D03*
X139335000Y-143900000D03*
X139335000Y-146500000D03*
%TD*%
D10*
%TO.C,R15*%
X155000000Y-74500000D03*
D11*
X144840000Y-74500000D03*
%TD*%
D14*
%TO.C,Q8*%
X139335000Y-86300000D03*
X139335000Y-88900000D03*
X139335000Y-91500000D03*
%TD*%
D15*
%TO.C,K4*%
X151190000Y-57630000D03*
X146110000Y-57630000D03*
X146110000Y-64370000D03*
X153730000Y-64370000D03*
%TD*%
D10*
%TO.C,R10*%
X135500000Y-124000000D03*
D11*
X125340000Y-124000000D03*
%TD*%
D10*
%TO.C,R1*%
X155000000Y-141500000D03*
D11*
X144840000Y-141500000D03*
%TD*%
D10*
%TO.C,R20*%
X135500000Y-146500000D03*
D11*
X125340000Y-146500000D03*
%TD*%
D15*
%TO.C,K11*%
X112190000Y-102130000D03*
X107110000Y-102130000D03*
X107110000Y-108870000D03*
X114730000Y-108870000D03*
%TD*%
D10*
%TO.C,R19*%
X135580000Y-86500000D03*
D11*
X125420000Y-86500000D03*
%TD*%
D10*
%TO.C,R2*%
X155000000Y-117500000D03*
D11*
X144840000Y-117500000D03*
%TD*%
D10*
%TO.C,R12*%
X135500000Y-69000000D03*
D11*
X125340000Y-69000000D03*
%TD*%
D15*
%TO.C,K5*%
X171275000Y-57630000D03*
X166195000Y-57630000D03*
X166195000Y-64370000D03*
X173815000Y-64370000D03*
%TD*%
%TO.C,K2*%
X151190000Y-105630000D03*
X146110000Y-105630000D03*
X146110000Y-112370000D03*
X153730000Y-112370000D03*
%TD*%
D12*
%TO.C,D1*%
X158920000Y-136580000D03*
D13*
X158920000Y-126420000D03*
%TD*%
D10*
%TO.C,R14*%
X175085000Y-69500000D03*
D11*
X164925000Y-69500000D03*
%TD*%
D10*
%TO.C,R24*%
X116000000Y-96500000D03*
D11*
X105840000Y-96500000D03*
%TD*%
D15*
%TO.C,K10*%
X112190000Y-129630000D03*
X107110000Y-129630000D03*
X107110000Y-136370000D03*
X114730000Y-136370000D03*
%TD*%
D10*
%TO.C,R8*%
X178340000Y-81000000D03*
D11*
X188500000Y-81000000D03*
%TD*%
D10*
%TO.C,R18*%
X135500000Y-114000000D03*
D11*
X125340000Y-114000000D03*
%TD*%
D10*
%TO.C,R3*%
X155000000Y-93500000D03*
D11*
X144840000Y-93500000D03*
%TD*%
D26*
%TO.C,J7*%
X186780000Y-47080000D03*
D27*
X184240000Y-47080000D03*
X181700000Y-47080000D03*
X179160000Y-47080000D03*
%TD*%
D12*
%TO.C,D6*%
X139420000Y-136580000D03*
D13*
X139420000Y-126420000D03*
%TD*%
D10*
%TO.C,R9*%
X164920000Y-81000000D03*
D11*
X175080000Y-81000000D03*
%TD*%
D10*
%TO.C,R4*%
X155000000Y-146500000D03*
D11*
X144840000Y-146500000D03*
%TD*%
D14*
%TO.C,Q11*%
X119835000Y-113800000D03*
X119835000Y-116400000D03*
X119835000Y-119000000D03*
%TD*%
D11*
%TO.C,J6*%
X184050000Y-117950000D03*
D28*
X184050000Y-120490000D03*
D11*
X184050000Y-123030000D03*
X184050000Y-125570000D03*
X184050000Y-128110000D03*
X184050000Y-130650000D03*
X184050000Y-133190000D03*
X184050000Y-135730000D03*
X184050000Y-138270000D03*
X184050000Y-140810000D03*
X184050000Y-143350000D03*
X184050000Y-145890000D03*
X184050000Y-148430000D03*
X184050000Y-150970000D03*
X184050000Y-153510000D03*
X168810000Y-117950000D03*
X168810000Y-120490000D03*
X168810000Y-123030000D03*
D28*
X168810000Y-125570000D03*
D11*
X168810000Y-128110000D03*
X168810000Y-130650000D03*
X168810000Y-133190000D03*
X168810000Y-135730000D03*
X168810000Y-138270000D03*
X168810000Y-140810000D03*
X168810000Y-143350000D03*
X168810000Y-145890000D03*
X168810000Y-148430000D03*
X168810000Y-150970000D03*
X168810000Y-153510000D03*
%TD*%
D16*
%TO.C,J2*%
X198415000Y-144495000D03*
D18*
X196995000Y-126455000D03*
D19*
X196995000Y-129227000D03*
X196995000Y-132000000D03*
X196995000Y-134772000D03*
X196995000Y-137545000D03*
X199835000Y-127841000D03*
X199835000Y-130614000D03*
X199835000Y-133386000D03*
X199835000Y-136159000D03*
D16*
X198415000Y-119505000D03*
%TD*%
D14*
%TO.C,Q4*%
X158835000Y-69300000D03*
X158835000Y-71900000D03*
X158835000Y-74500000D03*
%TD*%
D29*
%TO.C,J4*%
X88670000Y-144150000D03*
X88670000Y-119850000D03*
D30*
X88670000Y-125000000D03*
D31*
X93420000Y-129000000D03*
D32*
X88670000Y-139000000D03*
D31*
X93420000Y-143000000D03*
%TD*%
D12*
%TO.C,D8*%
X139420000Y-81580000D03*
D13*
X139420000Y-71420000D03*
%TD*%
M02*
